<svg version="1.1" viewBox="0.0 0.0 600.0 371.0" fill="none" stroke="none" stroke-linecap="square" stroke-miterlimit="10" width="600" height="371" xmlns:xlink="http://www.w3.org/1999/xlink" xmlns="http://www.w3.org/2000/svg"><path fill="#ffffff" d="M0 0L600.0 0L600.0 371.0L0 371.0L0 0Z" fill-rule="nonzero"/><path stroke="#000000" stroke-width="1.0" stroke-linecap="butt" stroke-opacity="0.0" d="M51.5 267.5L581.5 267.5" fill-rule="nonzero"/><path stroke="#000000" stroke-width="1.0" stroke-linecap="butt" stroke-opacity="0.0" d="M51.5 250.5L581.5 250.5" fill-rule="nonzero"/><path stroke="#000000" stroke-width="1.0" stroke-linecap="butt" stroke-opacity="0.0" d="M51.5 218.5L581.5 218.5" fill-rule="nonzero"/><path stroke="#000000" stroke-width="1.0" stroke-linecap="butt" stroke-opacity="0.0" d="M51.5 202.5L581.5 202.5" fill-rule="nonzero"/><path stroke="#000000" stroke-width="1.0" stroke-linecap="butt" stroke-opacity="0.0" d="M51.5 169.5L581.5 169.5" fill-rule="nonzero"/><path stroke="#000000" stroke-width="1.0" stroke-linecap="butt" stroke-opacity="0.0" d="M51.5 153.5L581.5 153.5" fill-rule="nonzero"/><path stroke="#000000" stroke-width="1.0" stroke-linecap="butt" stroke-opacity="0.0" d="M51.5 120.5L581.5 120.5" fill-rule="nonzero"/><path stroke="#000000" stroke-width="1.0" stroke-linecap="butt" stroke-opacity="0.0" d="M51.5 104.5L581.5 104.5" fill-rule="nonzero"/><path stroke="#000000" stroke-width="1.0" stroke-linecap="butt" d="M581.5 283.5L51.5 283.5" fill-rule="nonzero"/><path stroke="#000000" stroke-width="1.0" stroke-linecap="butt" d="M51.5 283.5L51.5 88.5" fill-rule="nonzero"/><clipPath id="id_0"><path d="M51.55 88.28333L581.45 88.28333L581.45 283.45L51.55 283.45L51.55 88.28333Z" clip-rule="nonzero"/></clipPath><path stroke="#000000" stroke-width="2.0" stroke-linecap="butt" stroke-opacity="0.0" clip-path="url(#id_0)" d="M120.0 283.0L96.0 283.0L96.0 120.0C96.0 118.89543 96.89543 118.0 98.0 118.0L118.0 118.0C119.10457 118.0 120.0 118.89543 120.0 120.0Z" fill-rule="nonzero"/><path fill="#4285f4" clip-path="url(#id_0)" d="M120.0 283.0L96.0 283.0L96.0 120.0C96.0 118.89543 96.89543 118.0 98.0 118.0L118.0 118.0C119.10457 118.0 120.0 118.89543 120.0 120.0Z" fill-rule="nonzero"/><path stroke="#000000" stroke-width="2.0" stroke-linecap="butt" stroke-opacity="0.0" clip-path="url(#id_0)" d="M242.0 283.0L218.0 283.0L218.0 105.0C218.0 103.89543 218.89543 103.0 220.0 103.0L240.0 103.0C241.10457 103.0 242.0 103.89543 242.0 105.0Z" fill-rule="nonzero"/><path fill="#4285f4" clip-path="url(#id_0)" d="M242.0 283.0L218.0 283.0L218.0 105.0C218.0 103.89543 218.89543 103.0 220.0 103.0L240.0 103.0C241.10457 103.0 242.0 103.89543 242.0 105.0Z" fill-rule="nonzero"/><path stroke="#000000" stroke-width="2.0" stroke-linecap="butt" stroke-opacity="0.0" clip-path="url(#id_0)" d="M363.0 283.0L339.0 283.0L339.0 124.0C339.0 122.89543 339.89542 122.0 341.0 122.0L361.0 122.0C362.10458 122.0 363.0 122.89543 363.0 124.0Z" fill-rule="nonzero"/><path fill="#4285f4" clip-path="url(#id_0)" d="M363.0 283.0L339.0 283.0L339.0 124.0C339.0 122.89543 339.89542 122.0 341.0 122.0L361.0 122.0C362.10458 122.0 363.0 122.89543 363.0 124.0Z" fill-rule="nonzero"/><path stroke="#000000" stroke-width="2.0" stroke-linecap="butt" stroke-opacity="0.0" clip-path="url(#id_0)" d="M485.0 283.0L461.0 283.0L461.0 159.0C461.0 157.89543 461.89542 157.0 463.0 157.0L483.0 157.0C484.10458 157.0 485.0 157.89543 485.0 159.0Z" fill-rule="nonzero"/><path fill="#4285f4" clip-path="url(#id_0)" d="M485.0 283.0L461.0 283.0L461.0 159.0C461.0 157.89543 461.89542 157.0 463.0 157.0L483.0 157.0C484.10458 157.0 485.0 157.89543 485.0 159.0Z" fill-rule="nonzero"/><path stroke="#000000" stroke-width="2.0" stroke-linecap="butt" stroke-opacity="0.0" clip-path="url(#id_0)" d="M146.0 283.0L122.0 283.0L122.0 246.0C122.0 244.89543 122.89543 244.0 124.0 244.0L144.0 244.0C145.10457 244.0 146.0 244.89543 146.0 246.0Z" fill-rule="nonzero"/><path fill="#ea4335" clip-path="url(#id_0)" d="M146.0 283.0L122.0 283.0L122.0 246.0C122.0 244.89543 122.89543 244.0 124.0 244.0L144.0 244.0C145.10457 244.0 146.0 244.89543 146.0 246.0Z" fill-rule="nonzero"/><path stroke="#000000" stroke-width="2.0" stroke-linecap="butt" stroke-opacity="0.0" clip-path="url(#id_0)" d="M268.0 283.0L244.0 283.0L244.0 178.0C244.0 176.89543 244.89543 176.0 246.0 176.0L266.0 176.0C267.10458 176.0 268.0 176.89543 268.0 178.0Z" fill-rule="nonzero"/><path fill="#ea4335" clip-path="url(#id_0)" d="M268.0 283.0L244.0 283.0L244.0 178.0C244.0 176.89543 244.89543 176.0 246.0 176.0L266.0 176.0C267.10458 176.0 268.0 176.89543 268.0 178.0Z" fill-rule="nonzero"/><path stroke="#000000" stroke-width="2.0" stroke-linecap="butt" stroke-opacity="0.0" clip-path="url(#id_0)" d="M389.0 283.0L365.0 283.0L365.0 242.0C365.0 240.89543 365.89542 240.0 367.0 240.0L387.0 240.0C388.10458 240.0 389.0 240.89543 389.0 242.0Z" fill-rule="nonzero"/><path fill="#ea4335" clip-path="url(#id_0)" d="M389.0 283.0L365.0 283.0L365.0 242.0C365.0 240.89543 365.89542 240.0 367.0 240.0L387.0 240.0C388.10458 240.0 389.0 240.89543 389.0 242.0Z" fill-rule="nonzero"/><path stroke="#000000" stroke-width="2.0" stroke-linecap="butt" stroke-opacity="0.0" clip-path="url(#id_0)" d="M511.0 283.0L487.0 283.0L487.0 256.0C487.0 254.89543 487.89542 254.0 489.0 254.0L509.0 254.0C510.10458 254.0 511.0 254.89543 511.0 256.0Z" fill-rule="nonzero"/><path fill="#ea4335" clip-path="url(#id_0)" d="M511.0 283.0L487.0 283.0L487.0 256.0C487.0 254.89543 487.89542 254.0 489.0 254.0L509.0 254.0C510.10458 254.0 511.0 254.89543 511.0 256.0Z" fill-rule="nonzero"/><path stroke="#000000" stroke-width="2.0" stroke-linecap="butt" stroke-opacity="0.0" clip-path="url(#id_0)" d="M172.0 283.0L148.0 283.0L148.0 281.0C148.0 279.89542 148.89543 279.0 150.0 279.0L170.0 279.0C171.10457 279.0 172.0 279.89542 172.0 281.0Z" fill-rule="nonzero"/><path fill="#34a853" clip-path="url(#id_0)" d="M172.0 283.0L148.0 283.0L148.0 281.0C148.0 279.89542 148.89543 279.0 150.0 279.0L170.0 279.0C171.10457 279.0 172.0 279.89542 172.0 281.0Z" fill-rule="nonzero"/><path stroke="#000000" stroke-width="2.0" stroke-linecap="butt" stroke-opacity="0.0" clip-path="url(#id_0)" d="M294.0 283.0L270.0 283.0L270.0 266.0C270.0 264.89542 270.89542 264.0 272.0 264.0L292.0 264.0C293.10458 264.0 294.0 264.89542 294.0 266.0Z" fill-rule="nonzero"/><path fill="#34a853" clip-path="url(#id_0)" d="M294.0 283.0L270.0 283.0L270.0 266.0C270.0 264.89542 270.89542 264.0 272.0 264.0L292.0 264.0C293.10458 264.0 294.0 264.89542 294.0 266.0Z" fill-rule="nonzero"/><path stroke="#000000" stroke-width="2.0" stroke-linecap="butt" stroke-opacity="0.0" clip-path="url(#id_0)" d="M415.0 283.0L391.0 283.0L391.0 283.0L415.0 283.0Z" fill-rule="nonzero"/><path fill="#34a853" clip-path="url(#id_0)" d="M415.0 283.0L391.0 283.0L391.0 283.0L415.0 283.0Z" fill-rule="nonzero"/><path stroke="#000000" stroke-width="2.0" stroke-linecap="butt" stroke-opacity="0.0" clip-path="url(#id_0)" d="M537.0 283.0L513.0 283.0L513.0 283.0L537.0 283.0Z" fill-rule="nonzero"/><path fill="#34a853" clip-path="url(#id_0)" d="M537.0 283.0L513.0 283.0L513.0 283.0L537.0 283.0Z" fill-rule="nonzero"/><path stroke="#000000" stroke-width="1.0" stroke-linecap="butt" d="M133.5 289.5L133.5 277.5" fill-rule="nonzero"/><path stroke="#000000" stroke-width="1.0" stroke-linecap="butt" d="M255.5 289.5L255.5 277.5" fill-rule="nonzero"/><path stroke="#000000" stroke-width="1.0" stroke-linecap="butt" d="M377.5 289.5L377.5 277.5" fill-rule="nonzero"/><path stroke="#000000" stroke-width="1.0" stroke-linecap="butt" d="M499.5 289.5L499.5 277.5" fill-rule="nonzero"/><path stroke="#000000" stroke-width="1.0" stroke-linecap="butt" d="M45.5 283.5L57.5 283.5" fill-rule="nonzero"/><path stroke="#000000" stroke-width="1.0" stroke-linecap="butt" d="M45.5 234.5L57.5 234.5" fill-rule="nonzero"/><path stroke="#000000" stroke-width="1.0" stroke-linecap="butt" d="M45.5 185.5L57.5 185.5" fill-rule="nonzero"/><path stroke="#000000" stroke-width="1.0" stroke-linecap="butt" d="M45.5 137.5L57.5 137.5" fill-rule="nonzero"/><path stroke="#000000" stroke-width="1.0" stroke-linecap="butt" d="M45.5 88.5L57.5 88.5" fill-rule="nonzero"/><path fill="#000000" d="M297.25 348.45L297.25 338.9344L293.84375 338.9344L293.84375 336.9969L302.95312 336.9969L302.95312 338.9344L299.5625 338.9344L299.5625 348.45L297.25 348.45ZM306.29688 342.6844L304.29688 342.325Q304.64062 341.1219 305.45312 340.54376Q306.28125 339.96564 307.89062 339.96564Q309.35938 339.96564 310.07812 340.3094Q310.79688 340.65314 311.09375 341.2Q311.39062 341.73126 311.39062 343.15314L311.35938 345.71564Q311.35938 346.8094 311.46875 347.34064Q311.57812 347.85626 311.85938 348.45L309.6875 348.45Q309.60938 348.23126 309.48438 347.79376Q309.42188 347.60626 309.40625 347.54376Q308.84375 348.09064 308.20312 348.3719Q307.5625 348.6375 306.82812 348.6375Q305.54688 348.6375 304.8125 347.95Q304.07812 347.2469 304.07812 346.1844Q304.07812 345.48126 304.40625 344.9344Q304.75 344.3719 305.34375 344.09064Q305.95312 343.79376 307.09375 343.575Q308.64062 343.27814 309.23438 343.02814L309.23438 342.8094Q309.23438 342.1844 308.92188 341.91876Q308.60938 341.6375 307.73438 341.6375Q307.15625 341.6375 306.82812 341.8719Q306.5 342.10626 306.29688 342.6844ZM309.23438 344.46564Q308.8125 344.60626 307.89062 344.8094Q306.98438 344.9969 306.70312 345.1844Q306.26562 345.48126 306.26562 345.95Q306.26562 346.41876 306.60938 346.7625Q306.95312 347.09064 307.48438 347.09064Q308.07812 347.09064 308.625 346.7Q309.01562 346.40314 309.14062 345.96564Q309.23438 345.6844 309.23438 344.90314L309.23438 344.46564ZM312.875 346.075L315.07812 345.7469Q315.21875 346.3875 315.64062 346.71564Q316.07812 347.04376 316.85938 347.04376Q317.70312 347.04376 318.14062 346.73126Q318.42188 346.5125 318.42188 346.15314Q318.42188 345.90314 318.26562 345.73126Q318.10938 345.575 317.53125 345.45Q314.875 344.85626 314.17188 344.3719Q313.1875 343.7 313.1875 342.5125Q313.1875 341.4344 314.03125 340.7Q314.89062 339.96564 316.67188 339.96564Q318.375 339.96564 319.20312 340.52814Q320.03125 341.075 320.34375 342.15314L318.28125 342.54376Q318.14062 342.0594 317.76562 341.8094Q317.40625 341.54376 316.71875 341.54376Q315.84375 341.54376 315.46875 341.77814Q315.21875 341.95 315.21875 342.23126Q315.21875 342.46564 315.4375 342.6219Q315.73438 342.84064 317.48438 343.2469Q319.25 343.6375 319.9375 344.21564Q320.625 344.8094 320.625 345.85626Q320.625 346.9969 319.67188 347.825Q318.71875 348.6375 316.85938 348.6375Q315.15625 348.6375 314.17188 347.95Q313.1875 347.2625 312.875 346.075ZM322.57812 348.45L322.57812 336.9969L324.76562 336.9969L324.76562 343.075L327.34375 340.15314L330.04688 340.15314L327.20312 343.1844L330.25 348.45L327.875 348.45L325.79688 344.71564L324.76562 345.79376L324.76562 348.45L322.57812 348.45ZM330.875 346.075L333.07812 345.7469Q333.21875 346.3875 333.64062 346.71564Q334.07812 347.04376 334.85938 347.04376Q335.70312 347.04376 336.14062 346.73126Q336.42188 346.5125 336.42188 346.15314Q336.42188 345.90314 336.26562 345.73126Q336.10938 345.575 335.53125 345.45Q332.875 344.85626 332.17188 344.3719Q331.1875 343.7 331.1875 342.5125Q331.1875 341.4344 332.03125 340.7Q332.89062 339.96564 334.67188 339.96564Q336.375 339.96564 337.20312 340.52814Q338.03125 341.075 338.34375 342.15314L336.28125 342.54376Q336.14062 342.0594 335.76562 341.8094Q335.40625 341.54376 334.71875 341.54376Q333.84375 341.54376 333.46875 341.77814Q333.21875 341.95 333.21875 342.23126Q333.21875 342.46564 333.4375 342.6219Q333.73438 342.84064 335.48438 343.2469Q337.25 343.6375 337.9375 344.21564Q338.625 344.8094 338.625 345.85626Q338.625 346.9969 337.67188 347.825Q336.71875 348.6375 334.85938 348.6375Q333.15625 348.6375 332.17188 347.95Q331.1875 347.2625 330.875 346.075Z" fill-rule="nonzero"/><path fill="#000000" d="M33.05 283.21564Q33.05 281.6844 33.3625 280.7625Q33.675 279.825 34.284374 279.325Q34.909374 278.825 35.846874 278.825Q36.534374 278.825 37.05 279.10626Q37.58125 279.3875 37.925 279.91876Q38.26875 280.4344 38.45625 281.1844Q38.64375 281.9344 38.64375 283.21564Q38.64375 284.73126 38.33125 285.65314Q38.034374 286.575 37.409374 287.09064Q36.8 287.59064 35.846874 287.59064Q34.6125 287.59064 33.89375 286.7Q33.05 285.6375 33.05 283.21564ZM34.128124 283.21564Q34.128124 285.325 34.628124 286.02814Q35.128124 286.73126 35.846874 286.73126Q36.58125 286.73126 37.065624 286.02814Q37.565624 285.325 37.565624 283.21564Q37.565624 281.09064 37.065624 280.40314Q36.58125 279.7 35.83125 279.7Q35.1125 279.7 34.675 280.3094Q34.128124 281.09064 34.128124 283.21564Z" fill-rule="nonzero"/><path fill="#000000" d="M30.01875 238.65834L28.971874 238.65834L28.971874 231.93959Q28.58125 232.29897 27.95625 232.67397Q27.346874 233.03334 26.8625 233.20522L26.8625 232.18959Q27.7375 231.76772 28.39375 231.18959Q29.065624 230.59584 29.346874 230.03334L30.01875 230.03334L30.01875 238.65834ZM33.05 234.42397Q33.05 232.89272 33.3625 231.97084Q33.675 231.03334 34.284374 230.53334Q34.909374 230.03334 35.846874 230.03334Q36.534374 230.03334 37.05 230.31459Q37.58125 230.59584 37.925 231.12709Q38.26875 231.64272 38.45625 232.39272Q38.64375 233.14272 38.64375 234.42397Q38.64375 235.93959 38.33125 236.86147Q38.034374 237.78334 37.409374 238.29897Q36.8 238.79897 35.846874 238.79897Q34.6125 238.79897 33.89375 237.90834Q33.05 236.84584 33.05 234.42397ZM34.128124 234.42397Q34.128124 236.53334 34.628124 237.23647Q35.128124 237.93959 35.846874 237.93959Q36.58125 237.93959 37.065624 237.23647Q37.565624 236.53334 37.565624 234.42397Q37.565624 232.29897 37.065624 231.61147Q36.58125 230.90834 35.83125 230.90834Q35.1125 230.90834 34.675 231.51772Q34.128124 232.29897 34.128124 234.42397Z" fill-rule="nonzero"/><path fill="#000000" d="M31.596874 188.85104L31.596874 189.86667L25.909374 189.86667Q25.909374 189.49167 26.034374 189.1323Q26.253124 188.55417 26.721874 187.99167Q27.20625 187.42917 28.1125 186.6948Q29.51875 185.53854 30.003124 184.86667Q30.503124 184.1948 30.503124 183.60104Q30.503124 182.97604 30.05 182.55417Q29.596874 182.11667 28.878124 182.11667Q28.1125 182.11667 27.659374 182.5698Q27.20625 183.02292 27.190624 183.83542L26.1125 183.72604Q26.221874 182.5073 26.940624 181.8823Q27.675 181.24167 28.909374 181.24167Q30.14375 181.24167 30.8625 181.92917Q31.58125 182.61667 31.58125 183.6323Q31.58125 184.14792 31.3625 184.64792Q31.159374 185.1323 30.659374 185.6948Q30.175 186.24167 29.05 187.1948Q28.096874 187.99167 27.815624 188.28854Q27.55 188.5698 27.378124 188.85104L31.596874 188.85104ZM33.05 185.6323Q33.05 184.10104 33.3625 183.17917Q33.675 182.24167 34.284374 181.74167Q34.909374 181.24167 35.846874 181.24167Q36.534374 181.24167 37.05 181.52292Q37.58125 181.80417 37.925 182.33542Q38.26875 182.85104 38.45625 183.60104Q38.64375 184.35104 38.64375 185.6323Q38.64375 187.14792 38.33125 188.0698Q38.034374 188.99167 37.409374 189.5073Q36.8 190.0073 35.846874 190.0073Q34.6125 190.0073 33.89375 189.11667Q33.05 188.05417 33.05 185.6323ZM34.128124 185.6323Q34.128124 187.74167 34.628124 188.4448Q35.128124 189.14792 35.846874 189.14792Q36.58125 189.14792 37.065624 188.4448Q37.565624 187.74167 37.565624 185.6323Q37.565624 183.5073 37.065624 182.8198Q36.58125 182.11667 35.83125 182.11667Q35.1125 182.11667 34.675 182.72604Q34.128124 183.5073 34.128124 185.6323Z" fill-rule="nonzero"/><path fill="#000000" d="M26.05 138.80937L27.1125 138.66875Q27.284374 139.55937 27.721874 139.96562Q28.159374 140.35625 28.784374 140.35625Q29.534374 140.35625 30.05 139.84062Q30.565624 139.325 30.565624 138.55937Q30.565624 137.84062 30.08125 137.37187Q29.6125 136.8875 28.878124 136.8875Q28.58125 136.8875 28.128124 137.0125L28.253124 136.075Q28.3625 136.09062 28.425 136.09062Q29.096874 136.09062 29.628124 135.74687Q30.175 135.3875 30.175 134.65312Q30.175 134.075 29.784374 133.7Q29.39375 133.30937 28.76875 133.30937Q28.159374 133.30937 27.7375 133.7Q27.33125 134.09062 27.221874 134.85625L26.159374 134.66875Q26.346874 133.62187 27.034374 133.04375Q27.721874 132.45 28.7375 132.45Q29.440624 132.45 30.034374 132.7625Q30.628124 133.05937 30.940624 133.575Q31.253124 134.09062 31.253124 134.68437Q31.253124 135.23125 30.95625 135.7Q30.659374 136.15312 30.08125 136.41875Q30.83125 136.59062 31.253124 137.15312Q31.675 137.7 31.675 138.54375Q31.675 139.66875 30.846874 140.45Q30.034374 141.23125 28.784374 141.23125Q27.659374 141.23125 26.909374 140.55937Q26.159374 139.87187 26.05 138.80937ZM33.05 136.84062Q33.05 135.30937 33.3625 134.3875Q33.675 133.45 34.284374 132.95Q34.909374 132.45 35.846874 132.45Q36.534374 132.45 37.05 132.73125Q37.58125 133.0125 37.925 133.54375Q38.26875 134.05937 38.45625 134.80937Q38.64375 135.55937 38.64375 136.84062Q38.64375 138.35625 38.33125 139.27812Q38.034374 140.2 37.409374 140.71562Q36.8 141.21562 35.846874 141.21562Q34.6125 141.21562 33.89375 140.325Q33.05 139.2625 33.05 136.84062ZM34.128124 136.84062Q34.128124 138.95 34.628124 139.65312Q35.128124 140.35625 35.846874 140.35625Q36.58125 140.35625 37.065624 139.65312Q37.565624 138.95 37.565624 136.84062Q37.565624 134.71562 37.065624 134.02812Q36.58125 133.325 35.83125 133.325Q35.1125 133.325 34.675 133.93437Q34.128124 134.71562 34.128124 136.84062Z" fill-rule="nonzero"/><path fill="#000000" d="M29.425 92.28333L29.425 90.22083L25.70625 90.22083L25.70625 89.25208L29.628124 83.68958L30.4875 83.68958L30.4875 89.25208L31.64375 89.25208L31.64375 90.22083L30.4875 90.22083L30.4875 92.28333L29.425 92.28333ZM29.425 89.25208L29.425 85.39271L26.7375 89.25208L29.425 89.25208ZM33.05 88.04896Q33.05 86.51771 33.3625 85.59583Q33.675 84.65833 34.284374 84.15833Q34.909374 83.65833 35.846874 83.65833Q36.534374 83.65833 37.05 83.93958Q37.58125 84.22083 37.925 84.75208Q38.26875 85.26771 38.45625 86.01771Q38.64375 86.76771 38.64375 88.04896Q38.64375 89.56458 38.33125 90.48646Q38.034374 91.40833 37.409374 91.92396Q36.8 92.42396 35.846874 92.42396Q34.6125 92.42396 33.89375 91.53333Q33.05 90.47083 33.05 88.04896ZM34.128124 88.04896Q34.128124 90.15833 34.628124 90.86146Q35.128124 91.56458 35.846874 91.56458Q36.58125 91.56458 37.065624 90.86146Q37.565624 90.15833 37.565624 88.04896Q37.565624 85.92396 37.065624 85.23646Q36.58125 84.53333 35.83125 84.53333Q35.1125 84.53333 34.675 85.14271Q34.128124 85.92396 34.128124 88.04896Z" fill-rule="nonzero"/><path fill="#000000" d="M118.15086 306.45L118.15086 297.85626L121.38524 297.85626Q122.36961 297.85626 122.96336 298.1219Q123.55711 298.3875 123.88524 298.9344Q124.22899 299.46564 124.22899 300.0594Q124.22899 300.60626 123.93211 301.09064Q123.63524 301.575 123.02586 301.8719Q123.80711 302.10626 124.21336 302.66876Q124.63524 303.21564 124.63524 303.96564Q124.63524 304.5594 124.38524 305.09064Q124.13524 305.60626 123.76024 305.8875Q123.38524 306.16876 122.80711 306.3094Q122.24461 306.45 121.43211 306.45L118.15086 306.45ZM119.29149 301.46564L121.15086 301.46564Q121.90086 301.46564 122.22899 301.3719Q122.66649 301.2469 122.88524 300.95Q123.10399 300.6375 123.10399 300.1844Q123.10399 299.7625 122.90086 299.4344Q122.69774 299.10626 122.30711 298.9969Q121.93211 298.8719 121.01024 298.8719L119.29149 298.8719L119.29149 301.46564ZM119.29149 305.4344L121.43211 305.4344Q121.97899 305.4344 122.19774 305.3875Q122.60399 305.325 122.85399 305.16876Q123.11961 304.9969 123.29149 304.6844Q123.46336 304.3719 123.46336 303.96564Q123.46336 303.48126 123.21336 303.1219Q122.97899 302.7625 122.54149 302.6219Q122.10399 302.48126 121.27586 302.48126L119.29149 302.48126L119.29149 305.4344ZM125.68211 303.34064Q125.68211 301.60626 126.63524 300.77814Q127.43211 300.09064 128.58836 300.09064Q129.86961 300.09064 130.68211 300.9344Q131.51024 301.7625 131.51024 303.2469Q131.51024 304.45 131.15086 305.1375Q130.79149 305.825 130.08836 306.21564Q129.40086 306.59064 128.58836 306.59064Q127.29149 306.59064 126.47899 305.7625Q125.68211 304.91876 125.68211 303.34064ZM126.76024 303.34064Q126.76024 304.52814 127.27586 305.1219Q127.80711 305.71564 128.58836 305.71564Q129.38524 305.71564 129.90086 305.1219Q130.41649 304.52814 130.41649 303.3094Q130.41649 302.15314 129.88524 301.5594Q129.36961 300.96564 128.58836 300.96564Q127.80711 300.96564 127.27586 301.5594Q126.76024 302.1375 126.76024 303.34064ZM137.13524 305.6844Q136.54149 306.1844 135.99461 306.3875Q135.46336 306.59064 134.83836 306.59064Q133.80711 306.59064 133.26024 306.09064Q132.71336 305.59064 132.71336 304.8094Q132.71336 304.35626 132.91649 303.98126Q133.11961 303.59064 133.46336 303.3719Q133.80711 303.1375 134.22899 303.02814Q134.52586 302.9344 135.16649 302.85626Q136.43211 302.71564 137.04149 302.4969Q137.04149 302.27814 137.04149 302.23126Q137.04149 301.575 136.74461 301.3094Q136.33836 300.96564 135.54149 300.96564Q134.80711 300.96564 134.44774 301.23126Q134.08836 301.48126 133.91649 302.1375L132.88524 301.9969Q133.02586 301.34064 133.35399 300.9344Q133.68211 300.52814 134.29149 300.3094Q134.90086 300.09064 135.69774 300.09064Q136.49461 300.09064 136.99461 300.27814Q137.49461 300.46564 137.72899 300.7469Q137.96336 301.02814 138.05711 301.46564Q138.10399 301.73126 138.10399 302.4344L138.10399 303.84064Q138.10399 305.3094 138.16649 305.7Q138.24461 306.09064 138.44774 306.45L137.33836 306.45Q137.18211 306.1219 137.13524 305.6844ZM137.04149 303.325Q136.46336 303.5594 135.32274 303.73126Q134.66649 303.825 134.40086 303.95Q134.13524 304.0594 133.97899 304.27814Q133.83836 304.4969 133.83836 304.77814Q133.83836 305.2 134.15086 305.48126Q134.47899 305.7625 135.08836 305.7625Q135.69774 305.7625 136.16649 305.4969Q136.65086 305.23126 136.86961 304.7625Q137.04149 304.40314 137.04149 303.71564L137.04149 303.325ZM140.05711 306.45L140.05711 300.23126L141.01024 300.23126L141.01024 301.16876Q141.36961 300.5125 141.66649 300.3094Q141.97899 300.09064 142.35399 300.09064Q142.88524 300.09064 143.43211 300.41876L143.07274 301.40314Q142.68211 301.16876 142.30711 301.16876Q141.94774 301.16876 141.66649 301.3875Q141.40086 301.59064 141.29149 301.96564Q141.10399 302.52814 141.10399 303.1844L141.10399 306.45L140.05711 306.45ZM148.10399 306.45L148.10399 305.66876Q147.51024 306.59064 146.36961 306.59064Q145.61961 306.59064 144.99461 306.1844Q144.36961 305.7625 144.02586 305.02814Q143.68211 304.29376 143.68211 303.34064Q143.68211 302.41876 143.99461 301.65314Q144.30711 300.8875 144.93211 300.4969Q145.55711 300.09064 146.32274 300.09064Q146.88524 300.09064 147.32274 300.325Q147.76024 300.5594 148.04149 300.9344L148.04149 297.85626L149.08836 297.85626L149.08836 306.45L148.10399 306.45ZM144.77586 303.34064Q144.77586 304.54376 145.27586 305.1375Q145.77586 305.71564 146.46336 305.71564Q147.15086 305.71564 147.63524 305.15314Q148.11961 304.59064 148.11961 303.4344Q148.11961 302.15314 147.61961 301.5594Q147.13524 300.96564 146.41649 300.96564Q145.71336 300.96564 145.24461 301.54376Q144.77586 302.10626 144.77586 303.34064Z" fill-rule="nonzero"/><path fill="#000000" d="M213.46695 306.45L213.46695 297.85626L216.70132 297.85626Q217.6857 297.85626 218.27945 298.1219Q218.8732 298.3875 219.20132 298.9344Q219.54507 299.46564 219.54507 300.0594Q219.54507 300.60626 219.2482 301.09064Q218.95132 301.575 218.34195 301.8719Q219.1232 302.10626 219.52945 302.66876Q219.95132 303.21564 219.95132 303.96564Q219.95132 304.5594 219.70132 305.09064Q219.45132 305.60626 219.07632 305.8875Q218.70132 306.16876 218.1232 306.3094Q217.5607 306.45 216.7482 306.45L213.46695 306.45ZM214.60757 301.46564L216.46695 301.46564Q217.21695 301.46564 217.54507 301.3719Q217.98257 301.2469 218.20132 300.95Q218.42007 300.6375 218.42007 300.1844Q218.42007 299.7625 218.21695 299.4344Q218.01382 299.10626 217.6232 298.9969Q217.2482 298.8719 216.32632 298.8719L214.60757 298.8719L214.60757 301.46564ZM214.60757 305.4344L216.7482 305.4344Q217.29507 305.4344 217.51382 305.3875Q217.92007 305.325 218.17007 305.16876Q218.4357 304.9969 218.60757 304.6844Q218.77945 304.3719 218.77945 303.96564Q218.77945 303.48126 218.52945 303.1219Q218.29507 302.7625 217.85757 302.6219Q217.42007 302.48126 216.59195 302.48126L214.60757 302.48126L214.60757 305.4344ZM220.9982 303.34064Q220.9982 301.60626 221.95132 300.77814Q222.7482 300.09064 223.90445 300.09064Q225.1857 300.09064 225.9982 300.9344Q226.82632 301.7625 226.82632 303.2469Q226.82632 304.45 226.46695 305.1375Q226.10757 305.825 225.40445 306.21564Q224.71695 306.59064 223.90445 306.59064Q222.60757 306.59064 221.79507 305.7625Q220.9982 304.91876 220.9982 303.34064ZM222.07632 303.34064Q222.07632 304.52814 222.59195 305.1219Q223.1232 305.71564 223.90445 305.71564Q224.70132 305.71564 225.21695 305.1219Q225.73257 304.52814 225.73257 303.3094Q225.73257 302.15314 225.20132 301.5594Q224.6857 300.96564 223.90445 300.96564Q223.1232 300.96564 222.59195 301.5594Q222.07632 302.1375 222.07632 303.34064ZM232.45132 305.6844Q231.85757 306.1844 231.3107 306.3875Q230.77945 306.59064 230.15445 306.59064Q229.1232 306.59064 228.57632 306.09064Q228.02945 305.59064 228.02945 304.8094Q228.02945 304.35626 228.23257 303.98126Q228.4357 303.59064 228.77945 303.3719Q229.1232 303.1375 229.54507 303.02814Q229.84195 302.9344 230.48257 302.85626Q231.7482 302.71564 232.35757 302.4969Q232.35757 302.27814 232.35757 302.23126Q232.35757 301.575 232.0607 301.3094Q231.65445 300.96564 230.85757 300.96564Q230.1232 300.96564 229.76382 301.23126Q229.40445 301.48126 229.23257 302.1375L228.20132 301.9969Q228.34195 301.34064 228.67007 300.9344Q228.9982 300.52814 229.60757 300.3094Q230.21695 300.09064 231.01382 300.09064Q231.8107 300.09064 232.3107 300.27814Q232.8107 300.46564 233.04507 300.7469Q233.27945 301.02814 233.3732 301.46564Q233.42007 301.73126 233.42007 302.4344L233.42007 303.84064Q233.42007 305.3094 233.48257 305.7Q233.5607 306.09064 233.76382 306.45L232.65445 306.45Q232.4982 306.1219 232.45132 305.6844ZM232.35757 303.325Q231.77945 303.5594 230.63882 303.73126Q229.98257 303.825 229.71695 303.95Q229.45132 304.0594 229.29507 304.27814Q229.15445 304.4969 229.15445 304.77814Q229.15445 305.2 229.46695 305.48126Q229.79507 305.7625 230.40445 305.7625Q231.01382 305.7625 231.48257 305.4969Q231.96695 305.23126 232.1857 304.7625Q232.35757 304.40314 232.35757 303.71564L232.35757 303.325ZM235.3732 306.45L235.3732 300.23126L236.32632 300.23126L236.32632 301.16876Q236.6857 300.5125 236.98257 300.3094Q237.29507 300.09064 237.67007 300.09064Q238.20132 300.09064 238.7482 300.41876L238.38882 301.40314Q237.9982 301.16876 237.6232 301.16876Q237.26382 301.16876 236.98257 301.3875Q236.71695 301.59064 236.60757 301.96564Q236.42007 302.52814 236.42007 303.1844L236.42007 306.45L235.3732 306.45ZM243.42007 306.45L243.42007 305.66876Q242.82632 306.59064 241.6857 306.59064Q240.9357 306.59064 240.3107 306.1844Q239.6857 305.7625 239.34195 305.02814Q238.9982 304.29376 238.9982 303.34064Q238.9982 302.41876 239.3107 301.65314Q239.6232 300.8875 240.2482 300.4969Q240.8732 300.09064 241.63882 300.09064Q242.20132 300.09064 242.63882 300.325Q243.07632 300.5594 243.35757 300.9344L243.35757 297.85626L244.40445 297.85626L244.40445 306.45L243.42007 306.45ZM240.09195 303.34064Q240.09195 304.54376 240.59195 305.1375Q241.09195 305.71564 241.77945 305.71564Q242.46695 305.71564 242.95132 305.15314Q243.4357 304.59064 243.4357 303.4344Q243.4357 302.15314 242.9357 301.5594Q242.45132 300.96564 241.73257 300.96564Q241.02945 300.96564 240.5607 301.54376Q240.09195 302.10626 240.09195 303.34064ZM245.96695 303.8719L245.96695 302.8094L249.21695 302.8094L249.21695 303.8719L245.96695 303.8719ZM250.17007 302.2625Q250.17007 300.1219 251.3107 298.91876Q252.46695 297.7 254.27945 297.7Q255.48257 297.7 256.4357 298.27814Q257.38882 298.84064 257.88882 299.85626Q258.38882 300.8719 258.38882 302.16876Q258.38882 303.46564 257.85757 304.4969Q257.32632 305.52814 256.35757 306.0594Q255.40445 306.59064 254.27945 306.59064Q253.0607 306.59064 252.10757 306.0125Q251.15445 305.41876 250.65445 304.41876Q250.17007 303.40314 250.17007 302.2625ZM251.34195 302.27814Q251.34195 303.84064 252.17007 304.73126Q253.01382 305.6219 254.27945 305.6219Q255.5607 305.6219 256.38882 304.73126Q257.21695 303.825 257.21695 302.15314Q257.21695 301.10626 256.85757 300.325Q256.51382 299.54376 255.82632 299.1219Q255.13882 298.6844 254.29507 298.6844Q253.09195 298.6844 252.21695 299.5125Q251.34195 300.34064 251.34195 302.27814ZM260.35757 306.45L259.3732 306.45L259.3732 297.85626L260.4357 297.85626L260.4357 300.91876Q261.10757 300.09064 262.13882 300.09064Q262.71695 300.09064 263.21695 300.325Q263.73257 300.54376 264.0607 300.96564Q264.40445 301.3875 264.59195 301.98126Q264.77945 302.575 264.77945 303.2469Q264.77945 304.84064 263.98257 305.71564Q263.1857 306.59064 262.09195 306.59064Q260.98257 306.59064 260.35757 305.66876L260.35757 306.45ZM260.34195 303.29376Q260.34195 304.40314 260.65445 304.90314Q261.15445 305.71564 261.9982 305.71564Q262.6857 305.71564 263.1857 305.1219Q263.70132 304.52814 263.70132 303.325Q263.70132 302.10626 263.21695 301.52814Q262.73257 300.95 262.04507 300.95Q261.35757 300.95 260.84195 301.5594Q260.34195 302.15314 260.34195 303.29376ZM265.96695 304.59064L266.9982 304.4344Q267.09195 305.0594 267.48257 305.3875Q267.88882 305.71564 268.6232 305.71564Q269.34195 305.71564 269.6857 305.4344Q270.04507 305.1375 270.04507 304.73126Q270.04507 304.3719 269.73257 304.16876Q269.51382 304.02814 268.65445 303.8094Q267.4982 303.5125 267.04507 303.3094Q266.60757 303.09064 266.3732 302.71564Q266.13882 302.34064 266.13882 301.8719Q266.13882 301.46564 266.32632 301.10626Q266.51382 300.7469 266.84195 300.5125Q267.09195 300.34064 267.51382 300.21564Q267.9357 300.09064 268.4357 300.09064Q269.15445 300.09064 269.70132 300.3094Q270.26382 300.5125 270.52945 300.8719Q270.79507 301.23126 270.88882 301.825L269.85757 301.96564Q269.79507 301.4969 269.45132 301.23126Q269.1232 300.95 268.4982 300.95Q267.77945 300.95 267.46695 301.2Q267.15445 301.4344 267.15445 301.7625Q267.15445 301.96564 267.27945 302.1219Q267.42007 302.29376 267.6857 302.40314Q267.84195 302.46564 268.6232 302.66876Q269.7482 302.98126 270.1857 303.16876Q270.6232 303.35626 270.8732 303.71564Q271.1232 304.075 271.1232 304.6219Q271.1232 305.15314 270.8107 305.6219Q270.51382 306.075 269.9357 306.34064Q269.35757 306.59064 268.6232 306.59064Q267.40445 306.59064 266.76382 306.09064Q266.13882 305.575 265.96695 304.59064ZM275.6857 305.5125L275.84195 306.4344Q275.38882 306.52814 275.04507 306.52814Q274.46695 306.52814 274.15445 306.35626Q273.84195 306.16876 273.70132 305.8719Q273.57632 305.575 273.57632 304.6219L273.57632 301.04376L272.8107 301.04376L272.8107 300.23126L273.57632 300.23126L273.57632 298.6844L274.6232 298.0594L274.6232 300.23126L275.6857 300.23126L275.6857 301.04376L274.6232 301.04376L274.6232 304.6844Q274.6232 305.1375 274.67007 305.2625Q274.73257 305.3875 274.85757 305.46564Q274.98257 305.54376 275.21695 305.54376Q275.40445 305.54376 275.6857 305.5125ZM280.45132 305.6844Q279.85757 306.1844 279.3107 306.3875Q278.77945 306.59064 278.15445 306.59064Q277.1232 306.59064 276.57632 306.09064Q276.02945 305.59064 276.02945 304.8094Q276.02945 304.35626 276.23257 303.98126Q276.4357 303.59064 276.77945 303.3719Q277.1232 303.1375 277.54507 303.02814Q277.84195 302.9344 278.48257 302.85626Q279.7482 302.71564 280.35757 302.4969Q280.35757 302.27814 280.35757 302.23126Q280.35757 301.575 280.0607 301.3094Q279.65445 300.96564 278.85757 300.96564Q278.1232 300.96564 277.76382 301.23126Q277.40445 301.48126 277.23257 302.1375L276.20132 301.9969Q276.34195 301.34064 276.67007 300.9344Q276.9982 300.52814 277.60757 300.3094Q278.21695 300.09064 279.01382 300.09064Q279.8107 300.09064 280.3107 300.27814Q280.8107 300.46564 281.04507 300.7469Q281.27945 301.02814 281.3732 301.46564Q281.42007 301.73126 281.42007 302.4344L281.42007 303.84064Q281.42007 305.3094 281.48257 305.7Q281.5607 306.09064 281.76382 306.45L280.65445 306.45Q280.4982 306.1219 280.45132 305.6844ZM280.35757 303.325Q279.77945 303.5594 278.63882 303.73126Q277.98257 303.825 277.71695 303.95Q277.45132 304.0594 277.29507 304.27814Q277.15445 304.4969 277.15445 304.77814Q277.15445 305.2 277.46695 305.48126Q277.79507 305.7625 278.40445 305.7625Q279.01382 305.7625 279.48257 305.4969Q279.96695 305.23126 280.1857 304.7625Q280.35757 304.40314 280.35757 303.71564L280.35757 303.325ZM287.45132 304.16876L288.48257 304.3094Q288.3107 305.3719 287.60757 305.98126Q286.90445 306.59064 285.88882 306.59064Q284.60757 306.59064 283.82632 305.7625Q283.0607 304.91876 283.0607 303.35626Q283.0607 302.35626 283.38882 301.60626Q283.73257 300.84064 284.40445 300.46564Q285.09195 300.09064 285.90445 300.09064Q286.90445 300.09064 287.54507 300.60626Q288.20132 301.10626 288.38882 302.0594L287.35757 302.21564Q287.21695 301.59064 286.84195 301.27814Q286.46695 300.95 285.9357 300.95Q285.13882 300.95 284.63882 301.52814Q284.13882 302.09064 284.13882 303.325Q284.13882 304.59064 284.6232 305.15314Q285.10757 305.71564 285.8732 305.71564Q286.4982 305.71564 286.90445 305.34064Q287.32632 304.96564 287.45132 304.16876ZM289.35757 306.45L289.35757 297.85626L290.42007 297.85626L290.42007 306.45L289.35757 306.45ZM296.63882 304.45L297.73257 304.575Q297.48257 305.52814 296.77945 306.0594Q296.07632 306.59064 294.9982 306.59064Q293.63882 306.59064 292.82632 305.7469Q292.02945 304.90314 292.02945 303.3875Q292.02945 301.825 292.84195 300.96564Q293.65445 300.09064 294.9357 300.09064Q296.1857 300.09064 296.96695 300.9344Q297.76382 301.77814 297.76382 303.325Q297.76382 303.41876 297.76382 303.60626L293.1232 303.60626Q293.1857 304.6375 293.70132 305.1844Q294.21695 305.71564 294.9982 305.71564Q295.57632 305.71564 295.98257 305.41876Q296.40445 305.10626 296.63882 304.45ZM293.1857 302.7469L296.65445 302.7469Q296.59195 301.95 296.26382 301.5594Q295.7482 300.95 294.95132 300.95Q294.21695 300.95 293.71695 301.4344Q293.23257 301.91876 293.1857 302.7469Z" fill-rule="nonzero"/><path fill="#000000" d="M352.01743 306.45L352.01743 298.8719L349.1893 298.8719L349.1893 297.85626L356.0018 297.85626L356.0018 298.8719L353.15805 298.8719L353.15805 306.45L352.01743 306.45ZM360.76743 305.6844Q360.17368 306.1844 359.6268 306.3875Q359.09555 306.59064 358.47055 306.59064Q357.4393 306.59064 356.89243 306.09064Q356.34555 305.59064 356.34555 304.8094Q356.34555 304.35626 356.54868 303.98126Q356.7518 303.59064 357.09555 303.3719Q357.4393 303.1375 357.86118 303.02814Q358.15805 302.9344 358.79868 302.85626Q360.0643 302.71564 360.67368 302.4969Q360.67368 302.27814 360.67368 302.23126Q360.67368 301.575 360.3768 301.3094Q359.97055 300.96564 359.17368 300.96564Q358.4393 300.96564 358.07993 301.23126Q357.72055 301.48126 357.54868 302.1375L356.51743 301.9969Q356.65805 301.34064 356.98618 300.9344Q357.3143 300.52814 357.92368 300.3094Q358.53305 300.09064 359.32993 300.09064Q360.1268 300.09064 360.6268 300.27814Q361.1268 300.46564 361.36118 300.7469Q361.59555 301.02814 361.6893 301.46564Q361.73618 301.73126 361.73618 302.4344L361.73618 303.84064Q361.73618 305.3094 361.79868 305.7Q361.8768 306.09064 362.07993 306.45L360.97055 306.45Q360.8143 306.1219 360.76743 305.6844ZM360.67368 303.325Q360.09555 303.5594 358.95493 303.73126Q358.29868 303.825 358.03305 303.95Q357.76743 304.0594 357.61118 304.27814Q357.47055 304.4969 357.47055 304.77814Q357.47055 305.2 357.78305 305.48126Q358.11118 305.7625 358.72055 305.7625Q359.32993 305.7625 359.79868 305.4969Q360.28305 305.23126 360.5018 304.7625Q360.67368 304.40314 360.67368 303.71564L360.67368 303.325ZM364.67368 306.45L363.6893 306.45L363.6893 297.85626L364.7518 297.85626L364.7518 300.91876Q365.42368 300.09064 366.45493 300.09064Q367.03305 300.09064 367.53305 300.325Q368.04868 300.54376 368.3768 300.96564Q368.72055 301.3875 368.90805 301.98126Q369.09555 302.575 369.09555 303.2469Q369.09555 304.84064 368.29868 305.71564Q367.5018 306.59064 366.40805 306.59064Q365.29868 306.59064 364.67368 305.66876L364.67368 306.45ZM364.65805 303.29376Q364.65805 304.40314 364.97055 304.90314Q365.47055 305.71564 366.3143 305.71564Q367.0018 305.71564 367.5018 305.1219Q368.01743 304.52814 368.01743 303.325Q368.01743 302.10626 367.53305 301.52814Q367.04868 300.95 366.36118 300.95Q365.67368 300.95 365.15805 301.5594Q364.65805 302.15314 364.65805 303.29376ZM370.67368 306.45L370.67368 297.85626L371.73618 297.85626L371.73618 306.45L370.67368 306.45ZM377.95493 304.45L379.04868 304.575Q378.79868 305.52814 378.09555 306.0594Q377.39243 306.59064 376.3143 306.59064Q374.95493 306.59064 374.14243 305.7469Q373.34555 304.90314 373.34555 303.3875Q373.34555 301.825 374.15805 300.96564Q374.97055 300.09064 376.2518 300.09064Q377.5018 300.09064 378.28305 300.9344Q379.07993 301.77814 379.07993 303.325Q379.07993 303.41876 379.07993 303.60626L374.4393 303.60626Q374.5018 304.6375 375.01743 305.1844Q375.53305 305.71564 376.3143 305.71564Q376.89243 305.71564 377.29868 305.41876Q377.72055 305.10626 377.95493 304.45ZM374.5018 302.7469L377.97055 302.7469Q377.90805 301.95 377.57993 301.5594Q377.0643 300.95 376.26743 300.95Q375.53305 300.95 375.03305 301.4344Q374.54868 301.91876 374.5018 302.7469ZM380.28305 303.8719L380.28305 302.8094L383.53305 302.8094L383.53305 303.8719L380.28305 303.8719ZM384.78305 306.45L384.78305 297.85626L388.01743 297.85626Q389.0018 297.85626 389.59555 298.1219Q390.1893 298.3875 390.51743 298.9344Q390.86118 299.46564 390.86118 300.0594Q390.86118 300.60626 390.5643 301.09064Q390.26743 301.575 389.65805 301.8719Q390.4393 302.10626 390.84555 302.66876Q391.26743 303.21564 391.26743 303.96564Q391.26743 304.5594 391.01743 305.09064Q390.76743 305.60626 390.39243 305.8875Q390.01743 306.16876 389.4393 306.3094Q388.8768 306.45 388.0643 306.45L384.78305 306.45ZM385.92368 301.46564L387.78305 301.46564Q388.53305 301.46564 388.86118 301.3719Q389.29868 301.2469 389.51743 300.95Q389.73618 300.6375 389.73618 300.1844Q389.73618 299.7625 389.53305 299.4344Q389.32993 299.10626 388.9393 298.9969Q388.5643 298.8719 387.64243 298.8719L385.92368 298.8719L385.92368 301.46564ZM385.92368 305.4344L388.0643 305.4344Q388.61118 305.4344 388.82993 305.3875Q389.23618 305.325 389.48618 305.16876Q389.7518 304.9969 389.92368 304.6844Q390.09555 304.3719 390.09555 303.96564Q390.09555 303.48126 389.84555 303.1219Q389.61118 302.7625 389.17368 302.6219Q388.73618 302.48126 387.90805 302.48126L385.92368 302.48126L385.92368 305.4344ZM396.76743 305.6844Q396.17368 306.1844 395.6268 306.3875Q395.09555 306.59064 394.47055 306.59064Q393.4393 306.59064 392.89243 306.09064Q392.34555 305.59064 392.34555 304.8094Q392.34555 304.35626 392.54868 303.98126Q392.7518 303.59064 393.09555 303.3719Q393.4393 303.1375 393.86118 303.02814Q394.15805 302.9344 394.79868 302.85626Q396.0643 302.71564 396.67368 302.4969Q396.67368 302.27814 396.67368 302.23126Q396.67368 301.575 396.3768 301.3094Q395.97055 300.96564 395.17368 300.96564Q394.4393 300.96564 394.07993 301.23126Q393.72055 301.48126 393.54868 302.1375L392.51743 301.9969Q392.65805 301.34064 392.98618 300.9344Q393.3143 300.52814 393.92368 300.3094Q394.53305 300.09064 395.32993 300.09064Q396.1268 300.09064 396.6268 300.27814Q397.1268 300.46564 397.36118 300.7469Q397.59555 301.02814 397.6893 301.46564Q397.73618 301.73126 397.73618 302.4344L397.73618 303.84064Q397.73618 305.3094 397.79868 305.7Q397.8768 306.09064 398.07993 306.45L396.97055 306.45Q396.8143 306.1219 396.76743 305.6844ZM396.67368 303.325Q396.09555 303.5594 394.95493 303.73126Q394.29868 303.825 394.03305 303.95Q393.76743 304.0594 393.61118 304.27814Q393.47055 304.4969 393.47055 304.77814Q393.47055 305.2 393.78305 305.48126Q394.11118 305.7625 394.72055 305.7625Q395.32993 305.7625 395.79868 305.4969Q396.28305 305.23126 396.5018 304.7625Q396.67368 304.40314 396.67368 303.71564L396.67368 303.325ZM399.5018 306.96564L400.53305 307.1219Q400.59555 307.59064 400.89243 307.8094Q401.28305 308.10626 401.95493 308.10626Q402.6893 308.10626 403.07993 307.8094Q403.48618 307.5125 403.6268 306.9969Q403.72055 306.66876 403.70493 305.6375Q403.01743 306.45 401.98618 306.45Q400.70493 306.45 400.0018 305.52814Q399.29868 304.59064 399.29868 303.3094Q399.29868 302.41876 399.61118 301.66876Q399.9393 300.90314 400.54868 300.4969Q401.15805 300.09064 401.98618 300.09064Q403.09555 300.09064 403.8143 300.98126L403.8143 300.23126L404.78305 300.23126L404.78305 305.60626Q404.78305 307.0594 404.48618 307.66876Q404.1893 308.27814 403.54868 308.6219Q402.90805 308.98126 401.97055 308.98126Q400.86118 308.98126 400.17368 308.48126Q399.48618 307.98126 399.5018 306.96564ZM400.3768 303.23126Q400.3768 304.45 400.86118 305.0125Q401.34555 305.575 402.07993 305.575Q402.8143 305.575 403.29868 305.0125Q403.79868 304.45 403.79868 303.2625Q403.79868 302.1219 403.28305 301.54376Q402.78305 300.96564 402.0643 300.96564Q401.36118 300.96564 400.86118 301.54376Q400.3768 302.10626 400.3768 303.23126Z" fill-rule="nonzero"/><path fill="#000000" d="M473.33353 306.45L473.33353 298.8719L470.5054 298.8719L470.5054 297.85626L477.3179 297.85626L477.3179 298.8719L474.47415 298.8719L474.47415 306.45L473.33353 306.45ZM482.08353 305.6844Q481.48978 306.1844 480.9429 306.3875Q480.41165 306.59064 479.78665 306.59064Q478.7554 306.59064 478.20853 306.09064Q477.66165 305.59064 477.66165 304.8094Q477.66165 304.35626 477.86478 303.98126Q478.0679 303.59064 478.41165 303.3719Q478.7554 303.1375 479.17728 303.02814Q479.47415 302.9344 480.11478 302.85626Q481.3804 302.71564 481.98978 302.4969Q481.98978 302.27814 481.98978 302.23126Q481.98978 301.575 481.6929 301.3094Q481.28665 300.96564 480.48978 300.96564Q479.7554 300.96564 479.39603 301.23126Q479.03665 301.48126 478.86478 302.1375L477.83353 301.9969Q477.97415 301.34064 478.30228 300.9344Q478.6304 300.52814 479.23978 300.3094Q479.84915 300.09064 480.64603 300.09064Q481.4429 300.09064 481.9429 300.27814Q482.4429 300.46564 482.67728 300.7469Q482.91165 301.02814 483.0054 301.46564Q483.05228 301.73126 483.05228 302.4344L483.05228 303.84064Q483.05228 305.3094 483.11478 305.7Q483.1929 306.09064 483.39603 306.45L482.28665 306.45Q482.1304 306.1219 482.08353 305.6844ZM481.98978 303.325Q481.41165 303.5594 480.27103 303.73126Q479.61478 303.825 479.34915 303.95Q479.08353 304.0594 478.92728 304.27814Q478.78665 304.4969 478.78665 304.77814Q478.78665 305.2 479.09915 305.48126Q479.42728 305.7625 480.03665 305.7625Q480.64603 305.7625 481.11478 305.4969Q481.59915 305.23126 481.8179 304.7625Q481.98978 304.40314 481.98978 303.71564L481.98978 303.325ZM485.98978 306.45L485.0054 306.45L485.0054 297.85626L486.0679 297.85626L486.0679 300.91876Q486.73978 300.09064 487.77103 300.09064Q488.34915 300.09064 488.84915 300.325Q489.36478 300.54376 489.6929 300.96564Q490.03665 301.3875 490.22415 301.98126Q490.41165 302.575 490.41165 303.2469Q490.41165 304.84064 489.61478 305.71564Q488.8179 306.59064 487.72415 306.59064Q486.61478 306.59064 485.98978 305.66876L485.98978 306.45ZM485.97415 303.29376Q485.97415 304.40314 486.28665 304.90314Q486.78665 305.71564 487.6304 305.71564Q488.3179 305.71564 488.8179 305.1219Q489.33353 304.52814 489.33353 303.325Q489.33353 302.10626 488.84915 301.52814Q488.36478 300.95 487.67728 300.95Q486.98978 300.95 486.47415 301.5594Q485.97415 302.15314 485.97415 303.29376ZM491.98978 306.45L491.98978 297.85626L493.05228 297.85626L493.05228 306.45L491.98978 306.45ZM499.27103 304.45L500.36478 304.575Q500.11478 305.52814 499.41165 306.0594Q498.70853 306.59064 497.6304 306.59064Q496.27103 306.59064 495.45853 305.7469Q494.66165 304.90314 494.66165 303.3875Q494.66165 301.825 495.47415 300.96564Q496.28665 300.09064 497.5679 300.09064Q498.8179 300.09064 499.59915 300.9344Q500.39603 301.77814 500.39603 303.325Q500.39603 303.41876 500.39603 303.60626L495.7554 303.60626Q495.8179 304.6375 496.33353 305.1844Q496.84915 305.71564 497.6304 305.71564Q498.20853 305.71564 498.61478 305.41876Q499.03665 305.10626 499.27103 304.45ZM495.8179 302.7469L499.28665 302.7469Q499.22415 301.95 498.89603 301.5594Q498.3804 300.95 497.58353 300.95Q496.84915 300.95 496.34915 301.4344Q495.86478 301.91876 495.8179 302.7469ZM501.59915 303.8719L501.59915 302.8094L504.84915 302.8094L504.84915 303.8719L501.59915 303.8719ZM508.33353 306.45L508.33353 298.8719L505.5054 298.8719L505.5054 297.85626L512.3179 297.85626L512.3179 298.8719L509.47415 298.8719L509.47415 306.45L508.33353 306.45ZM513.0054 306.45L513.0054 300.23126L513.9585 300.23126L513.9585 301.16876Q514.3179 300.5125 514.61475 300.3094Q514.92725 300.09064 515.30225 300.09064Q515.8335 300.09064 516.3804 300.41876L516.021 301.40314Q515.6304 301.16876 515.2554 301.16876Q514.896 301.16876 514.61475 301.3875Q514.3491 301.59064 514.23975 301.96564Q514.05225 302.52814 514.05225 303.1844L514.05225 306.45L513.0054 306.45ZM521.0835 305.6844Q520.48975 306.1844 519.9429 306.3875Q519.4116 306.59064 518.7866 306.59064Q517.7554 306.59064 517.2085 306.09064Q516.6616 305.59064 516.6616 304.8094Q516.6616 304.35626 516.86475 303.98126Q517.0679 303.59064 517.4116 303.3719Q517.7554 303.1375 518.17725 303.02814Q518.4741 302.9344 519.11475 302.85626Q520.3804 302.71564 520.98975 302.4969Q520.98975 302.27814 520.98975 302.23126Q520.98975 301.575 520.6929 301.3094Q520.2866 300.96564 519.48975 300.96564Q518.7554 300.96564 518.396 301.23126Q518.0366 301.48126 517.86475 302.1375L516.8335 301.9969Q516.9741 301.34064 517.30225 300.9344Q517.6304 300.52814 518.23975 300.3094Q518.8491 300.09064 519.646 300.09064Q520.4429 300.09064 520.9429 300.27814Q521.4429 300.46564 521.67725 300.7469Q521.9116 301.02814 522.0054 301.46564Q522.05225 301.73126 522.05225 302.4344L522.05225 303.84064Q522.05225 305.3094 522.11475 305.7Q522.1929 306.09064 522.396 306.45L521.2866 306.45Q521.1304 306.1219 521.0835 305.6844ZM520.98975 303.325Q520.4116 303.5594 519.271 303.73126Q518.61475 303.825 518.3491 303.95Q518.0835 304.0594 517.92725 304.27814Q517.7866 304.4969 517.7866 304.77814Q517.7866 305.2 518.0991 305.48126Q518.42725 305.7625 519.0366 305.7625Q519.646 305.7625 520.11475 305.4969Q520.5991 305.23126 520.8179 304.7625Q520.98975 304.40314 520.98975 303.71564L520.98975 303.325ZM523.9741 308.84064L523.8491 307.85626Q524.1929 307.95 524.4585 307.95Q524.80225 307.95 525.0054 307.825Q525.2241 307.71564 525.36475 307.5125Q525.4585 307.34064 525.6929 306.71564Q525.7085 306.6375 525.7866 306.46564L523.4116 300.23126L524.55225 300.23126L525.8491 303.825Q526.0991 304.5125 526.30225 305.27814Q526.48975 304.54376 526.73975 303.85626L528.0679 300.23126L529.11475 300.23126L526.7554 306.5594Q526.36475 307.575 526.1616 307.96564Q525.8804 308.4969 525.5054 308.73126Q525.146 308.98126 524.646 308.98126Q524.3491 308.98126 523.9741 308.84064Z" fill-rule="nonzero"/><path fill="#4285f4" d="M188.0 56.916668C188.0 56.364384 188.44771 55.916668 189.0 55.916668L199.0 55.916668C199.55229 55.916668 200.0 56.364384 200.0 56.916668L200.0 66.916664C200.0 67.46895 199.55229 67.916664 199.0 67.916664L189.0 67.916664C188.44771 67.916664 188.0 67.46895 188.0 66.916664Z" fill-rule="nonzero"/><path fill="#1a1a1a" d="M208.9375 65.916664L208.9375 57.322914L212.75 57.322914Q213.90625 57.322914 214.5 57.55729Q215.09375 57.791664 215.45312 58.385414Q215.8125 58.96354 215.8125 59.666664Q215.8125 60.58854 215.21875 61.21354Q214.625 61.83854 213.39062 62.010414Q213.84375 62.229164 214.07812 62.43229Q214.57812 62.885414 215.01562 63.572914L216.51562 65.916664L215.07812 65.916664L213.95312 64.135414Q213.45312 63.354164 213.125 62.947914Q212.8125 62.541664 212.54688 62.385414Q212.29688 62.21354 212.03125 62.135414Q211.84375 62.104164 211.40625 62.104164L210.07812 62.104164L210.07812 65.916664L208.9375 65.916664ZM210.07812 61.11979L212.53125 61.11979Q213.29688 61.11979 213.73438 60.96354Q214.1875 60.791664 214.40625 60.447914Q214.64062 60.08854 214.64062 59.666664Q214.64062 59.05729 214.1875 58.666664Q213.75 58.27604 212.79688 58.27604L210.07812 58.27604L210.07812 61.11979ZM217.875 65.916664L217.875 57.322914L219.01562 57.322914L219.01562 64.90104L223.25 64.90104L223.25 65.916664L217.875 65.916664ZM224.92188 65.916664L224.92188 57.322914L228.17188 57.322914Q229.01562 57.322914 229.46875 57.40104Q230.10938 57.510414 230.53125 57.80729Q230.96875 58.104164 231.21875 58.635414Q231.48438 59.166664 231.48438 59.80729Q231.48438 60.90104 230.78125 61.666664Q230.09375 62.416664 228.26562 62.416664L226.0625 62.416664L226.0625 65.916664L224.92188 65.916664ZM226.0625 61.416664L228.28125 61.416664Q229.39062 61.416664 229.84375 61.010414Q230.3125 60.58854 230.3125 59.83854Q230.3125 59.30729 230.03125 58.93229Q229.76562 58.541664 229.32812 58.416664Q229.03125 58.33854 228.26562 58.33854L226.0625 58.33854L226.0625 61.416664ZM232.92188 65.916664L232.92188 57.322914L235.89062 57.322914Q236.89062 57.322914 237.42188 57.447914Q238.15625 57.61979 238.67188 58.05729Q239.35938 58.635414 239.6875 59.541664Q240.03125 60.43229 240.03125 61.572914Q240.03125 62.55729 239.79688 63.30729Q239.57812 64.05729 239.21875 64.55729Q238.85938 65.05729 238.42188 65.33854Q238.0 65.61979 237.40625 65.77604Q236.8125 65.916664 236.03125 65.916664L232.92188 65.916664ZM234.0625 64.90104L235.89062 64.90104Q236.75 64.90104 237.23438 64.74479Q237.71875 64.58854 238.0 64.291664Q238.40625 63.90104 238.625 63.21354Q238.85938 62.52604 238.85938 61.55729Q238.85938 60.21354 238.40625 59.49479Q237.96875 58.760414 237.34375 58.510414Q236.875 58.33854 235.875 58.33854L234.0625 58.33854L234.0625 64.90104Z" fill-rule="nonzero"/><path fill="#ea4335" d="M257.0 56.916668C257.0 56.364384 257.44772 55.916668 258.0 55.916668L268.0 55.916668C268.55228 55.916668 269.0 56.364384 269.0 56.916668L269.0 66.916664C269.0 67.46895 268.55228 67.916664 268.0 67.916664L258.0 67.916664C257.44772 67.916664 257.0 67.46895 257.0 66.916664Z" fill-rule="nonzero"/><path fill="#1a1a1a" d="M277.54688 63.15104L278.60938 63.05729Q278.6875 63.71354 278.96875 64.11979Q279.25 64.52604 279.82812 64.791664Q280.42188 65.041664 281.15625 65.041664Q281.79688 65.041664 282.29688 64.854164Q282.79688 64.65104 283.03125 64.322914Q283.28125 63.979164 283.28125 63.58854Q283.28125 63.18229 283.04688 62.885414Q282.8125 62.572914 282.28125 62.36979Q281.92188 62.229164 280.73438 61.947914Q279.5625 61.666664 279.09375 61.416664Q278.46875 61.08854 278.17188 60.61979Q277.875 60.135414 277.875 59.541664Q277.875 58.90104 278.23438 58.33854Q278.60938 57.760414 279.3125 57.479164Q280.03125 57.18229 280.89062 57.18229Q281.84375 57.18229 282.57812 57.49479Q283.3125 57.791664 283.70312 58.40104Q284.09375 58.99479 284.125 59.74479L283.03125 59.822914Q282.9375 59.010414 282.42188 58.604164Q281.92188 58.18229 280.9375 58.18229Q279.90625 58.18229 279.4375 58.55729Q278.96875 58.93229 278.96875 59.46354Q278.96875 59.93229 279.29688 60.229164Q279.625 60.52604 281.0 60.83854Q282.39062 61.15104 282.90625 61.385414Q283.65625 61.74479 284.01562 62.27604Q284.375 62.791664 284.375 63.49479Q284.375 64.18229 283.98438 64.791664Q283.59375 65.385414 282.85938 65.729164Q282.125 66.05729 281.20312 66.05729Q280.03125 66.05729 279.23438 65.729164Q278.45312 65.385414 278.0 64.697914Q277.5625 64.010414 277.54688 63.15104ZM285.95312 65.916664L285.95312 57.322914L292.15625 57.322914L292.15625 58.33854L287.09375 58.33854L287.09375 60.96354L291.84375 60.96354L291.84375 61.979164L287.09375 61.979164L287.09375 64.90104L292.35938 64.90104L292.35938 65.916664L285.95312 65.916664ZM293.9375 65.916664L293.9375 57.322914L297.75 57.322914Q298.90625 57.322914 299.5 57.55729Q300.09375 57.791664 300.45312 58.385414Q300.8125 58.96354 300.8125 59.666664Q300.8125 60.58854 300.21875 61.21354Q299.625 61.83854 298.39062 62.010414Q298.84375 62.229164 299.07812 62.43229Q299.57812 62.885414 300.01562 63.572914L301.51562 65.916664L300.07812 65.916664L298.95312 64.135414Q298.45312 63.354164 298.125 62.947914Q297.8125 62.541664 297.54688 62.385414Q297.29688 62.21354 297.03125 62.135414Q296.84375 62.104164 296.40625 62.104164L295.07812 62.104164L295.07812 65.916664L293.9375 65.916664ZM295.07812 61.11979L297.53125 61.11979Q298.29688 61.11979 298.73438 60.96354Q299.1875 60.791664 299.40625 60.447914Q299.64062 60.08854 299.64062 59.666664Q299.64062 59.05729 299.1875 58.666664Q298.75 58.27604 297.79688 58.27604L295.07812 58.27604L295.07812 61.11979ZM302.875 65.916664L302.875 57.322914L304.01562 57.322914L304.01562 64.90104L308.25 64.90104L308.25 65.916664L302.875 65.916664Z" fill-rule="nonzero"/><path fill="#34a853" d="M325.0 56.916668C325.0 56.364384 325.44772 55.916668 326.0 55.916668L336.0 55.916668C336.55228 55.916668 337.0 56.364384 337.0 56.916668L337.0 66.916664C337.0 67.46895 336.55228 67.916664 336.0 67.916664L326.0 67.916664C325.44772 67.916664 325.0 67.46895 325.0 66.916664Z" fill-rule="nonzero"/><path fill="#1a1a1a" d="M345.54688 63.15104L346.60938 63.05729Q346.6875 63.71354 346.96875 64.11979Q347.25 64.52604 347.82812 64.791664Q348.42188 65.041664 349.15625 65.041664Q349.79688 65.041664 350.29688 64.854164Q350.79688 64.65104 351.03125 64.322914Q351.28125 63.979164 351.28125 63.58854Q351.28125 63.18229 351.04688 62.885414Q350.8125 62.572914 350.28125 62.36979Q349.92188 62.229164 348.73438 61.947914Q347.5625 61.666664 347.09375 61.416664Q346.46875 61.08854 346.17188 60.61979Q345.875 60.135414 345.875 59.541664Q345.875 58.90104 346.23438 58.33854Q346.60938 57.760414 347.3125 57.479164Q348.03125 57.18229 348.89062 57.18229Q349.84375 57.18229 350.57812 57.49479Q351.3125 57.791664 351.70312 58.40104Q352.09375 58.99479 352.125 59.74479L351.03125 59.822914Q350.9375 59.010414 350.42188 58.604164Q349.92188 58.18229 348.9375 58.18229Q347.90625 58.18229 347.4375 58.55729Q346.96875 58.93229 346.96875 59.46354Q346.96875 59.93229 347.29688 60.229164Q347.625 60.52604 349.0 60.83854Q350.39062 61.15104 350.90625 61.385414Q351.65625 61.74479 352.01562 62.27604Q352.375 62.791664 352.375 63.49479Q352.375 64.18229 351.98438 64.791664Q351.59375 65.385414 350.85938 65.729164Q350.125 66.05729 349.20312 66.05729Q348.03125 66.05729 347.23438 65.729164Q346.45312 65.385414 346.0 64.697914Q345.5625 64.010414 345.54688 63.15104ZM353.875 65.916664L353.875 57.322914L355.01562 57.322914L355.01562 64.90104L359.25 64.90104L359.25 65.916664L353.875 65.916664ZM359.98438 65.916664L363.28125 57.322914L364.5 57.322914L368.01562 65.916664L366.73438 65.916664L365.71875 63.30729L362.14062 63.30729L361.1875 65.916664L359.98438 65.916664ZM362.46875 62.385414L365.375 62.385414L364.48438 60.010414Q364.0625 58.93229 363.875 58.229164Q363.70312 59.05729 363.40625 59.86979L362.46875 62.385414ZM374.0625 62.90104L375.1875 63.197914Q374.82812 64.58854 373.90625 65.322914Q372.98438 66.05729 371.64062 66.05729Q370.25 66.05729 369.375 65.49479Q368.5 64.93229 368.04688 63.86979Q367.59375 62.791664 367.59375 61.55729Q367.59375 60.21354 368.10938 59.21354Q368.625 58.21354 369.5625 57.697914Q370.51562 57.18229 371.65625 57.18229Q372.9375 57.18229 373.8125 57.83854Q374.70312 58.49479 375.04688 59.68229L373.92188 59.947914Q373.625 59.010414 373.04688 58.58854Q372.48438 58.15104 371.625 58.15104Q370.64062 58.15104 369.96875 58.635414Q369.3125 59.104164 369.03125 59.90104Q368.76562 60.697914 368.76562 61.55729Q368.76562 62.65104 369.07812 63.46354Q369.40625 64.27604 370.07812 64.68229Q370.75 65.08854 371.54688 65.08854Q372.5 65.08854 373.15625 64.541664Q373.82812 63.99479 374.0625 62.90104ZM381.8125 68.447914Q380.9375 67.33854 380.32812 65.86979Q379.73438 64.385414 379.73438 62.80729Q379.73438 61.416664 380.17188 60.135414Q380.70312 58.65104 381.8125 57.18229L382.5625 57.18229Q381.85938 58.40104 381.625 58.916664Q381.26562 59.729164 381.0625 60.604164Q380.8125 61.697914 380.8125 62.80729Q380.8125 65.635414 382.5625 68.447914L381.8125 68.447914ZM383.40625 62.80729Q383.40625 61.072914 384.35938 60.24479Q385.15625 59.55729 386.3125 59.55729Q387.59375 59.55729 388.40625 60.40104Q389.23438 61.229164 389.23438 62.71354Q389.23438 63.916664 388.875 64.604164Q388.51562 65.291664 387.8125 65.68229Q387.125 66.05729 386.3125 66.05729Q385.01562 66.05729 384.20312 65.229164Q383.40625 64.385414 383.40625 62.80729ZM384.48438 62.80729Q384.48438 63.99479 385.0 64.58854Q385.53125 65.18229 386.3125 65.18229Q387.10938 65.18229 387.625 64.58854Q388.14062 63.99479 388.14062 62.77604Q388.14062 61.61979 387.60938 61.02604Q387.09375 60.43229 386.3125 60.43229Q385.53125 60.43229 385.0 61.02604Q384.48438 61.604164 384.48438 62.80729ZM394.875 65.916664L394.875 64.99479Q394.14062 66.05729 392.89062 66.05729Q392.34375 66.05729 391.85938 65.854164Q391.39062 65.635414 391.15625 65.322914Q390.92188 64.99479 390.82812 64.52604Q390.76562 64.229164 390.76562 63.541664L390.76562 59.697914L391.82812 59.697914L391.82812 63.15104Q391.82812 63.96354 391.89062 64.260414Q391.98438 64.666664 392.29688 64.916664Q392.625 65.15104 393.10938 65.15104Q393.57812 65.15104 393.98438 64.916664Q394.40625 64.666664 394.57812 64.24479Q394.76562 63.822914 394.76562 63.02604L394.76562 59.697914L395.8125 59.697914L395.8125 65.916664L394.875 65.916664ZM397.78125 65.916664L397.78125 59.697914L398.73438 59.697914L398.73438 60.635414Q399.09375 59.979164 399.39062 59.77604Q399.70312 59.55729 400.07812 59.55729Q400.60938 59.55729 401.15625 59.885414L400.79688 60.86979Q400.40625 60.635414 400.03125 60.635414Q399.67188 60.635414 399.39062 60.854164Q399.125 61.05729 399.01562 61.43229Q398.82812 61.99479 398.82812 62.65104L398.82812 65.916664L397.78125 65.916664ZM401.375 64.05729L402.40625 63.90104Q402.5 64.52604 402.89062 64.854164Q403.29688 65.18229 404.03125 65.18229Q404.75 65.18229 405.09375 64.90104Q405.45312 64.604164 405.45312 64.197914Q405.45312 63.83854 405.14062 63.635414Q404.92188 63.49479 404.0625 63.27604Q402.90625 62.979164 402.45312 62.77604Q402.01562 62.55729 401.78125 62.18229Q401.54688 61.80729 401.54688 61.33854Q401.54688 60.93229 401.73438 60.572914Q401.92188 60.21354 402.25 59.979164Q402.5 59.80729 402.92188 59.68229Q403.34375 59.55729 403.84375 59.55729Q404.5625 59.55729 405.10938 59.77604Q405.67188 59.979164 405.9375 60.33854Q406.20312 60.697914 406.29688 61.291664L405.26562 61.43229Q405.20312 60.96354 404.85938 60.697914Q404.53125 60.416664 403.90625 60.416664Q403.1875 60.416664 402.875 60.666664Q402.5625 60.90104 402.5625 61.229164Q402.5625 61.43229 402.6875 61.58854Q402.82812 61.760414 403.09375 61.86979Q403.25 61.93229 404.03125 62.135414Q405.15625 62.447914 405.59375 62.635414Q406.03125 62.822914 406.28125 63.18229Q406.53125 63.541664 406.53125 64.08854Q406.53125 64.61979 406.21875 65.08854Q405.92188 65.541664 405.34375 65.80729Q404.76562 66.05729 404.03125 66.05729Q402.8125 66.05729 402.17188 65.55729Q401.54688 65.041664 401.375 64.05729ZM409.48438 68.447914L408.73438 68.447914Q410.48438 65.635414 410.48438 62.80729Q410.48438 61.71354 410.23438 60.61979Q410.03125 59.74479 409.67188 58.93229Q409.4375 58.416664 408.73438 57.18229L409.48438 57.18229Q410.57812 58.65104 411.10938 60.135414Q411.5625 61.416664 411.5625 62.80729Q411.5625 64.385414 410.95312 65.86979Q410.34375 67.33854 409.48438 68.447914Z" fill-rule="nonzero"/><path fill="#757575" d="M23.7375 37.55L23.7375 24.925L19.01875 24.925L19.01875 23.2375L30.3625 23.2375L30.3625 24.925L25.628124 24.925L25.628124 37.55L23.7375 37.55ZM31.221874 32.3625Q31.221874 29.4875 32.815624 28.096874Q34.159374 26.940624 36.08125 26.940624Q38.221874 26.940624 39.565624 28.346874Q40.925 29.753124 40.925 32.221874Q40.925 34.221874 40.33125 35.378124Q39.7375 36.51875 38.58125 37.159374Q37.440624 37.784374 36.08125 37.784374Q33.89375 37.784374 32.55 36.39375Q31.221874 34.9875 31.221874 32.3625ZM33.01875 32.3625Q33.01875 34.3625 33.878124 35.346874Q34.753124 36.33125 36.08125 36.33125Q37.39375 36.33125 38.253124 35.346874Q39.128124 34.346874 39.128124 32.3Q39.128124 30.378124 38.253124 29.39375Q37.378124 28.39375 36.08125 28.39375Q34.753124 28.39375 33.878124 29.39375Q33.01875 30.378124 33.01875 32.3625ZM46.70625 35.971874L46.95625 37.534374Q46.221874 37.690624 45.628124 37.690624Q44.675 37.690624 44.14375 37.39375Q43.628124 37.08125 43.409374 36.596874Q43.190624 36.096874 43.190624 34.51875L43.190624 28.55L41.909374 28.55L41.909374 27.175L43.190624 27.175L43.190624 24.6125L44.940624 23.55L44.940624 27.175L46.70625 27.175L46.70625 28.55L44.940624 28.55L44.940624 34.6125Q44.940624 35.3625 45.034374 35.58125Q45.128124 35.784374 45.33125 35.925Q45.55 36.05 45.940624 36.05Q46.221874 36.05 46.70625 35.971874ZM55.64375 36.26875Q54.659374 37.096874 53.753124 37.440624Q52.846874 37.784374 51.815624 37.784374Q50.1125 37.784374 49.190624 36.95625Q48.26875 36.1125 48.26875 34.815624Q48.26875 34.05 48.6125 33.425Q48.971874 32.8 49.534374 32.425Q50.096874 32.034374 50.8 31.83125Q51.315624 31.70625 52.3625 31.565624Q54.4875 31.315624 55.4875 30.971874Q55.503124 30.6125 55.503124 30.503124Q55.503124 29.440624 55.003124 28.9875Q54.33125 28.39375 53.003124 28.39375Q51.753124 28.39375 51.159374 28.83125Q50.58125 29.26875 50.3 30.378124L48.58125 30.14375Q48.815624 29.034374 49.346874 28.3625Q49.878124 27.675 50.89375 27.315624Q51.909374 26.940624 53.253124 26.940624Q54.58125 26.940624 55.409374 27.253124Q56.2375 27.565624 56.628124 28.05Q57.01875 28.51875 57.175 29.2375Q57.26875 29.690624 57.26875 30.8625L57.26875 33.20625Q57.26875 35.659374 57.378124 36.315624Q57.4875 36.95625 57.83125 37.55L55.9875 37.55Q55.721874 37.003124 55.64375 36.26875ZM55.4875 32.346874Q54.534374 32.7375 52.6125 33.003124Q51.534374 33.159374 51.08125 33.3625Q50.64375 33.55 50.39375 33.925Q50.14375 34.3 50.14375 34.76875Q50.14375 35.471874 50.675 35.940624Q51.20625 36.409374 52.2375 36.409374Q53.253124 36.409374 54.034374 35.971874Q54.83125 35.51875 55.20625 34.753124Q55.4875 34.14375 55.4875 32.9875L55.4875 32.346874ZM59.83125 37.55L59.83125 23.2375L61.58125 23.2375L61.58125 37.55L59.83125 37.55ZM80.31563 32.534374L82.20625 33.003124Q81.6125 35.346874 80.06563 36.58125Q78.51875 37.8 76.26875 37.8Q73.95625 37.8 72.50313 36.8625Q71.06563 35.909374 70.3 34.128124Q69.55 32.33125 69.55 30.284374Q69.55 28.05 70.39375 26.39375Q71.25313 24.721874 72.83125 23.8625Q74.40938 22.9875 76.3 22.9875Q78.45625 22.9875 79.90938 24.08125Q81.37813 25.175 81.95625 27.159374L80.09688 27.596874Q79.59688 26.034374 78.64375 25.33125Q77.70625 24.6125 76.26875 24.6125Q74.6125 24.6125 73.50313 25.409374Q72.39375 26.190624 71.94063 27.534374Q71.50313 28.8625 71.50313 30.26875Q71.50313 32.096874 72.03438 33.471874Q72.56563 34.83125 73.69063 35.503124Q74.81563 36.175 76.1125 36.175Q77.70625 36.175 78.81563 35.253124Q79.925 34.33125 80.31563 32.534374ZM83.22188 32.3625Q83.22188 29.4875 84.81563 28.096874Q86.15938 26.940624 88.08125 26.940624Q90.22188 26.940624 91.56563 28.346874Q92.925 29.753124 92.925 32.221874Q92.925 34.221874 92.33125 35.378124Q91.7375 36.51875 90.58125 37.159374Q89.44063 37.784374 88.08125 37.784374Q85.89375 37.784374 84.55 36.39375Q83.22188 34.9875 83.22188 32.3625ZM85.01875 32.3625Q85.01875 34.3625 85.87813 35.346874Q86.75313 36.33125 88.08125 36.33125Q89.39375 36.33125 90.25313 35.346874Q91.12813 34.346874 91.12813 32.3Q91.12813 30.378124 90.25313 29.39375Q89.37813 28.39375 88.08125 28.39375Q86.75313 28.39375 85.87813 29.39375Q85.01875 30.378124 85.01875 32.3625ZM101.65938 37.55L101.65938 36.01875Q100.45625 37.784374 98.37813 37.784374Q97.45625 37.784374 96.65938 37.440624Q95.8625 37.08125 95.47188 36.55Q95.09688 36.01875 94.94063 35.2375Q94.83125 34.721874 94.83125 33.596874L94.83125 27.175L96.58125 27.175L96.58125 32.925Q96.58125 34.3 96.69063 34.784374Q96.8625 35.471874 97.39375 35.878124Q97.94063 36.26875 98.72188 36.26875Q99.51875 36.26875 100.20625 35.8625Q100.90938 35.45625 101.19063 34.76875Q101.4875 34.065624 101.4875 32.7375L101.4875 27.175L103.2375 27.175L103.2375 37.55L101.65938 37.55ZM104.8625 37.55L104.8625 27.175L106.45625 27.175L106.45625 28.659374Q107.59688 26.940624 109.75313 26.940624Q110.69063 26.940624 111.47188 27.284374Q112.26875 27.6125 112.65938 28.159374Q113.05 28.70625 113.20625 29.45625Q113.3 29.95625 113.3 31.175L113.3 37.55L111.53438 37.55L111.53438 31.2375Q111.53438 30.159374 111.33125 29.628124Q111.12813 29.096874 110.59688 28.784374Q110.08125 28.471874 109.37813 28.471874Q108.25313 28.471874 107.44063 29.190624Q106.62813 29.89375 106.62813 31.878124L106.62813 37.55L104.8625 37.55ZM118.70625 35.971874L118.95625 37.534374Q118.22188 37.690624 117.62813 37.690624Q116.675 37.690624 116.14375 37.39375Q115.62813 37.08125 115.40938 36.596874Q115.19063 36.096874 115.19063 34.51875L115.19063 28.55L113.90938 28.55L113.90938 27.175L115.19063 27.175L115.19063 24.6125L116.94063 23.55L116.94063 27.175L118.70625 27.175L118.70625 28.55L116.94063 28.55L116.94063 34.6125Q116.94063 35.3625 117.03438 35.58125Q117.12813 35.784374 117.33125 35.925Q117.55 36.05 117.94063 36.05Q118.22188 36.05 118.70625 35.971874ZM120.15938 34.45625L121.90938 34.175Q122.05 35.221874 122.72188 35.784374Q123.39375 36.33125 124.59688 36.33125Q125.8 36.33125 126.37813 35.846874Q126.97188 35.346874 126.97188 34.690624Q126.97188 34.096874 126.45625 33.753124Q126.09688 33.51875 124.65938 33.159374Q122.72188 32.659374 121.97188 32.315624Q121.2375 31.95625 120.84688 31.33125Q120.45625 30.690624 120.45625 29.925Q120.45625 29.2375 120.76875 28.64375Q121.09688 28.05 121.64375 27.659374Q122.05 27.3625 122.75313 27.159374Q123.47188 26.940624 124.28438 26.940624Q125.50313 26.940624 126.425 27.3Q127.34688 27.64375 127.78438 28.253124Q128.22188 28.846874 128.39375 29.846874L126.675 30.08125Q126.55 29.284374 125.9875 28.846874Q125.425 28.39375 124.40938 28.39375Q123.19063 28.39375 122.675 28.8Q122.15938 29.190624 122.15938 29.721874Q122.15938 30.065624 122.37813 30.346874Q122.58125 30.628124 123.05 30.815624Q123.31563 30.909374 124.59688 31.253124Q126.47188 31.753124 127.20625 32.08125Q127.94063 32.39375 128.3625 33.003124Q128.78438 33.596874 128.78438 34.503124Q128.78438 35.378124 128.26875 36.159374Q127.75313 36.940624 126.78438 37.3625Q125.81563 37.784374 124.59688 37.784374Q122.58125 37.784374 121.51875 36.940624Q120.45625 36.096874 120.15938 34.45625ZM136.22188 32.3625Q136.22188 29.4875 137.81563 28.096874Q139.15938 26.940624 141.08125 26.940624Q143.22188 26.940624 144.56563 28.346874Q145.925 29.753124 145.925 32.221874Q145.925 34.221874 145.33125 35.378124Q144.7375 36.51875 143.58125 37.159374Q142.44063 37.784374 141.08125 37.784374Q138.89375 37.784374 137.55 36.39375Q136.22188 34.9875 136.22188 32.3625ZM138.01875 32.3625Q138.01875 34.3625 138.87813 35.346874Q139.75313 36.33125 141.08125 36.33125Q142.39375 36.33125 143.25313 35.346874Q144.12813 34.346874 144.12813 32.3Q144.12813 30.378124 143.25313 29.39375Q142.37813 28.39375 141.08125 28.39375Q139.75313 28.39375 138.87813 29.39375Q138.01875 30.378124 138.01875 32.3625ZM148.28438 37.55L148.28438 28.55L146.7375 28.55L146.7375 27.175L148.28438 27.175L148.28438 26.08125Q148.28438 25.034374 148.47188 24.51875Q148.72188 23.83125 149.3625 23.409374Q150.00313 22.9875 151.15938 22.9875Q151.90938 22.9875 152.8 23.159374L152.53438 24.690624Q151.9875 24.596874 151.50313 24.596874Q150.70625 24.596874 150.3625 24.940624Q150.03438 25.284374 150.03438 26.221874L150.03438 27.175L152.06563 27.175L152.06563 28.55L150.03438 28.55L150.03438 37.55L148.28438 37.55ZM159.45625 32.95625L161.2375 32.8Q161.3625 33.8625 161.81563 34.55Q162.28438 35.2375 163.25313 35.675Q164.2375 36.096874 165.47188 36.096874Q166.55 36.096874 167.37813 35.784374Q168.20625 35.45625 168.6125 34.89375Q169.01875 34.33125 169.01875 33.659374Q169.01875 32.9875 168.62813 32.4875Q168.2375 31.9875 167.34688 31.64375Q166.76875 31.409374 164.78438 30.940624Q162.81563 30.471874 162.03438 30.05Q161.00313 29.51875 160.50313 28.721874Q160.00313 27.925 160.00313 26.940624Q160.00313 25.846874 160.6125 24.909374Q161.22188 23.971874 162.40938 23.4875Q163.59688 22.9875 165.03438 22.9875Q166.62813 22.9875 167.84688 23.503124Q169.06563 24.01875 169.70625 25.01875Q170.3625 26.003124 170.40938 27.26875L168.59688 27.409374Q168.45625 26.05 167.6125 25.3625Q166.76875 24.659374 165.1125 24.659374Q163.39375 24.659374 162.59688 25.3Q161.81563 25.925 161.81563 26.8Q161.81563 27.58125 162.37813 28.08125Q162.925 28.58125 165.2375 29.096874Q167.55 29.6125 168.40938 30.003124Q169.65938 30.58125 170.25313 31.471874Q170.84688 32.346874 170.84688 33.503124Q170.84688 34.64375 170.19063 35.659374Q169.53438 36.675 168.3 37.2375Q167.08125 37.8 165.55 37.8Q163.6125 37.8 162.3 37.2375Q160.9875 36.659374 160.2375 35.51875Q159.4875 34.378124 159.45625 32.95625ZM179.64375 36.26875Q178.65938 37.096874 177.75313 37.440624Q176.84688 37.784374 175.81563 37.784374Q174.1125 37.784374 173.19063 36.95625Q172.26875 36.1125 172.26875 34.815624Q172.26875 34.05 172.6125 33.425Q172.97188 32.8 173.53438 32.425Q174.09688 32.034374 174.8 31.83125Q175.31563 31.70625 176.3625 31.565624Q178.4875 31.315624 179.4875 30.971874Q179.50313 30.6125 179.50313 30.503124Q179.50313 29.440624 179.00313 28.9875Q178.33125 28.39375 177.00313 28.39375Q175.75313 28.39375 175.15938 28.83125Q174.58125 29.26875 174.3 30.378124L172.58125 30.14375Q172.81563 29.034374 173.34688 28.3625Q173.87813 27.675 174.89375 27.315624Q175.90938 26.940624 177.25313 26.940624Q178.58125 26.940624 179.40938 27.253124Q180.2375 27.565624 180.62813 28.05Q181.01875 28.51875 181.175 29.2375Q181.26875 29.690624 181.26875 30.8625L181.26875 33.20625Q181.26875 35.659374 181.37813 36.315624Q181.4875 36.95625 181.83125 37.55L179.9875 37.55Q179.72188 37.003124 179.64375 36.26875ZM179.4875 32.346874Q178.53438 32.7375 176.6125 33.003124Q175.53438 33.159374 175.08125 33.3625Q174.64375 33.55 174.39375 33.925Q174.14375 34.3 174.14375 34.76875Q174.14375 35.471874 174.675 35.940624Q175.20625 36.409374 176.2375 36.409374Q177.25313 36.409374 178.03438 35.971874Q178.83125 35.51875 179.20625 34.753124Q179.4875 34.14375 179.4875 32.9875L179.4875 32.346874ZM184.28438 37.55L184.28438 28.55L182.7375 28.55L182.7375 27.175L184.28438 27.175L184.28438 26.08125Q184.28438 25.034374 184.47188 24.51875Q184.72188 23.83125 185.3625 23.409374Q186.00313 22.9875 187.15938 22.9875Q187.90938 22.9875 188.8 23.159374L188.53438 24.690624Q187.9875 24.596874 187.50313 24.596874Q186.70625 24.596874 186.3625 24.940624Q186.03438 25.284374 186.03438 26.221874L186.03438 27.175L188.06563 27.175L188.06563 28.55L186.03438 28.55L186.03438 37.55L184.28438 37.55ZM196.97188 34.20625L198.78438 34.440624Q198.3625 36.01875 197.19063 36.909374Q196.03438 37.784374 194.22188 37.784374Q191.95625 37.784374 190.6125 36.39375Q189.28438 34.9875 189.28438 32.45625Q189.28438 29.83125 190.62813 28.39375Q191.97188 26.940624 194.12813 26.940624Q196.20625 26.940624 197.51875 28.3625Q198.84688 29.76875 198.84688 32.346874Q198.84688 32.503124 198.83125 32.815624L191.09688 32.815624Q191.19063 34.51875 192.06563 35.425Q192.94063 36.33125 194.2375 36.33125Q195.20625 36.33125 195.87813 35.83125Q196.56563 35.315624 196.97188 34.20625ZM191.19063 31.3625L196.9875 31.3625Q196.87813 30.065624 196.33125 29.409374Q195.4875 28.39375 194.14375 28.39375Q192.94063 28.39375 192.1125 29.20625Q191.28438 30.003124 191.19063 31.3625ZM204.70625 35.971874L204.95625 37.534374Q204.22188 37.690624 203.62813 37.690624Q202.675 37.690624 202.14375 37.39375Q201.62813 37.08125 201.40938 36.596874Q201.19063 36.096874 201.19063 34.51875L201.19063 28.55L199.90938 28.55L199.90938 27.175L201.19063 27.175L201.19063 24.6125L202.94063 23.55L202.94063 27.175L204.70625 27.175L204.70625 28.55L202.94063 28.55L202.94063 34.6125Q202.94063 35.3625 203.03438 35.58125Q203.12813 35.784374 203.33125 35.925Q203.55 36.05 203.94063 36.05Q204.22188 36.05 204.70625 35.971874ZM206.78438 41.55L206.59688 39.89375Q207.175 40.05 207.59688 40.05Q208.19063 40.05 208.53438 39.846874Q208.89375 39.659374 209.1125 39.315624Q209.28438 39.05 209.65938 38.003124Q209.70625 37.846874 209.81563 37.565624L205.87813 27.175L207.76875 27.175L209.925 33.190624Q210.34688 34.33125 210.675 35.58125Q210.9875 34.378124 211.39375 33.221874L213.6125 27.175L215.37813 27.175L211.425 37.721874Q210.8 39.440624 210.44063 40.08125Q209.97188 40.95625 209.3625 41.346874Q208.76875 41.753124 207.925 41.753124Q207.40938 41.753124 206.78438 41.55ZM227.19063 37.55L221.64375 23.2375L223.69063 23.2375L227.40938 33.628124Q227.8625 34.878124 228.15938 35.971874Q228.4875 34.8 228.94063 33.628124L232.8 23.2375L234.7375 23.2375L229.12813 37.55L227.19063 37.55ZM235.87813 25.253124L235.87813 23.2375L237.64375 23.2375L237.64375 25.253124L235.87813 25.253124ZM235.87813 37.55L235.87813 27.175L237.64375 27.175L237.64375 37.55L235.87813 37.55ZM239.22188 32.3625Q239.22188 29.4875 240.81563 28.096874Q242.15938 26.940624 244.08125 26.940624Q246.22188 26.940624 247.56563 28.346874Q248.925 29.753124 248.925 32.221874Q248.925 34.221874 248.33125 35.378124Q247.7375 36.51875 246.58125 37.159374Q245.44063 37.784374 244.08125 37.784374Q241.89375 37.784374 240.55 36.39375Q239.22188 34.9875 239.22188 32.3625ZM241.01875 32.3625Q241.01875 34.3625 241.87813 35.346874Q242.75313 36.33125 244.08125 36.33125Q245.39375 36.33125 246.25313 35.346874Q247.12813 34.346874 247.12813 32.3Q247.12813 30.378124 246.25313 29.39375Q245.37813 28.39375 244.08125 28.39375Q242.75313 28.39375 241.87813 29.39375Q241.01875 30.378124 241.01875 32.3625ZM250.83125 37.55L250.83125 23.2375L252.58125 23.2375L252.58125 37.55L250.83125 37.55ZM261.64374 36.26875Q260.65936 37.096874 259.7531 37.440624Q258.84686 37.784374 257.8156 37.784374Q256.1125 37.784374 255.19063 36.95625Q254.26875 36.1125 254.26875 34.815624Q254.26875 34.05 254.6125 33.425Q254.97188 32.8 255.53438 32.425Q256.09686 32.034374 256.8 31.83125Q257.3156 31.70625 258.3625 31.565624Q260.4875 31.315624 261.4875 30.971874Q261.5031 30.6125 261.5031 30.503124Q261.5031 29.440624 261.0031 28.9875Q260.33124 28.39375 259.0031 28.39375Q257.7531 28.39375 257.15936 28.83125Q256.58124 29.26875 256.3 30.378124L254.58125 30.14375Q254.81563 29.034374 255.34688 28.3625Q255.87813 27.675 256.89374 27.315624Q257.90936 26.940624 259.2531 26.940624Q260.58124 26.940624 261.40936 27.253124Q262.2375 27.565624 262.6281 28.05Q263.01874 28.51875 263.175 29.2375Q263.26874 29.690624 263.26874 30.8625L263.26874 33.20625Q263.26874 35.659374 263.3781 36.315624Q263.4875 36.95625 263.83124 37.55L261.9875 37.55Q261.72186 37.003124 261.64374 36.26875ZM261.4875 32.346874Q260.53436 32.7375 258.6125 33.003124Q257.53436 33.159374 257.08124 33.3625Q256.64374 33.55 256.39374 33.925Q256.14374 34.3 256.14374 34.76875Q256.14374 35.471874 256.675 35.940624Q257.20624 36.409374 258.2375 36.409374Q259.2531 36.409374 260.03436 35.971874Q260.83124 35.51875 261.20624 34.753124Q261.4875 34.14375 261.4875 32.9875L261.4875 32.346874ZM269.70624 35.971874L269.95624 37.534374Q269.22186 37.690624 268.6281 37.690624Q267.675 37.690624 267.14374 37.39375Q266.6281 37.08125 266.40936 36.596874Q266.1906 36.096874 266.1906 34.51875L266.1906 28.55L264.90936 28.55L264.90936 27.175L266.1906 27.175L266.1906 24.6125L267.9406 23.55L267.9406 27.175L269.70624 27.175L269.70624 28.55L267.9406 28.55L267.9406 34.6125Q267.9406 35.3625 268.03436 35.58125Q268.1281 35.784374 268.33124 35.925Q268.55 36.05 268.9406 36.05Q269.22186 36.05 269.70624 35.971874ZM271.8781 25.253124L271.8781 23.2375L273.64374 23.2375L273.64374 25.253124L271.8781 25.253124ZM271.8781 37.55L271.8781 27.175L273.64374 27.175L273.64374 37.55L271.8781 37.55ZM275.22186 32.3625Q275.22186 29.4875 276.8156 28.096874Q278.15936 26.940624 280.08124 26.940624Q282.22186 26.940624 283.5656 28.346874Q284.925 29.753124 284.925 32.221874Q284.925 34.221874 284.33124 35.378124Q283.7375 36.51875 282.58124 37.159374Q281.4406 37.784374 280.08124 37.784374Q277.89374 37.784374 276.55 36.39375Q275.22186 34.9875 275.22186 32.3625ZM277.01874 32.3625Q277.01874 34.3625 277.8781 35.346874Q278.7531 36.33125 280.08124 36.33125Q281.39374 36.33125 282.2531 35.346874Q283.1281 34.346874 283.1281 32.3Q283.1281 30.378124 282.2531 29.39375Q281.3781 28.39375 280.08124 28.39375Q278.7531 28.39375 277.8781 29.39375Q277.01874 30.378124 277.01874 32.3625ZM286.8625 37.55L286.8625 27.175L288.45624 27.175L288.45624 28.659374Q289.59686 26.940624 291.7531 26.940624Q292.6906 26.940624 293.47186 27.284374Q294.26874 27.6125 294.65936 28.159374Q295.05 28.70625 295.20624 29.45625Q295.3 29.95625 295.3 31.175L295.3 37.55L293.53436 37.55L293.53436 31.2375Q293.53436 30.159374 293.33124 29.628124Q293.1281 29.096874 292.59686 28.784374Q292.08124 28.471874 291.3781 28.471874Q290.2531 28.471874 289.4406 29.190624Q288.6281 29.89375 288.6281 31.878124L288.6281 37.55L286.8625 37.55ZM303.09686 37.55L303.09686 23.2375L308.01874 23.2375Q309.6906 23.2375 310.58124 23.440624Q311.8 23.721874 312.675 24.45625Q313.8 25.425 314.3625 26.909374Q314.925 28.39375 314.925 30.315624Q314.925 31.940624 314.55 33.20625Q314.175 34.45625 313.5656 35.284374Q312.97186 36.1125 312.26874 36.596874Q311.5656 37.065624 310.5656 37.315624Q309.5656 37.55 308.2531 37.55L303.09686 37.55ZM304.9875 35.8625L308.05 35.8625Q309.45624 35.8625 310.2531 35.596874Q311.0656 35.33125 311.55 34.846874Q312.22186 34.175 312.59686 33.05Q312.97186 31.909374 312.97186 30.284374Q312.97186 28.034374 312.2375 26.83125Q311.5031 25.628124 310.4406 25.221874Q309.6906 24.925 308.0031 24.925L304.9875 24.925L304.9875 35.8625ZM323.65936 37.55L323.65936 36.01875Q322.45624 37.784374 320.3781 37.784374Q319.45624 37.784374 318.65936 37.440624Q317.8625 37.08125 317.47186 36.55Q317.09686 36.01875 316.9406 35.2375Q316.83124 34.721874 316.83124 33.596874L316.83124 27.175L318.58124 27.175L318.58124 32.925Q318.58124 34.3 318.6906 34.784374Q318.8625 35.471874 319.39374 35.878124Q319.9406 36.26875 320.72186 36.26875Q321.51874 36.26875 322.20624 35.8625Q322.90936 35.45625 323.1906 34.76875Q323.4875 34.065624 323.4875 32.7375L323.4875 27.175L325.2375 27.175L325.2375 37.55L323.65936 37.55ZM326.84686 37.55L326.84686 27.175L328.425 27.175L328.425 28.753124Q329.03436 27.64375 329.55 27.3Q330.0656 26.940624 330.675 26.940624Q331.5656 26.940624 332.4875 27.503124L331.8781 29.14375Q331.2375 28.753124 330.59686 28.753124Q330.01874 28.753124 329.55 29.1125Q329.09686 29.45625 328.89374 30.065624Q328.6125 31.003124 328.6125 32.1125L328.6125 37.55L326.84686 37.55ZM333.8781 25.253124L333.8781 23.2375L335.64374 23.2375L335.64374 25.253124L333.8781 25.253124ZM333.8781 37.55L333.8781 27.175L335.64374 27.175L335.64374 37.55L333.8781 37.55ZM337.8625 37.55L337.8625 27.175L339.45624 27.175L339.45624 28.659374Q340.59686 26.940624 342.7531 26.940624Q343.6906 26.940624 344.47186 27.284374Q345.26874 27.6125 345.65936 28.159374Q346.05 28.70625 346.20624 29.45625Q346.3 29.95625 346.3 31.175L346.3 37.55L344.53436 37.55L344.53436 31.2375Q344.53436 30.159374 344.33124 29.628124Q344.1281 29.096874 343.59686 28.784374Q343.08124 28.471874 342.3781 28.471874Q341.2531 28.471874 340.4406 29.190624Q339.6281 29.89375 339.6281 31.878124L339.6281 37.55L337.8625 37.55ZM347.55 38.409374L349.2531 38.659374Q349.3625 39.45625 349.84686 39.815624Q350.5031 40.3 351.64374 40.3Q352.8625 40.3 353.51874 39.815624Q354.1906 39.33125 354.425 38.45625Q354.5656 37.909374 354.55 36.190624Q353.39374 37.55 351.675 37.55Q349.53436 37.55 348.3625 36.003124Q347.1906 34.45625 347.1906 32.3Q347.1906 30.815624 347.72186 29.565624Q348.26874 28.315624 349.28436 27.628124Q350.3156 26.940624 351.6906 26.940624Q353.51874 26.940624 354.72186 28.425L354.72186 27.175L356.33124 27.175L356.33124 36.14375Q356.33124 38.565624 355.83124 39.565624Q355.34686 40.58125 354.26874 41.159374Q353.20624 41.753124 351.64374 41.753124Q349.8 41.753124 348.64374 40.925Q347.5031 40.096874 347.55 38.409374ZM349.0031 32.175Q349.0031 34.221874 349.8156 35.159374Q350.6281 36.096874 351.84686 36.096874Q353.05 36.096874 353.8625 35.159374Q354.6906 34.221874 354.6906 32.2375Q354.6906 30.33125 353.84686 29.3625Q353.0031 28.39375 351.8156 28.39375Q350.64374 28.39375 349.8156 29.346874Q349.0031 30.3 349.0031 32.175ZM368.7375 37.55L368.7375 24.925L364.01874 24.925L364.01874 23.2375L375.3625 23.2375L375.3625 24.925L370.6281 24.925L370.6281 37.55L368.7375 37.55ZM376.84686 37.55L376.84686 27.175L378.425 27.175L378.425 28.753124Q379.03436 27.64375 379.55 27.3Q380.0656 26.940624 380.675 26.940624Q381.5656 26.940624 382.4875 27.503124L381.8781 29.14375Q381.2375 28.753124 380.59686 28.753124Q380.01874 28.753124 379.55 29.1125Q379.09686 29.45625 378.89374 30.065624Q378.6125 31.003124 378.6125 32.1125L378.6125 37.55L376.84686 37.55ZM390.64374 36.26875Q389.65936 37.096874 388.7531 37.440624Q387.84686 37.784374 386.8156 37.784374Q385.1125 37.784374 384.1906 36.95625Q383.26874 36.1125 383.26874 34.815624Q383.26874 34.05 383.6125 33.425Q383.97186 32.8 384.53436 32.425Q385.09686 32.034374 385.8 31.83125Q386.3156 31.70625 387.3625 31.565624Q389.4875 31.315624 390.4875 30.971874Q390.5031 30.6125 390.5031 30.503124Q390.5031 29.440624 390.0031 28.9875Q389.33124 28.39375 388.0031 28.39375Q386.7531 28.39375 386.15936 28.83125Q385.58124 29.26875 385.3 30.378124L383.58124 30.14375Q383.8156 29.034374 384.34686 28.3625Q384.8781 27.675 385.89374 27.315624Q386.90936 26.940624 388.2531 26.940624Q389.58124 26.940624 390.40936 27.253124Q391.2375 27.565624 391.6281 28.05Q392.01874 28.51875 392.175 29.2375Q392.26874 29.690624 392.26874 30.8625L392.26874 33.20625Q392.26874 35.659374 392.3781 36.315624Q392.4875 36.95625 392.83124 37.55L390.9875 37.55Q390.72186 37.003124 390.64374 36.26875ZM390.4875 32.346874Q389.53436 32.7375 387.6125 33.003124Q386.53436 33.159374 386.08124 33.3625Q385.64374 33.55 385.39374 33.925Q385.14374 34.3 385.14374 34.76875Q385.14374 35.471874 385.675 35.940624Q386.20624 36.409374 387.2375 36.409374Q388.2531 36.409374 389.03436 35.971874Q389.83124 35.51875 390.20624 34.753124Q390.4875 34.14375 390.4875 32.9875L390.4875 32.346874ZM394.8781 25.253124L394.8781 23.2375L396.64374 23.2375L396.64374 25.253124L394.8781 25.253124ZM394.8781 37.55L394.8781 27.175L396.64374 27.175L396.64374 37.55L394.8781 37.55ZM398.8625 37.55L398.8625 27.175L400.45624 27.175L400.45624 28.659374Q401.59686 26.940624 403.7531 26.940624Q404.6906 26.940624 405.47186 27.284374Q406.26874 27.6125 406.65936 28.159374Q407.05 28.70625 407.20624 29.45625Q407.3 29.95625 407.3 31.175L407.3 37.55L405.53436 37.55L405.53436 31.2375Q405.53436 30.159374 405.33124 29.628124Q405.1281 29.096874 404.59686 28.784374Q404.08124 28.471874 403.3781 28.471874Q402.2531 28.471874 401.4406 29.190624Q400.6281 29.89375 400.6281 31.878124L400.6281 37.55L398.8625 37.55ZM408.8781 25.253124L408.8781 23.2375L410.64374 23.2375L410.64374 25.253124L408.8781 25.253124ZM408.8781 37.55L408.8781 27.175L410.64374 27.175L410.64374 37.55L408.8781 37.55ZM412.8625 37.55L412.8625 27.175L414.45624 27.175L414.45624 28.659374Q415.59686 26.940624 417.7531 26.940624Q418.6906 26.940624 419.47186 27.284374Q420.26874 27.6125 420.65936 28.159374Q421.05 28.70625 421.20624 29.45625Q421.3 29.95625 421.3 31.175L421.3 37.55L419.53436 37.55L419.53436 31.2375Q419.53436 30.159374 419.33124 29.628124Q419.1281 29.096874 418.59686 28.784374Q418.08124 28.471874 417.3781 28.471874Q416.2531 28.471874 415.4406 29.190624Q414.6281 29.89375 414.6281 31.878124L414.6281 37.55L412.8625 37.55ZM422.55 38.409374L424.2531 38.659374Q424.3625 39.45625 424.84686 39.815624Q425.5031 40.3 426.64374 40.3Q427.8625 40.3 428.51874 39.815624Q429.1906 39.33125 429.425 38.45625Q429.5656 37.909374 429.55 36.190624Q428.39374 37.55 426.675 37.55Q424.53436 37.55 423.3625 36.003124Q422.1906 34.45625 422.1906 32.3Q422.1906 30.815624 422.72186 29.565624Q423.26874 28.315624 424.28436 27.628124Q425.3156 26.940624 426.6906 26.940624Q428.51874 26.940624 429.72186 28.425L429.72186 27.175L431.33124 27.175L431.33124 36.14375Q431.33124 38.565624 430.83124 39.565624Q430.34686 40.58125 429.26874 41.159374Q428.20624 41.753124 426.64374 41.753124Q424.8 41.753124 423.64374 40.925Q422.5031 40.096874 422.55 38.409374ZM424.0031 32.175Q424.0031 34.221874 424.8156 35.159374Q425.6281 36.096874 426.84686 36.096874Q428.05 36.096874 428.8625 35.159374Q429.6906 34.221874 429.6906 32.2375Q429.6906 30.33125 428.84686 29.3625Q428.0031 28.39375 426.8156 28.39375Q425.64374 28.39375 424.8156 29.346874Q424.0031 30.3 424.0031 32.175Z" fill-rule="nonzero"/></svg>