<svg version="1.1" viewBox="0.0 0.0 600.0 371.0" fill="none" stroke="none" stroke-linecap="square" stroke-miterlimit="10" width="600" height="371" xmlns:xlink="http://www.w3.org/1999/xlink" xmlns="http://www.w3.org/2000/svg"><path fill="#ffffff" d="M0 0L600.0 0L600.0 371.0L0 371.0L0 0Z" fill-rule="nonzero"/><path stroke="#000000" stroke-width="1.0" stroke-linecap="butt" stroke-opacity="0.0" d="M54.5 267.5L581.5 267.5" fill-rule="nonzero"/><path stroke="#000000" stroke-width="1.0" stroke-linecap="butt" stroke-opacity="0.0" d="M54.5 250.5L581.5 250.5" fill-rule="nonzero"/><path stroke="#000000" stroke-width="1.0" stroke-linecap="butt" stroke-opacity="0.0" d="M54.5 218.5L581.5 218.5" fill-rule="nonzero"/><path stroke="#000000" stroke-width="1.0" stroke-linecap="butt" stroke-opacity="0.0" d="M54.5 202.5L581.5 202.5" fill-rule="nonzero"/><path stroke="#000000" stroke-width="1.0" stroke-linecap="butt" stroke-opacity="0.0" d="M54.5 169.5L581.5 169.5" fill-rule="nonzero"/><path stroke="#000000" stroke-width="1.0" stroke-linecap="butt" stroke-opacity="0.0" d="M54.5 153.5L581.5 153.5" fill-rule="nonzero"/><path stroke="#000000" stroke-width="1.0" stroke-linecap="butt" stroke-opacity="0.0" d="M54.5 120.5L581.5 120.5" fill-rule="nonzero"/><path stroke="#000000" stroke-width="1.0" stroke-linecap="butt" stroke-opacity="0.0" d="M54.5 104.5L581.5 104.5" fill-rule="nonzero"/><path stroke="#000000" stroke-width="1.0" stroke-linecap="butt" d="M581.5 283.5L54.5 283.5" fill-rule="nonzero"/><path stroke="#000000" stroke-width="1.0" stroke-linecap="butt" d="M54.5 283.5L54.5 88.5" fill-rule="nonzero"/><clipPath id="id_0"><path d="M54.55 88.28333L581.45 88.28333L581.45 283.45L54.55 283.45L54.55 88.28333Z" clip-rule="nonzero"/></clipPath><path stroke="#000000" stroke-width="2.0" stroke-linecap="butt" stroke-opacity="0.0" clip-path="url(#id_0)" d="M115.0 283.0L97.0 283.0L97.0 207.0C97.0 205.89543 97.89543 205.0 99.0 205.0L113.0 205.0C114.10457 205.0 115.0 205.89543 115.0 207.0Z" fill-rule="nonzero"/><path fill="#4285f4" clip-path="url(#id_0)" d="M115.0 283.0L97.0 283.0L97.0 207.0C97.0 205.89543 97.89543 205.0 99.0 205.0L113.0 205.0C114.10457 205.0 115.0 205.89543 115.0 207.0Z" fill-rule="nonzero"/><path stroke="#000000" stroke-width="2.0" stroke-linecap="butt" stroke-opacity="0.0" clip-path="url(#id_0)" d="M236.0 283.0L218.0 283.0L218.0 246.0C218.0 244.89543 218.89543 244.0 220.0 244.0L234.0 244.0C235.10457 244.0 236.0 244.89543 236.0 246.0Z" fill-rule="nonzero"/><path fill="#4285f4" clip-path="url(#id_0)" d="M236.0 283.0L218.0 283.0L218.0 246.0C218.0 244.89543 218.89543 244.0 220.0 244.0L234.0 244.0C235.10457 244.0 236.0 244.89543 236.0 246.0Z" fill-rule="nonzero"/><path stroke="#000000" stroke-width="2.0" stroke-linecap="butt" stroke-opacity="0.0" clip-path="url(#id_0)" d="M358.0 283.0L340.0 283.0L340.0 282.0C340.0 281.44772 340.44772 281.0 341.0 281.0L357.0 281.0C357.55228 281.0 358.0 281.44772 358.0 282.0Z" fill-rule="nonzero"/><path fill="#4285f4" clip-path="url(#id_0)" d="M358.0 283.0L340.0 283.0L340.0 282.0C340.0 281.44772 340.44772 281.0 341.0 281.0L357.0 281.0C357.55228 281.0 358.0 281.44772 358.0 282.0Z" fill-rule="nonzero"/><path stroke="#000000" stroke-width="2.0" stroke-linecap="butt" stroke-opacity="0.0" clip-path="url(#id_0)" d="M479.0 283.0L461.0 283.0L461.0 227.0C461.0 225.89543 461.89542 225.0 463.0 225.0L477.0 225.0C478.10458 225.0 479.0 225.89543 479.0 227.0Z" fill-rule="nonzero"/><path fill="#4285f4" clip-path="url(#id_0)" d="M479.0 283.0L461.0 283.0L461.0 227.0C461.0 225.89543 461.89542 225.0 463.0 225.0L477.0 225.0C478.10458 225.0 479.0 225.89543 479.0 227.0Z" fill-rule="nonzero"/><path stroke="#000000" stroke-width="2.0" stroke-linecap="butt" stroke-opacity="0.0" clip-path="url(#id_0)" d="M135.0 283.0L117.0 283.0L117.0 282.0C117.0 281.44772 117.447716 281.0 118.0 281.0L134.0 281.0C134.55229 281.0 135.0 281.44772 135.0 282.0Z" fill-rule="nonzero"/><path fill="#ea4335" clip-path="url(#id_0)" d="M135.0 283.0L117.0 283.0L117.0 282.0C117.0 281.44772 117.447716 281.0 118.0 281.0L134.0 281.0C134.55229 281.0 135.0 281.44772 135.0 282.0Z" fill-rule="nonzero"/><path stroke="#000000" stroke-width="2.0" stroke-linecap="butt" stroke-opacity="0.0" clip-path="url(#id_0)" d="M256.0 283.0L238.0 283.0L238.0 282.0C238.0 281.44772 238.44771 281.0 239.0 281.0L255.0 281.0C255.55229 281.0 256.0 281.44772 256.0 282.0Z" fill-rule="nonzero"/><path fill="#ea4335" clip-path="url(#id_0)" d="M256.0 283.0L238.0 283.0L238.0 282.0C238.0 281.44772 238.44771 281.0 239.0 281.0L255.0 281.0C255.55229 281.0 256.0 281.44772 256.0 282.0Z" fill-rule="nonzero"/><path stroke="#000000" stroke-width="2.0" stroke-linecap="butt" stroke-opacity="0.0" clip-path="url(#id_0)" d="M378.0 283.0L360.0 283.0L360.0 282.0C360.0 281.44772 360.44772 281.0 361.0 281.0L377.0 281.0C377.55228 281.0 378.0 281.44772 378.0 282.0Z" fill-rule="nonzero"/><path fill="#ea4335" clip-path="url(#id_0)" d="M378.0 283.0L360.0 283.0L360.0 282.0C360.0 281.44772 360.44772 281.0 361.0 281.0L377.0 281.0C377.55228 281.0 378.0 281.44772 378.0 282.0Z" fill-rule="nonzero"/><path stroke="#000000" stroke-width="2.0" stroke-linecap="butt" stroke-opacity="0.0" clip-path="url(#id_0)" d="M499.0 283.0L481.0 283.0L481.0 282.0C481.0 281.44772 481.44772 281.0 482.0 281.0L498.0 281.0C498.55228 281.0 499.0 281.44772 499.0 282.0Z" fill-rule="nonzero"/><path fill="#ea4335" clip-path="url(#id_0)" d="M499.0 283.0L481.0 283.0L481.0 282.0C481.0 281.44772 481.44772 281.0 482.0 281.0L498.0 281.0C498.55228 281.0 499.0 281.44772 499.0 282.0Z" fill-rule="nonzero"/><path stroke="#000000" stroke-width="2.0" stroke-linecap="butt" stroke-opacity="0.0" clip-path="url(#id_0)" d="M155.0 283.0L137.0 283.0L137.0 246.0C137.0 244.89543 137.89543 244.0 139.0 244.0L153.0 244.0C154.10457 244.0 155.0 244.89543 155.0 246.0Z" fill-rule="nonzero"/><path fill="#fbbc04" clip-path="url(#id_0)" d="M155.0 283.0L137.0 283.0L137.0 246.0C137.0 244.89543 137.89543 244.0 139.0 244.0L153.0 244.0C154.10457 244.0 155.0 244.89543 155.0 246.0Z" fill-rule="nonzero"/><path stroke="#000000" stroke-width="2.0" stroke-linecap="butt" stroke-opacity="0.0" clip-path="url(#id_0)" d="M276.0 283.0L258.0 283.0L258.0 246.0C258.0 244.89543 258.89542 244.0 260.0 244.0L274.0 244.0C275.10458 244.0 276.0 244.89543 276.0 246.0Z" fill-rule="nonzero"/><path fill="#fbbc04" clip-path="url(#id_0)" d="M276.0 283.0L258.0 283.0L258.0 246.0C258.0 244.89543 258.89542 244.0 260.0 244.0L274.0 244.0C275.10458 244.0 276.0 244.89543 276.0 246.0Z" fill-rule="nonzero"/><path stroke="#000000" stroke-width="2.0" stroke-linecap="butt" stroke-opacity="0.0" clip-path="url(#id_0)" d="M398.0 283.0L380.0 283.0L380.0 282.0C380.0 281.44772 380.44772 281.0 381.0 281.0L397.0 281.0C397.55228 281.0 398.0 281.44772 398.0 282.0Z" fill-rule="nonzero"/><path fill="#fbbc04" clip-path="url(#id_0)" d="M398.0 283.0L380.0 283.0L380.0 282.0C380.0 281.44772 380.44772 281.0 381.0 281.0L397.0 281.0C397.55228 281.0 398.0 281.44772 398.0 282.0Z" fill-rule="nonzero"/><path stroke="#000000" stroke-width="2.0" stroke-linecap="butt" stroke-opacity="0.0" clip-path="url(#id_0)" d="M519.0 283.0L501.0 283.0L501.0 207.0C501.0 205.89543 501.89542 205.0 503.0 205.0L517.0 205.0C518.10455 205.0 519.0 205.89543 519.0 207.0Z" fill-rule="nonzero"/><path fill="#fbbc04" clip-path="url(#id_0)" d="M519.0 283.0L501.0 283.0L501.0 207.0C501.0 205.89543 501.89542 205.0 503.0 205.0L517.0 205.0C518.10455 205.0 519.0 205.89543 519.0 207.0Z" fill-rule="nonzero"/><path stroke="#000000" stroke-width="2.0" stroke-linecap="butt" stroke-opacity="0.0" clip-path="url(#id_0)" d="M175.0 283.0L157.0 283.0L157.0 110.0C157.0 108.89543 157.89543 108.0 159.0 108.0L173.0 108.0C174.10457 108.0 175.0 108.89543 175.0 110.0Z" fill-rule="nonzero"/><path fill="#34a853" clip-path="url(#id_0)" d="M175.0 283.0L157.0 283.0L157.0 110.0C157.0 108.89543 157.89543 108.0 159.0 108.0L173.0 108.0C174.10457 108.0 175.0 108.89543 175.0 110.0Z" fill-rule="nonzero"/><path stroke="#000000" stroke-width="2.0" stroke-linecap="butt" stroke-opacity="0.0" clip-path="url(#id_0)" d="M296.0 283.0L278.0 283.0L278.0 129.0C278.0 127.89543 278.89542 127.0 280.0 127.0L294.0 127.0C295.10458 127.0 296.0 127.89543 296.0 129.0Z" fill-rule="nonzero"/><path fill="#34a853" clip-path="url(#id_0)" d="M296.0 283.0L278.0 283.0L278.0 129.0C278.0 127.89543 278.89542 127.0 280.0 127.0L294.0 127.0C295.10458 127.0 296.0 127.89543 296.0 129.0Z" fill-rule="nonzero"/><path stroke="#000000" stroke-width="2.0" stroke-linecap="butt" stroke-opacity="0.0" clip-path="url(#id_0)" d="M418.0 283.0L400.0 283.0L400.0 149.0C400.0 147.89543 400.89542 147.0 402.0 147.0L416.0 147.0C417.10458 147.0 418.0 147.89543 418.0 149.0Z" fill-rule="nonzero"/><path fill="#34a853" clip-path="url(#id_0)" d="M418.0 283.0L400.0 283.0L400.0 149.0C400.0 147.89543 400.89542 147.0 402.0 147.0L416.0 147.0C417.10458 147.0 418.0 147.89543 418.0 149.0Z" fill-rule="nonzero"/><path stroke="#000000" stroke-width="2.0" stroke-linecap="butt" stroke-opacity="0.0" clip-path="url(#id_0)" d="M539.0 283.0L521.0 283.0L521.0 110.0C521.0 108.89543 521.89545 108.0 523.0 108.0L537.0 108.0C538.10455 108.0 539.0 108.89543 539.0 110.0Z" fill-rule="nonzero"/><path fill="#34a853" clip-path="url(#id_0)" d="M539.0 283.0L521.0 283.0L521.0 110.0C521.0 108.89543 521.89545 108.0 523.0 108.0L537.0 108.0C538.10455 108.0 539.0 108.89543 539.0 110.0Z" fill-rule="nonzero"/><path stroke="#000000" stroke-width="1.0" stroke-linecap="butt" d="M136.5 289.5L136.5 277.5" fill-rule="nonzero"/><path stroke="#000000" stroke-width="1.0" stroke-linecap="butt" d="M257.5 289.5L257.5 277.5" fill-rule="nonzero"/><path stroke="#000000" stroke-width="1.0" stroke-linecap="butt" d="M378.5 289.5L378.5 277.5" fill-rule="nonzero"/><path stroke="#000000" stroke-width="1.0" stroke-linecap="butt" d="M499.5 289.5L499.5 277.5" fill-rule="nonzero"/><path stroke="#000000" stroke-width="1.0" stroke-linecap="butt" d="M48.5 283.5L60.5 283.5" fill-rule="nonzero"/><path stroke="#000000" stroke-width="1.0" stroke-linecap="butt" d="M48.5 234.5L60.5 234.5" fill-rule="nonzero"/><path stroke="#000000" stroke-width="1.0" stroke-linecap="butt" d="M48.5 185.5L60.5 185.5" fill-rule="nonzero"/><path stroke="#000000" stroke-width="1.0" stroke-linecap="butt" d="M48.5 137.5L60.5 137.5" fill-rule="nonzero"/><path stroke="#000000" stroke-width="1.0" stroke-linecap="butt" d="M48.5 88.5L60.5 88.5" fill-rule="nonzero"/><path fill="#000000" d="M298.75 348.45L298.75 338.9344L295.34375 338.9344L295.34375 336.9969L304.45312 336.9969L304.45312 338.9344L301.0625 338.9344L301.0625 348.45L298.75 348.45ZM307.79688 342.6844L305.79688 342.325Q306.14062 341.1219 306.95312 340.54376Q307.78125 339.96564 309.39062 339.96564Q310.85938 339.96564 311.57812 340.3094Q312.29688 340.65314 312.59375 341.2Q312.89062 341.73126 312.89062 343.15314L312.85938 345.71564Q312.85938 346.8094 312.96875 347.34064Q313.07812 347.85626 313.35938 348.45L311.1875 348.45Q311.10938 348.23126 310.98438 347.79376Q310.92188 347.60626 310.90625 347.54376Q310.34375 348.09064 309.70312 348.3719Q309.0625 348.6375 308.32812 348.6375Q307.04688 348.6375 306.3125 347.95Q305.57812 347.2469 305.57812 346.1844Q305.57812 345.48126 305.90625 344.9344Q306.25 344.3719 306.84375 344.09064Q307.45312 343.79376 308.59375 343.575Q310.14062 343.27814 310.73438 343.02814L310.73438 342.8094Q310.73438 342.1844 310.42188 341.91876Q310.10938 341.6375 309.23438 341.6375Q308.65625 341.6375 308.32812 341.8719Q308.0 342.10626 307.79688 342.6844ZM310.73438 344.46564Q310.3125 344.60626 309.39062 344.8094Q308.48438 344.9969 308.20312 345.1844Q307.76562 345.48126 307.76562 345.95Q307.76562 346.41876 308.10938 346.7625Q308.45312 347.09064 308.98438 347.09064Q309.57812 347.09064 310.125 346.7Q310.51562 346.40314 310.64062 345.96564Q310.73438 345.6844 310.73438 344.90314L310.73438 344.46564ZM314.375 346.075L316.57812 345.7469Q316.71875 346.3875 317.14062 346.71564Q317.57812 347.04376 318.35938 347.04376Q319.20312 347.04376 319.64062 346.73126Q319.92188 346.5125 319.92188 346.15314Q319.92188 345.90314 319.76562 345.73126Q319.60938 345.575 319.03125 345.45Q316.375 344.85626 315.67188 344.3719Q314.6875 343.7 314.6875 342.5125Q314.6875 341.4344 315.53125 340.7Q316.39062 339.96564 318.17188 339.96564Q319.875 339.96564 320.70312 340.52814Q321.53125 341.075 321.84375 342.15314L319.78125 342.54376Q319.64062 342.0594 319.26562 341.8094Q318.90625 341.54376 318.21875 341.54376Q317.34375 341.54376 316.96875 341.77814Q316.71875 341.95 316.71875 342.23126Q316.71875 342.46564 316.9375 342.6219Q317.23438 342.84064 318.98438 343.2469Q320.75 343.6375 321.4375 344.21564Q322.125 344.8094 322.125 345.85626Q322.125 346.9969 321.17188 347.825Q320.21875 348.6375 318.35938 348.6375Q316.65625 348.6375 315.67188 347.95Q314.6875 347.2625 314.375 346.075ZM324.07812 348.45L324.07812 336.9969L326.26562 336.9969L326.26562 343.075L328.84375 340.15314L331.54688 340.15314L328.70312 343.1844L331.75 348.45L329.375 348.45L327.29688 344.71564L326.26562 345.79376L326.26562 348.45L324.07812 348.45ZM332.375 346.075L334.57812 345.7469Q334.71875 346.3875 335.14062 346.71564Q335.57812 347.04376 336.35938 347.04376Q337.20312 347.04376 337.64062 346.73126Q337.92188 346.5125 337.92188 346.15314Q337.92188 345.90314 337.76562 345.73126Q337.60938 345.575 337.03125 345.45Q334.375 344.85626 333.67188 344.3719Q332.6875 343.7 332.6875 342.5125Q332.6875 341.4344 333.53125 340.7Q334.39062 339.96564 336.17188 339.96564Q337.875 339.96564 338.70312 340.52814Q339.53125 341.075 339.84375 342.15314L337.78125 342.54376Q337.64062 342.0594 337.26562 341.8094Q336.90625 341.54376 336.21875 341.54376Q335.34375 341.54376 334.96875 341.77814Q334.71875 341.95 334.71875 342.23126Q334.71875 342.46564 334.9375 342.6219Q335.23438 342.84064 336.98438 343.2469Q338.75 343.6375 339.4375 344.21564Q340.125 344.8094 340.125 345.85626Q340.125 346.9969 339.17188 347.825Q338.21875 348.6375 336.35938 348.6375Q334.65625 348.6375 333.67188 347.95Q332.6875 347.2625 332.375 346.075Z" fill-rule="nonzero"/><path fill="#000000" d="M19.05 283.21564Q19.05 281.6844 19.3625 280.7625Q19.675 279.825 20.284374 279.325Q20.909374 278.825 21.846874 278.825Q22.534374 278.825 23.05 279.10626Q23.58125 279.3875 23.925 279.91876Q24.26875 280.4344 24.45625 281.1844Q24.64375 281.9344 24.64375 283.21564Q24.64375 284.73126 24.33125 285.65314Q24.034374 286.575 23.409374 287.09064Q22.8 287.59064 21.846874 287.59064Q20.6125 287.59064 19.89375 286.7Q19.05 285.6375 19.05 283.21564ZM20.128124 283.21564Q20.128124 285.325 20.628124 286.02814Q21.128124 286.73126 21.846874 286.73126Q22.58125 286.73126 23.065624 286.02814Q23.565624 285.325 23.565624 283.21564Q23.565624 281.09064 23.065624 280.40314Q22.58125 279.7 21.83125 279.7Q21.1125 279.7 20.675 280.3094Q20.128124 281.09064 20.128124 283.21564ZM26.64375 287.45L26.64375 286.2469L27.846874 286.2469L27.846874 287.45L26.64375 287.45ZM29.05 283.21564Q29.05 281.6844 29.3625 280.7625Q29.675 279.825 30.284374 279.325Q30.909374 278.825 31.846874 278.825Q32.534374 278.825 33.05 279.10626Q33.58125 279.3875 33.925 279.91876Q34.26875 280.4344 34.45625 281.1844Q34.64375 281.9344 34.64375 283.21564Q34.64375 284.73126 34.33125 285.65314Q34.034374 286.575 33.409374 287.09064Q32.8 287.59064 31.846874 287.59064Q30.6125 287.59064 29.89375 286.7Q29.05 285.6375 29.05 283.21564ZM30.128124 283.21564Q30.128124 285.325 30.628124 286.02814Q31.128124 286.73126 31.846874 286.73126Q32.58125 286.73126 33.065624 286.02814Q33.565624 285.325 33.565624 283.21564Q33.565624 281.09064 33.065624 280.40314Q32.58125 279.7 31.83125 279.7Q31.1125 279.7 30.675 280.3094Q30.128124 281.09064 30.128124 283.21564ZM36.05 283.21564Q36.05 281.6844 36.3625 280.7625Q36.675 279.825 37.284374 279.325Q37.909374 278.825 38.846874 278.825Q39.534374 278.825 40.05 279.10626Q40.58125 279.3875 40.925 279.91876Q41.26875 280.4344 41.45625 281.1844Q41.64375 281.9344 41.64375 283.21564Q41.64375 284.73126 41.33125 285.65314Q41.034374 286.575 40.409374 287.09064Q39.8 287.59064 38.846874 287.59064Q37.6125 287.59064 36.89375 286.7Q36.05 285.6375 36.05 283.21564ZM37.128124 283.21564Q37.128124 285.325 37.628124 286.02814Q38.128124 286.73126 38.846874 286.73126Q39.58125 286.73126 40.065624 286.02814Q40.565624 285.325 40.565624 283.21564Q40.565624 281.09064 40.065624 280.40314Q39.58125 279.7 38.83125 279.7Q38.1125 279.7 37.675 280.3094Q37.128124 281.09064 37.128124 283.21564Z" fill-rule="nonzero"/><path fill="#000000" d="M19.05 234.42397Q19.05 232.89272 19.3625 231.97084Q19.675 231.03334 20.284374 230.53334Q20.909374 230.03334 21.846874 230.03334Q22.534374 230.03334 23.05 230.31459Q23.58125 230.59584 23.925 231.12709Q24.26875 231.64272 24.45625 232.39272Q24.64375 233.14272 24.64375 234.42397Q24.64375 235.93959 24.33125 236.86147Q24.034374 237.78334 23.409374 238.29897Q22.8 238.79897 21.846874 238.79897Q20.6125 238.79897 19.89375 237.90834Q19.05 236.84584 19.05 234.42397ZM20.128124 234.42397Q20.128124 236.53334 20.628124 237.23647Q21.128124 237.93959 21.846874 237.93959Q22.58125 237.93959 23.065624 237.23647Q23.565624 236.53334 23.565624 234.42397Q23.565624 232.29897 23.065624 231.61147Q22.58125 230.90834 21.83125 230.90834Q21.1125 230.90834 20.675 231.51772Q20.128124 232.29897 20.128124 234.42397ZM26.64375 238.65834L26.64375 237.45522L27.846874 237.45522L27.846874 238.65834L26.64375 238.65834ZM34.596874 237.64272L34.596874 238.65834L28.909374 238.65834Q28.909374 238.28334 29.034374 237.92397Q29.253124 237.34584 29.721874 236.78334Q30.20625 236.22084 31.1125 235.48647Q32.51875 234.33022 33.003124 233.65834Q33.503124 232.98647 33.503124 232.39272Q33.503124 231.76772 33.05 231.34584Q32.596874 230.90834 31.878124 230.90834Q31.1125 230.90834 30.659374 231.36147Q30.20625 231.81459 30.190624 232.62709L29.1125 232.51772Q29.221874 231.29897 29.940624 230.67397Q30.675 230.03334 31.909374 230.03334Q33.14375 230.03334 33.8625 230.72084Q34.58125 231.40834 34.58125 232.42397Q34.58125 232.93959 34.3625 233.43959Q34.159374 233.92397 33.659374 234.48647Q33.175 235.03334 32.05 235.98647Q31.096874 236.78334 30.815624 237.08022Q30.55 237.36147 30.378124 237.64272L34.596874 237.64272ZM36.05 236.40834L37.159374 236.31459Q37.284374 237.12709 37.721874 237.53334Q38.175 237.93959 38.815624 237.93959Q39.565624 237.93959 40.096874 237.36147Q40.628124 236.78334 40.628124 235.84584Q40.628124 234.93959 40.1125 234.42397Q39.6125 233.89272 38.784374 233.89272Q38.284374 233.89272 37.8625 234.12709Q37.45625 234.36147 37.221874 234.72084L36.2375 234.59584L37.065624 230.18959L41.346874 230.18959L41.346874 231.18959L37.909374 231.18959L37.45625 233.50209Q38.221874 232.95522 39.065624 232.95522Q40.190624 232.95522 40.95625 233.73647Q41.7375 234.51772 41.7375 235.75209Q41.7375 236.90834 41.065624 237.76772Q40.2375 238.79897 38.815624 238.79897Q37.64375 238.79897 36.89375 238.14272Q36.159374 237.48647 36.05 236.40834Z" fill-rule="nonzero"/><path fill="#000000" d="M19.05 185.6323Q19.05 184.10104 19.3625 183.17917Q19.675 182.24167 20.284374 181.74167Q20.909374 181.24167 21.846874 181.24167Q22.534374 181.24167 23.05 181.52292Q23.58125 181.80417 23.925 182.33542Q24.26875 182.85104 24.45625 183.60104Q24.64375 184.35104 24.64375 185.6323Q24.64375 187.14792 24.33125 188.0698Q24.034374 188.99167 23.409374 189.5073Q22.8 190.0073 21.846874 190.0073Q20.6125 190.0073 19.89375 189.11667Q19.05 188.05417 19.05 185.6323ZM20.128124 185.6323Q20.128124 187.74167 20.628124 188.4448Q21.128124 189.14792 21.846874 189.14792Q22.58125 189.14792 23.065624 188.4448Q23.565624 187.74167 23.565624 185.6323Q23.565624 183.5073 23.065624 182.8198Q22.58125 182.11667 21.83125 182.11667Q21.1125 182.11667 20.675 182.72604Q20.128124 183.5073 20.128124 185.6323ZM26.64375 189.86667L26.64375 188.66354L27.846874 188.66354L27.846874 189.86667L26.64375 189.86667ZM29.05 187.61667L30.159374 187.52292Q30.284374 188.33542 30.721874 188.74167Q31.175 189.14792 31.815624 189.14792Q32.565624 189.14792 33.096874 188.5698Q33.628124 187.99167 33.628124 187.05417Q33.628124 186.14792 33.1125 185.6323Q32.6125 185.10104 31.784374 185.10104Q31.284374 185.10104 30.8625 185.33542Q30.45625 185.5698 30.221874 185.92917L29.2375 185.80417L30.065624 181.39792L34.346874 181.39792L34.346874 182.39792L30.909374 182.39792L30.45625 184.71042Q31.221874 184.16354 32.065624 184.16354Q33.190624 184.16354 33.95625 184.9448Q34.7375 185.72604 34.7375 186.96042Q34.7375 188.11667 34.065624 188.97604Q33.2375 190.0073 31.815624 190.0073Q30.64375 190.0073 29.89375 189.35104Q29.159374 188.6948 29.05 187.61667ZM36.05 185.6323Q36.05 184.10104 36.3625 183.17917Q36.675 182.24167 37.284374 181.74167Q37.909374 181.24167 38.846874 181.24167Q39.534374 181.24167 40.05 181.52292Q40.58125 181.80417 40.925 182.33542Q41.26875 182.85104 41.45625 183.60104Q41.64375 184.35104 41.64375 185.6323Q41.64375 187.14792 41.33125 188.0698Q41.034374 188.99167 40.409374 189.5073Q39.8 190.0073 38.846874 190.0073Q37.6125 190.0073 36.89375 189.11667Q36.05 188.05417 36.05 185.6323ZM37.128124 185.6323Q37.128124 187.74167 37.628124 188.4448Q38.128124 189.14792 38.846874 189.14792Q39.58125 189.14792 40.065624 188.4448Q40.565624 187.74167 40.565624 185.6323Q40.565624 183.5073 40.065624 182.8198Q39.58125 182.11667 38.83125 182.11667Q38.1125 182.11667 37.675 182.72604Q37.128124 183.5073 37.128124 185.6323Z" fill-rule="nonzero"/><path fill="#000000" d="M19.05 136.84062Q19.05 135.30937 19.3625 134.3875Q19.675 133.45 20.284374 132.95Q20.909374 132.45 21.846874 132.45Q22.534374 132.45 23.05 132.73125Q23.58125 133.0125 23.925 133.54375Q24.26875 134.05937 24.45625 134.80937Q24.64375 135.55937 24.64375 136.84062Q24.64375 138.35625 24.33125 139.27812Q24.034374 140.2 23.409374 140.71562Q22.8 141.21562 21.846874 141.21562Q20.6125 141.21562 19.89375 140.325Q19.05 139.2625 19.05 136.84062ZM20.128124 136.84062Q20.128124 138.95 20.628124 139.65312Q21.128124 140.35625 21.846874 140.35625Q22.58125 140.35625 23.065624 139.65312Q23.565624 138.95 23.565624 136.84062Q23.565624 134.71562 23.065624 134.02812Q22.58125 133.325 21.83125 133.325Q21.1125 133.325 20.675 133.93437Q20.128124 134.71562 20.128124 136.84062ZM26.64375 141.075L26.64375 139.87187L27.846874 139.87187L27.846874 141.075L26.64375 141.075ZM29.1125 133.60625L29.1125 132.59062L34.675 132.59062L34.675 133.41875Q33.8625 134.29375 33.05 135.74687Q32.253124 137.18437 31.815624 138.71562Q31.4875 139.79375 31.409374 141.075L30.315624 141.075Q30.33125 140.05937 30.70625 138.62187Q31.096874 137.18437 31.8 135.85625Q32.51875 134.52812 33.33125 133.60625L29.1125 133.60625ZM36.05 138.825L37.159374 138.73125Q37.284374 139.54375 37.721874 139.95Q38.175 140.35625 38.815624 140.35625Q39.565624 140.35625 40.096874 139.77812Q40.628124 139.2 40.628124 138.2625Q40.628124 137.35625 40.1125 136.84062Q39.6125 136.30937 38.784374 136.30937Q38.284374 136.30937 37.8625 136.54375Q37.45625 136.77812 37.221874 137.1375L36.2375 137.0125L37.065624 132.60625L41.346874 132.60625L41.346874 133.60625L37.909374 133.60625L37.45625 135.91875Q38.221874 135.37187 39.065624 135.37187Q40.190624 135.37187 40.95625 136.15312Q41.7375 136.93437 41.7375 138.16875Q41.7375 139.325 41.065624 140.18437Q40.2375 141.21562 38.815624 141.21562Q37.64375 141.21562 36.89375 140.55937Q36.159374 139.90312 36.05 138.825Z" fill-rule="nonzero"/><path fill="#000000" d="M23.01875 92.28333L21.971874 92.28333L21.971874 85.56458Q21.58125 85.92396 20.95625 86.29896Q20.346874 86.65833 19.8625 86.83021L19.8625 85.81458Q20.7375 85.39271 21.39375 84.81458Q22.065624 84.22083 22.346874 83.65833L23.01875 83.65833L23.01875 92.28333ZM26.64375 92.28333L26.64375 91.08021L27.846874 91.08021L27.846874 92.28333L26.64375 92.28333ZM29.05 88.04896Q29.05 86.51771 29.3625 85.59583Q29.675 84.65833 30.284374 84.15833Q30.909374 83.65833 31.846874 83.65833Q32.534374 83.65833 33.05 83.93958Q33.58125 84.22083 33.925 84.75208Q34.26875 85.26771 34.45625 86.01771Q34.64375 86.76771 34.64375 88.04896Q34.64375 89.56458 34.33125 90.48646Q34.034374 91.40833 33.409374 91.92396Q32.8 92.42396 31.846874 92.42396Q30.6125 92.42396 29.89375 91.53333Q29.05 90.47083 29.05 88.04896ZM30.128124 88.04896Q30.128124 90.15833 30.628124 90.86146Q31.128124 91.56458 31.846874 91.56458Q32.58125 91.56458 33.065624 90.86146Q33.565624 90.15833 33.565624 88.04896Q33.565624 85.92396 33.065624 85.23646Q32.58125 84.53333 31.83125 84.53333Q31.1125 84.53333 30.675 85.14271Q30.128124 85.92396 30.128124 88.04896ZM36.05 88.04896Q36.05 86.51771 36.3625 85.59583Q36.675 84.65833 37.284374 84.15833Q37.909374 83.65833 38.846874 83.65833Q39.534374 83.65833 40.05 83.93958Q40.58125 84.22083 40.925 84.75208Q41.26875 85.26771 41.45625 86.01771Q41.64375 86.76771 41.64375 88.04896Q41.64375 89.56458 41.33125 90.48646Q41.034374 91.40833 40.409374 91.92396Q39.8 92.42396 38.846874 92.42396Q37.6125 92.42396 36.89375 91.53333Q36.05 90.47083 36.05 88.04896ZM37.128124 88.04896Q37.128124 90.15833 37.628124 90.86146Q38.128124 91.56458 38.846874 91.56458Q39.58125 91.56458 40.065624 90.86146Q40.565624 90.15833 40.565624 88.04896Q40.565624 85.92396 40.065624 85.23646Q39.58125 84.53333 38.83125 84.53333Q38.1125 84.53333 37.675 85.14271Q37.128124 85.92396 37.128124 88.04896Z" fill-rule="nonzero"/><path fill="#000000" d="M120.68535 306.45L120.68535 297.85626L123.91972 297.85626Q124.9041 297.85626 125.49785 298.1219Q126.0916 298.3875 126.41972 298.9344Q126.76347 299.46564 126.76347 300.0594Q126.76347 300.60626 126.4666 301.09064Q126.16972 301.575 125.56035 301.8719Q126.3416 302.10626 126.74785 302.66876Q127.16972 303.21564 127.16972 303.96564Q127.16972 304.5594 126.91972 305.09064Q126.66972 305.60626 126.29472 305.8875Q125.91972 306.16876 125.3416 306.3094Q124.7791 306.45 123.9666 306.45L120.68535 306.45ZM121.82597 301.46564L123.68535 301.46564Q124.43535 301.46564 124.76347 301.3719Q125.20097 301.2469 125.41972 300.95Q125.63847 300.6375 125.63847 300.1844Q125.63847 299.7625 125.43535 299.4344Q125.23222 299.10626 124.8416 298.9969Q124.4666 298.8719 123.54472 298.8719L121.82597 298.8719L121.82597 301.46564ZM121.82597 305.4344L123.9666 305.4344Q124.51347 305.4344 124.73222 305.3875Q125.13847 305.325 125.38847 305.16876Q125.6541 304.9969 125.82597 304.6844Q125.99785 304.3719 125.99785 303.96564Q125.99785 303.48126 125.74785 303.1219Q125.51347 302.7625 125.07597 302.6219Q124.63847 302.48126 123.81035 302.48126L121.82597 302.48126L121.82597 305.4344ZM128.2166 303.34064Q128.2166 301.60626 129.16972 300.77814Q129.9666 300.09064 131.12285 300.09064Q132.4041 300.09064 133.2166 300.9344Q134.04472 301.7625 134.04472 303.2469Q134.04472 304.45 133.68535 305.1375Q133.32597 305.825 132.62285 306.21564Q131.93535 306.59064 131.12285 306.59064Q129.82597 306.59064 129.01347 305.7625Q128.2166 304.91876 128.2166 303.34064ZM129.29472 303.34064Q129.29472 304.52814 129.81035 305.1219Q130.3416 305.71564 131.12285 305.71564Q131.91972 305.71564 132.43535 305.1219Q132.95097 304.52814 132.95097 303.3094Q132.95097 302.15314 132.41972 301.5594Q131.9041 300.96564 131.12285 300.96564Q130.3416 300.96564 129.81035 301.5594Q129.29472 302.1375 129.29472 303.34064ZM139.66972 305.6844Q139.07597 306.1844 138.5291 306.3875Q137.99785 306.59064 137.37285 306.59064Q136.3416 306.59064 135.79472 306.09064Q135.24785 305.59064 135.24785 304.8094Q135.24785 304.35626 135.45097 303.98126Q135.6541 303.59064 135.99785 303.3719Q136.3416 303.1375 136.76347 303.02814Q137.06035 302.9344 137.70097 302.85626Q138.9666 302.71564 139.57597 302.4969Q139.57597 302.27814 139.57597 302.23126Q139.57597 301.575 139.2791 301.3094Q138.87285 300.96564 138.07597 300.96564Q137.3416 300.96564 136.98222 301.23126Q136.62285 301.48126 136.45097 302.1375L135.41972 301.9969Q135.56035 301.34064 135.88847 300.9344Q136.2166 300.52814 136.82597 300.3094Q137.43535 300.09064 138.23222 300.09064Q139.0291 300.09064 139.5291 300.27814Q140.0291 300.46564 140.26347 300.7469Q140.49785 301.02814 140.5916 301.46564Q140.63847 301.73126 140.63847 302.4344L140.63847 303.84064Q140.63847 305.3094 140.70097 305.7Q140.7791 306.09064 140.98222 306.45L139.87285 306.45Q139.7166 306.1219 139.66972 305.6844ZM139.57597 303.325Q138.99785 303.5594 137.85722 303.73126Q137.20097 303.825 136.93535 303.95Q136.66972 304.0594 136.51347 304.27814Q136.37285 304.4969 136.37285 304.77814Q136.37285 305.2 136.68535 305.48126Q137.01347 305.7625 137.62285 305.7625Q138.23222 305.7625 138.70097 305.4969Q139.18535 305.23126 139.4041 304.7625Q139.57597 304.40314 139.57597 303.71564L139.57597 303.325ZM142.5916 306.45L142.5916 300.23126L143.54472 300.23126L143.54472 301.16876Q143.9041 300.5125 144.20097 300.3094Q144.51347 300.09064 144.88847 300.09064Q145.41972 300.09064 145.9666 300.41876L145.60722 301.40314Q145.2166 301.16876 144.8416 301.16876Q144.48222 301.16876 144.20097 301.3875Q143.93535 301.59064 143.82597 301.96564Q143.63847 302.52814 143.63847 303.1844L143.63847 306.45L142.5916 306.45ZM150.63847 306.45L150.63847 305.66876Q150.04472 306.59064 148.9041 306.59064Q148.1541 306.59064 147.5291 306.1844Q146.9041 305.7625 146.56035 305.02814Q146.2166 304.29376 146.2166 303.34064Q146.2166 302.41876 146.5291 301.65314Q146.8416 300.8875 147.4666 300.4969Q148.0916 300.09064 148.85722 300.09064Q149.41972 300.09064 149.85722 300.325Q150.29472 300.5594 150.57597 300.9344L150.57597 297.85626L151.62285 297.85626L151.62285 306.45L150.63847 306.45ZM147.31035 303.34064Q147.31035 304.54376 147.81035 305.1375Q148.31035 305.71564 148.99785 305.71564Q149.68535 305.71564 150.16972 305.15314Q150.6541 304.59064 150.6541 303.4344Q150.6541 302.15314 150.1541 301.5594Q149.66972 300.96564 148.95097 300.96564Q148.24785 300.96564 147.7791 301.54376Q147.31035 302.10626 147.31035 303.34064Z" fill-rule="nonzero"/><path fill="#000000" d="M215.31178 306.45L215.31178 297.85626L218.54616 297.85626Q219.53053 297.85626 220.12428 298.1219Q220.71803 298.3875 221.04616 298.9344Q221.38991 299.46564 221.38991 300.0594Q221.38991 300.60626 221.09303 301.09064Q220.79616 301.575 220.18678 301.8719Q220.96803 302.10626 221.37428 302.66876Q221.79616 303.21564 221.79616 303.96564Q221.79616 304.5594 221.54616 305.09064Q221.29616 305.60626 220.92116 305.8875Q220.54616 306.16876 219.96803 306.3094Q219.40553 306.45 218.59303 306.45L215.31178 306.45ZM216.45241 301.46564L218.31178 301.46564Q219.06178 301.46564 219.38991 301.3719Q219.82741 301.2469 220.04616 300.95Q220.26491 300.6375 220.26491 300.1844Q220.26491 299.7625 220.06178 299.4344Q219.85866 299.10626 219.46803 298.9969Q219.09303 298.8719 218.17116 298.8719L216.45241 298.8719L216.45241 301.46564ZM216.45241 305.4344L218.59303 305.4344Q219.13991 305.4344 219.35866 305.3875Q219.76491 305.325 220.01491 305.16876Q220.28053 304.9969 220.45241 304.6844Q220.62428 304.3719 220.62428 303.96564Q220.62428 303.48126 220.37428 303.1219Q220.13991 302.7625 219.70241 302.6219Q219.26491 302.48126 218.43678 302.48126L216.45241 302.48126L216.45241 305.4344ZM222.84303 303.34064Q222.84303 301.60626 223.79616 300.77814Q224.59303 300.09064 225.74928 300.09064Q227.03053 300.09064 227.84303 300.9344Q228.67116 301.7625 228.67116 303.2469Q228.67116 304.45 228.31178 305.1375Q227.95241 305.825 227.24928 306.21564Q226.56178 306.59064 225.74928 306.59064Q224.45241 306.59064 223.63991 305.7625Q222.84303 304.91876 222.84303 303.34064ZM223.92116 303.34064Q223.92116 304.52814 224.43678 305.1219Q224.96803 305.71564 225.74928 305.71564Q226.54616 305.71564 227.06178 305.1219Q227.57741 304.52814 227.57741 303.3094Q227.57741 302.15314 227.04616 301.5594Q226.53053 300.96564 225.74928 300.96564Q224.96803 300.96564 224.43678 301.5594Q223.92116 302.1375 223.92116 303.34064ZM234.29616 305.6844Q233.70241 306.1844 233.15553 306.3875Q232.62428 306.59064 231.99928 306.59064Q230.96803 306.59064 230.42116 306.09064Q229.87428 305.59064 229.87428 304.8094Q229.87428 304.35626 230.07741 303.98126Q230.28053 303.59064 230.62428 303.3719Q230.96803 303.1375 231.38991 303.02814Q231.68678 302.9344 232.32741 302.85626Q233.59303 302.71564 234.20241 302.4969Q234.20241 302.27814 234.20241 302.23126Q234.20241 301.575 233.90553 301.3094Q233.49928 300.96564 232.70241 300.96564Q231.96803 300.96564 231.60866 301.23126Q231.24928 301.48126 231.07741 302.1375L230.04616 301.9969Q230.18678 301.34064 230.51491 300.9344Q230.84303 300.52814 231.45241 300.3094Q232.06178 300.09064 232.85866 300.09064Q233.65553 300.09064 234.15553 300.27814Q234.65553 300.46564 234.88991 300.7469Q235.12428 301.02814 235.21803 301.46564Q235.26491 301.73126 235.26491 302.4344L235.26491 303.84064Q235.26491 305.3094 235.32741 305.7Q235.40553 306.09064 235.60866 306.45L234.49928 306.45Q234.34303 306.1219 234.29616 305.6844ZM234.20241 303.325Q233.62428 303.5594 232.48366 303.73126Q231.82741 303.825 231.56178 303.95Q231.29616 304.0594 231.13991 304.27814Q230.99928 304.4969 230.99928 304.77814Q230.99928 305.2 231.31178 305.48126Q231.63991 305.7625 232.24928 305.7625Q232.85866 305.7625 233.32741 305.4969Q233.81178 305.23126 234.03053 304.7625Q234.20241 304.40314 234.20241 303.71564L234.20241 303.325ZM237.21803 306.45L237.21803 300.23126L238.17116 300.23126L238.17116 301.16876Q238.53053 300.5125 238.82741 300.3094Q239.13991 300.09064 239.51491 300.09064Q240.04616 300.09064 240.59303 300.41876L240.23366 301.40314Q239.84303 301.16876 239.46803 301.16876Q239.10866 301.16876 238.82741 301.3875Q238.56178 301.59064 238.45241 301.96564Q238.26491 302.52814 238.26491 303.1844L238.26491 306.45L237.21803 306.45ZM245.26491 306.45L245.26491 305.66876Q244.67116 306.59064 243.53053 306.59064Q242.78053 306.59064 242.15553 306.1844Q241.53053 305.7625 241.18678 305.02814Q240.84303 304.29376 240.84303 303.34064Q240.84303 302.41876 241.15553 301.65314Q241.46803 300.8875 242.09303 300.4969Q242.71803 300.09064 243.48366 300.09064Q244.04616 300.09064 244.48366 300.325Q244.92116 300.5594 245.20241 300.9344L245.20241 297.85626L246.24928 297.85626L246.24928 306.45L245.26491 306.45ZM241.93678 303.34064Q241.93678 304.54376 242.43678 305.1375Q242.93678 305.71564 243.62428 305.71564Q244.31178 305.71564 244.79616 305.15314Q245.28053 304.59064 245.28053 303.4344Q245.28053 302.15314 244.78053 301.5594Q244.29616 300.96564 243.57741 300.96564Q242.87428 300.96564 242.40553 301.54376Q241.93678 302.10626 241.93678 303.34064ZM247.81178 303.8719L247.81178 302.8094L251.06178 302.8094L251.06178 303.8719L247.81178 303.8719ZM252.01491 302.2625Q252.01491 300.1219 253.15553 298.91876Q254.31178 297.7 256.12427 297.7Q257.3274 297.7 258.28052 298.27814Q259.23364 298.84064 259.73364 299.85626Q260.23364 300.8719 260.23364 302.16876Q260.23364 303.46564 259.7024 304.4969Q259.17114 305.52814 258.2024 306.0594Q257.24927 306.59064 256.12427 306.59064Q254.90553 306.59064 253.95241 306.0125Q252.99928 305.41876 252.49928 304.41876Q252.01491 303.40314 252.01491 302.2625ZM253.18678 302.27814Q253.18678 303.84064 254.01491 304.73126Q254.85866 305.6219 256.12427 305.6219Q257.40552 305.6219 258.23364 304.73126Q259.06177 303.825 259.06177 302.15314Q259.06177 301.10626 258.7024 300.325Q258.35864 299.54376 257.67114 299.1219Q256.98364 298.6844 256.1399 298.6844Q254.93678 298.6844 254.06178 299.5125Q253.18678 300.34064 253.18678 302.27814ZM262.2024 306.45L261.21802 306.45L261.21802 297.85626L262.28052 297.85626L262.28052 300.91876Q262.9524 300.09064 263.98364 300.09064Q264.56177 300.09064 265.06177 300.325Q265.5774 300.54376 265.90552 300.96564Q266.24927 301.3875 266.43677 301.98126Q266.62427 302.575 266.62427 303.2469Q266.62427 304.84064 265.8274 305.71564Q265.03052 306.59064 263.93677 306.59064Q262.8274 306.59064 262.2024 305.66876L262.2024 306.45ZM262.18677 303.29376Q262.18677 304.40314 262.49927 304.90314Q262.99927 305.71564 263.84302 305.71564Q264.53052 305.71564 265.03052 305.1219Q265.54614 304.52814 265.54614 303.325Q265.54614 302.10626 265.06177 301.52814Q264.5774 300.95 263.8899 300.95Q263.2024 300.95 262.68677 301.5594Q262.18677 302.15314 262.18677 303.29376ZM267.81177 304.59064L268.84302 304.4344Q268.93677 305.0594 269.3274 305.3875Q269.73364 305.71564 270.46802 305.71564Q271.18677 305.71564 271.53052 305.4344Q271.8899 305.1375 271.8899 304.73126Q271.8899 304.3719 271.5774 304.16876Q271.35864 304.02814 270.49927 303.8094Q269.34302 303.5125 268.8899 303.3094Q268.4524 303.09064 268.21802 302.71564Q267.98364 302.34064 267.98364 301.8719Q267.98364 301.46564 268.17114 301.10626Q268.35864 300.7469 268.68677 300.5125Q268.93677 300.34064 269.35864 300.21564Q269.78052 300.09064 270.28052 300.09064Q270.99927 300.09064 271.54614 300.3094Q272.10864 300.5125 272.37427 300.8719Q272.6399 301.23126 272.73364 301.825L271.7024 301.96564Q271.6399 301.4969 271.29614 301.23126Q270.96802 300.95 270.34302 300.95Q269.62427 300.95 269.31177 301.2Q268.99927 301.4344 268.99927 301.7625Q268.99927 301.96564 269.12427 302.1219Q269.2649 302.29376 269.53052 302.40314Q269.68677 302.46564 270.46802 302.66876Q271.59302 302.98126 272.03052 303.16876Q272.46802 303.35626 272.71802 303.71564Q272.96802 304.075 272.96802 304.6219Q272.96802 305.15314 272.65552 305.6219Q272.35864 306.075 271.78052 306.34064Q271.2024 306.59064 270.46802 306.59064Q269.24927 306.59064 268.60864 306.09064Q267.98364 305.575 267.81177 304.59064ZM277.53052 305.5125L277.68677 306.4344Q277.23364 306.52814 276.8899 306.52814Q276.31177 306.52814 275.99927 306.35626Q275.68677 306.16876 275.54614 305.8719Q275.42114 305.575 275.42114 304.6219L275.42114 301.04376L274.65552 301.04376L274.65552 300.23126L275.42114 300.23126L275.42114 298.6844L276.46802 298.0594L276.46802 300.23126L277.53052 300.23126L277.53052 301.04376L276.46802 301.04376L276.46802 304.6844Q276.46802 305.1375 276.5149 305.2625Q276.5774 305.3875 276.7024 305.46564Q276.8274 305.54376 277.06177 305.54376Q277.24927 305.54376 277.53052 305.5125ZM282.29614 305.6844Q281.7024 306.1844 281.15552 306.3875Q280.62427 306.59064 279.99927 306.59064Q278.96802 306.59064 278.42114 306.09064Q277.87427 305.59064 277.87427 304.8094Q277.87427 304.35626 278.0774 303.98126Q278.28052 303.59064 278.62427 303.3719Q278.96802 303.1375 279.3899 303.02814Q279.68677 302.9344 280.3274 302.85626Q281.59302 302.71564 282.2024 302.4969Q282.2024 302.27814 282.2024 302.23126Q282.2024 301.575 281.90552 301.3094Q281.49927 300.96564 280.7024 300.96564Q279.96802 300.96564 279.60864 301.23126Q279.24927 301.48126 279.0774 302.1375L278.04614 301.9969Q278.18677 301.34064 278.5149 300.9344Q278.84302 300.52814 279.4524 300.3094Q280.06177 300.09064 280.85864 300.09064Q281.65552 300.09064 282.15552 300.27814Q282.65552 300.46564 282.8899 300.7469Q283.12427 301.02814 283.21802 301.46564Q283.2649 301.73126 283.2649 302.4344L283.2649 303.84064Q283.2649 305.3094 283.3274 305.7Q283.40552 306.09064 283.60864 306.45L282.49927 306.45Q282.34302 306.1219 282.29614 305.6844ZM282.2024 303.325Q281.62427 303.5594 280.48364 303.73126Q279.8274 303.825 279.56177 303.95Q279.29614 304.0594 279.1399 304.27814Q278.99927 304.4969 278.99927 304.77814Q278.99927 305.2 279.31177 305.48126Q279.6399 305.7625 280.24927 305.7625Q280.85864 305.7625 281.3274 305.4969Q281.81177 305.23126 282.03052 304.7625Q282.2024 304.40314 282.2024 303.71564L282.2024 303.325ZM289.29614 304.16876L290.3274 304.3094Q290.15552 305.3719 289.4524 305.98126Q288.74927 306.59064 287.73364 306.59064Q286.4524 306.59064 285.67114 305.7625Q284.90552 304.91876 284.90552 303.35626Q284.90552 302.35626 285.23364 301.60626Q285.5774 300.84064 286.24927 300.46564Q286.93677 300.09064 287.74927 300.09064Q288.74927 300.09064 289.3899 300.60626Q290.04614 301.10626 290.23364 302.0594L289.2024 302.21564Q289.06177 301.59064 288.68677 301.27814Q288.31177 300.95 287.78052 300.95Q286.98364 300.95 286.48364 301.52814Q285.98364 302.09064 285.98364 303.325Q285.98364 304.59064 286.46802 305.15314Q286.9524 305.71564 287.71802 305.71564Q288.34302 305.71564 288.74927 305.34064Q289.17114 304.96564 289.29614 304.16876ZM291.2024 306.45L291.2024 297.85626L292.2649 297.85626L292.2649 306.45L291.2024 306.45ZM298.48364 304.45L299.5774 304.575Q299.3274 305.52814 298.62427 306.0594Q297.92114 306.59064 296.84302 306.59064Q295.48364 306.59064 294.67114 305.7469Q293.87427 304.90314 293.87427 303.3875Q293.87427 301.825 294.68677 300.96564Q295.49927 300.09064 296.78052 300.09064Q298.03052 300.09064 298.81177 300.9344Q299.60864 301.77814 299.60864 303.325Q299.60864 303.41876 299.60864 303.60626L294.96802 303.60626Q295.03052 304.6375 295.54614 305.1844Q296.06177 305.71564 296.84302 305.71564Q297.42114 305.71564 297.8274 305.41876Q298.24927 305.10626 298.48364 304.45ZM295.03052 302.7469L298.49927 302.7469Q298.43677 301.95 298.10864 301.5594Q297.59302 300.95 296.79614 300.95Q296.06177 300.95 295.56177 301.4344Q295.0774 301.91876 295.03052 302.7469Z" fill-rule="nonzero"/><path fill="#000000" d="M353.1726 306.45L353.1726 298.8719L350.34448 298.8719L350.34448 297.85626L357.15698 297.85626L357.15698 298.8719L354.31323 298.8719L354.31323 306.45L353.1726 306.45ZM361.9226 305.6844Q361.32886 306.1844 360.78198 306.3875Q360.25073 306.59064 359.62573 306.59064Q358.59448 306.59064 358.0476 306.09064Q357.50073 305.59064 357.50073 304.8094Q357.50073 304.35626 357.70386 303.98126Q357.90698 303.59064 358.25073 303.3719Q358.59448 303.1375 359.01636 303.02814Q359.31323 302.9344 359.95386 302.85626Q361.21948 302.71564 361.82886 302.4969Q361.82886 302.27814 361.82886 302.23126Q361.82886 301.575 361.53198 301.3094Q361.12573 300.96564 360.32886 300.96564Q359.59448 300.96564 359.2351 301.23126Q358.87573 301.48126 358.70386 302.1375L357.6726 301.9969Q357.81323 301.34064 358.14136 300.9344Q358.46948 300.52814 359.07886 300.3094Q359.68823 300.09064 360.4851 300.09064Q361.28198 300.09064 361.78198 300.27814Q362.28198 300.46564 362.51636 300.7469Q362.75073 301.02814 362.84448 301.46564Q362.89136 301.73126 362.89136 302.4344L362.89136 303.84064Q362.89136 305.3094 362.95386 305.7Q363.03198 306.09064 363.2351 306.45L362.12573 306.45Q361.96948 306.1219 361.9226 305.6844ZM361.82886 303.325Q361.25073 303.5594 360.1101 303.73126Q359.45386 303.825 359.18823 303.95Q358.9226 304.0594 358.76636 304.27814Q358.62573 304.4969 358.62573 304.77814Q358.62573 305.2 358.93823 305.48126Q359.26636 305.7625 359.87573 305.7625Q360.4851 305.7625 360.95386 305.4969Q361.43823 305.23126 361.65698 304.7625Q361.82886 304.40314 361.82886 303.71564L361.82886 303.325ZM365.82886 306.45L364.84448 306.45L364.84448 297.85626L365.90698 297.85626L365.90698 300.91876Q366.57886 300.09064 367.6101 300.09064Q368.18823 300.09064 368.68823 300.325Q369.20386 300.54376 369.53198 300.96564Q369.87573 301.3875 370.06323 301.98126Q370.25073 302.575 370.25073 303.2469Q370.25073 304.84064 369.45386 305.71564Q368.65698 306.59064 367.56323 306.59064Q366.45386 306.59064 365.82886 305.66876L365.82886 306.45ZM365.81323 303.29376Q365.81323 304.40314 366.12573 304.90314Q366.62573 305.71564 367.46948 305.71564Q368.15698 305.71564 368.65698 305.1219Q369.1726 304.52814 369.1726 303.325Q369.1726 302.10626 368.68823 301.52814Q368.20386 300.95 367.51636 300.95Q366.82886 300.95 366.31323 301.5594Q365.81323 302.15314 365.81323 303.29376ZM371.82886 306.45L371.82886 297.85626L372.89136 297.85626L372.89136 306.45L371.82886 306.45ZM379.1101 304.45L380.20386 304.575Q379.95386 305.52814 379.25073 306.0594Q378.5476 306.59064 377.46948 306.59064Q376.1101 306.59064 375.2976 305.7469Q374.50073 304.90314 374.50073 303.3875Q374.50073 301.825 375.31323 300.96564Q376.12573 300.09064 377.40698 300.09064Q378.65698 300.09064 379.43823 300.9344Q380.2351 301.77814 380.2351 303.325Q380.2351 303.41876 380.2351 303.60626L375.59448 303.60626Q375.65698 304.6375 376.1726 305.1844Q376.68823 305.71564 377.46948 305.71564Q378.0476 305.71564 378.45386 305.41876Q378.87573 305.10626 379.1101 304.45ZM375.65698 302.7469L379.12573 302.7469Q379.06323 301.95 378.7351 301.5594Q378.21948 300.95 377.4226 300.95Q376.68823 300.95 376.18823 301.4344Q375.70386 301.91876 375.65698 302.7469ZM381.43823 303.8719L381.43823 302.8094L384.68823 302.8094L384.68823 303.8719L381.43823 303.8719ZM385.93823 306.45L385.93823 297.85626L389.1726 297.85626Q390.15698 297.85626 390.75073 298.1219Q391.34448 298.3875 391.6726 298.9344Q392.01636 299.46564 392.01636 300.0594Q392.01636 300.60626 391.71948 301.09064Q391.4226 301.575 390.81323 301.8719Q391.59448 302.10626 392.00073 302.66876Q392.4226 303.21564 392.4226 303.96564Q392.4226 304.5594 392.1726 305.09064Q391.9226 305.60626 391.5476 305.8875Q391.1726 306.16876 390.59448 306.3094Q390.03198 306.45 389.21948 306.45L385.93823 306.45ZM387.07886 301.46564L388.93823 301.46564Q389.68823 301.46564 390.01636 301.3719Q390.45386 301.2469 390.6726 300.95Q390.89136 300.6375 390.89136 300.1844Q390.89136 299.7625 390.68823 299.4344Q390.4851 299.10626 390.09448 298.9969Q389.71948 298.8719 388.7976 298.8719L387.07886 298.8719L387.07886 301.46564ZM387.07886 305.4344L389.21948 305.4344Q389.76636 305.4344 389.9851 305.3875Q390.39136 305.325 390.64136 305.16876Q390.90698 304.9969 391.07886 304.6844Q391.25073 304.3719 391.25073 303.96564Q391.25073 303.48126 391.00073 303.1219Q390.76636 302.7625 390.32886 302.6219Q389.89136 302.48126 389.06323 302.48126L387.07886 302.48126L387.07886 305.4344ZM397.9226 305.6844Q397.32886 306.1844 396.78198 306.3875Q396.25073 306.59064 395.62573 306.59064Q394.59448 306.59064 394.0476 306.09064Q393.50073 305.59064 393.50073 304.8094Q393.50073 304.35626 393.70386 303.98126Q393.90698 303.59064 394.25073 303.3719Q394.59448 303.1375 395.01636 303.02814Q395.31323 302.9344 395.95386 302.85626Q397.21948 302.71564 397.82886 302.4969Q397.82886 302.27814 397.82886 302.23126Q397.82886 301.575 397.53198 301.3094Q397.12573 300.96564 396.32886 300.96564Q395.59448 300.96564 395.2351 301.23126Q394.87573 301.48126 394.70386 302.1375L393.6726 301.9969Q393.81323 301.34064 394.14136 300.9344Q394.46948 300.52814 395.07886 300.3094Q395.68823 300.09064 396.4851 300.09064Q397.28198 300.09064 397.78198 300.27814Q398.28198 300.46564 398.51636 300.7469Q398.75073 301.02814 398.84448 301.46564Q398.89136 301.73126 398.89136 302.4344L398.89136 303.84064Q398.89136 305.3094 398.95386 305.7Q399.03198 306.09064 399.2351 306.45L398.12573 306.45Q397.96948 306.1219 397.9226 305.6844ZM397.82886 303.325Q397.25073 303.5594 396.1101 303.73126Q395.45386 303.825 395.18823 303.95Q394.9226 304.0594 394.76636 304.27814Q394.62573 304.4969 394.62573 304.77814Q394.62573 305.2 394.93823 305.48126Q395.26636 305.7625 395.87573 305.7625Q396.4851 305.7625 396.95386 305.4969Q397.43823 305.23126 397.65698 304.7625Q397.82886 304.40314 397.82886 303.71564L397.82886 303.325ZM400.65698 306.96564L401.68823 307.1219Q401.75073 307.59064 402.0476 307.8094Q402.43823 308.10626 403.1101 308.10626Q403.84448 308.10626 404.2351 307.8094Q404.64136 307.5125 404.78198 306.9969Q404.87573 306.66876 404.8601 305.6375Q404.1726 306.45 403.14136 306.45Q401.8601 306.45 401.15698 305.52814Q400.45386 304.59064 400.45386 303.3094Q400.45386 302.41876 400.76636 301.66876Q401.09448 300.90314 401.70386 300.4969Q402.31323 300.09064 403.14136 300.09064Q404.25073 300.09064 404.96948 300.98126L404.96948 300.23126L405.93823 300.23126L405.93823 305.60626Q405.93823 307.0594 405.64136 307.66876Q405.34448 308.27814 404.70386 308.6219Q404.06323 308.98126 403.12573 308.98126Q402.01636 308.98126 401.32886 308.48126Q400.64136 307.98126 400.65698 306.96564ZM401.53198 303.23126Q401.53198 304.45 402.01636 305.0125Q402.50073 305.575 403.2351 305.575Q403.96948 305.575 404.45386 305.0125Q404.95386 304.45 404.95386 303.2625Q404.95386 302.1219 404.43823 301.54376Q403.93823 300.96564 403.21948 300.96564Q402.51636 300.96564 402.01636 301.54376Q401.53198 302.10626 401.53198 303.23126Z" fill-rule="nonzero"/><path fill="#000000" d="M473.79904 306.45L473.79904 298.8719L470.97092 298.8719L470.97092 297.85626L477.78342 297.85626L477.78342 298.8719L474.93967 298.8719L474.93967 306.45L473.79904 306.45ZM482.54904 305.6844Q481.9553 306.1844 481.40842 306.3875Q480.87717 306.59064 480.25217 306.59064Q479.22092 306.59064 478.67404 306.09064Q478.12717 305.59064 478.12717 304.8094Q478.12717 304.35626 478.3303 303.98126Q478.53342 303.59064 478.87717 303.3719Q479.22092 303.1375 479.6428 303.02814Q479.93967 302.9344 480.5803 302.85626Q481.84592 302.71564 482.4553 302.4969Q482.4553 302.27814 482.4553 302.23126Q482.4553 301.575 482.15842 301.3094Q481.75217 300.96564 480.9553 300.96564Q480.22092 300.96564 479.86154 301.23126Q479.50217 301.48126 479.3303 302.1375L478.29904 301.9969Q478.43967 301.34064 478.7678 300.9344Q479.09592 300.52814 479.7053 300.3094Q480.31467 300.09064 481.11154 300.09064Q481.90842 300.09064 482.40842 300.27814Q482.90842 300.46564 483.1428 300.7469Q483.37717 301.02814 483.47092 301.46564Q483.5178 301.73126 483.5178 302.4344L483.5178 303.84064Q483.5178 305.3094 483.5803 305.7Q483.65842 306.09064 483.86154 306.45L482.75217 306.45Q482.59592 306.1219 482.54904 305.6844ZM482.4553 303.325Q481.87717 303.5594 480.73654 303.73126Q480.0803 303.825 479.81467 303.95Q479.54904 304.0594 479.3928 304.27814Q479.25217 304.4969 479.25217 304.77814Q479.25217 305.2 479.56467 305.48126Q479.8928 305.7625 480.50217 305.7625Q481.11154 305.7625 481.5803 305.4969Q482.06467 305.23126 482.28342 304.7625Q482.4553 304.40314 482.4553 303.71564L482.4553 303.325ZM486.4553 306.45L485.47092 306.45L485.47092 297.85626L486.53342 297.85626L486.53342 300.91876Q487.2053 300.09064 488.23654 300.09064Q488.81467 300.09064 489.31467 300.325Q489.8303 300.54376 490.15842 300.96564Q490.50217 301.3875 490.68967 301.98126Q490.87717 302.575 490.87717 303.2469Q490.87717 304.84064 490.0803 305.71564Q489.28342 306.59064 488.18967 306.59064Q487.0803 306.59064 486.4553 305.66876L486.4553 306.45ZM486.43967 303.29376Q486.43967 304.40314 486.75217 304.90314Q487.25217 305.71564 488.09592 305.71564Q488.78342 305.71564 489.28342 305.1219Q489.79904 304.52814 489.79904 303.325Q489.79904 302.10626 489.31467 301.52814Q488.8303 300.95 488.1428 300.95Q487.4553 300.95 486.93967 301.5594Q486.43967 302.15314 486.43967 303.29376ZM492.4553 306.45L492.4553 297.85626L493.5178 297.85626L493.5178 306.45L492.4553 306.45ZM499.73654 304.45L500.8303 304.575Q500.5803 305.52814 499.87717 306.0594Q499.17404 306.59064 498.09592 306.59064Q496.73654 306.59064 495.92404 305.7469Q495.12717 304.90314 495.12717 303.3875Q495.12717 301.825 495.93967 300.96564Q496.75217 300.09064 498.03342 300.09064Q499.28342 300.09064 500.06467 300.9344Q500.86154 301.77814 500.86154 303.325Q500.86154 303.41876 500.86154 303.60626L496.22092 303.60626Q496.28342 304.6375 496.79904 305.1844Q497.31467 305.71564 498.09592 305.71564Q498.67404 305.71564 499.0803 305.41876Q499.50217 305.10626 499.73654 304.45ZM496.28342 302.7469L499.75217 302.7469Q499.68967 301.95 499.36154 301.5594Q498.84592 300.95 498.04904 300.95Q497.31467 300.95 496.81467 301.4344Q496.3303 301.91876 496.28342 302.7469ZM502.06467 303.8719L502.06467 302.8094L505.31467 302.8094L505.31467 303.8719L502.06467 303.8719ZM508.79904 306.45L508.79904 298.8719L505.97092 298.8719L505.97092 297.85626L512.78345 297.85626L512.78345 298.8719L509.93967 298.8719L509.93967 306.45L508.79904 306.45ZM513.47095 306.45L513.47095 300.23126L514.4241 300.23126L514.4241 301.16876Q514.78345 300.5125 515.0803 300.3094Q515.3928 300.09064 515.7678 300.09064Q516.2991 300.09064 516.84595 300.41876L516.4866 301.40314Q516.09595 301.16876 515.72095 301.16876Q515.3616 301.16876 515.0803 301.3875Q514.8147 301.59064 514.7053 301.96564Q514.5178 302.52814 514.5178 303.1844L514.5178 306.45L513.47095 306.45ZM521.5491 305.6844Q520.9553 306.1844 520.40845 306.3875Q519.8772 306.59064 519.2522 306.59064Q518.22095 306.59064 517.6741 306.09064Q517.1272 305.59064 517.1272 304.8094Q517.1272 304.35626 517.3303 303.98126Q517.53345 303.59064 517.8772 303.3719Q518.22095 303.1375 518.6428 303.02814Q518.9397 302.9344 519.5803 302.85626Q520.84595 302.71564 521.4553 302.4969Q521.4553 302.27814 521.4553 302.23126Q521.4553 301.575 521.15845 301.3094Q520.7522 300.96564 519.9553 300.96564Q519.22095 300.96564 518.8616 301.23126Q518.5022 301.48126 518.3303 302.1375L517.2991 301.9969Q517.4397 301.34064 517.7678 300.9344Q518.09595 300.52814 518.7053 300.3094Q519.3147 300.09064 520.1116 300.09064Q520.90845 300.09064 521.40845 300.27814Q521.90845 300.46564 522.1428 300.7469Q522.3772 301.02814 522.47095 301.46564Q522.5178 301.73126 522.5178 302.4344L522.5178 303.84064Q522.5178 305.3094 522.5803 305.7Q522.65845 306.09064 522.8616 306.45L521.7522 306.45Q521.59595 306.1219 521.5491 305.6844ZM521.4553 303.325Q520.8772 303.5594 519.7366 303.73126Q519.0803 303.825 518.8147 303.95Q518.5491 304.0594 518.3928 304.27814Q518.2522 304.4969 518.2522 304.77814Q518.2522 305.2 518.5647 305.48126Q518.8928 305.7625 519.5022 305.7625Q520.1116 305.7625 520.5803 305.4969Q521.0647 305.23126 521.28345 304.7625Q521.4553 304.40314 521.4553 303.71564L521.4553 303.325ZM524.4397 308.84064L524.3147 307.85626Q524.65845 307.95 524.9241 307.95Q525.2678 307.95 525.47095 307.825Q525.6897 307.71564 525.8303 307.5125Q525.9241 307.34064 526.15845 306.71564Q526.1741 306.6375 526.2522 306.46564L523.8772 300.23126L525.0178 300.23126L526.3147 303.825Q526.5647 304.5125 526.7678 305.27814Q526.9553 304.54376 527.2053 303.85626L528.53345 300.23126L529.5803 300.23126L527.22095 306.5594Q526.8303 307.575 526.6272 307.96564Q526.34595 308.4969 525.97095 308.73126Q525.6116 308.98126 525.1116 308.98126Q524.8147 308.98126 524.4397 308.84064Z" fill-rule="nonzero"/><path fill="#4285f4" d="M142.5 56.916668C142.5 56.364384 142.94771 55.916668 143.5 55.916668L153.5 55.916668C154.05229 55.916668 154.5 56.364384 154.5 56.916668L154.5 66.916664C154.5 67.46895 154.05229 67.916664 153.5 67.916664L143.5 67.916664C142.94771 67.916664 142.5 67.46895 142.5 66.916664Z" fill-rule="nonzero"/><path fill="#1a1a1a" d="M163.4375 65.916664L163.4375 57.322914L167.25 57.322914Q168.40625 57.322914 169.0 57.55729Q169.59375 57.791664 169.95312 58.385414Q170.3125 58.96354 170.3125 59.666664Q170.3125 60.58854 169.71875 61.21354Q169.125 61.83854 167.89062 62.010414Q168.34375 62.229164 168.57812 62.43229Q169.07812 62.885414 169.51562 63.572914L171.01562 65.916664L169.57812 65.916664L168.45312 64.135414Q167.95312 63.354164 167.625 62.947914Q167.3125 62.541664 167.04688 62.385414Q166.79688 62.21354 166.53125 62.135414Q166.34375 62.104164 165.90625 62.104164L164.57812 62.104164L164.57812 65.916664L163.4375 65.916664ZM164.57812 61.11979L167.03125 61.11979Q167.79688 61.11979 168.23438 60.96354Q168.6875 60.791664 168.90625 60.447914Q169.14062 60.08854 169.14062 59.666664Q169.14062 59.05729 168.6875 58.666664Q168.25 58.27604 167.29688 58.27604L164.57812 58.27604L164.57812 61.11979ZM172.375 65.916664L172.375 57.322914L173.51562 57.322914L173.51562 64.90104L177.75 64.90104L177.75 65.916664L172.375 65.916664ZM179.42188 65.916664L179.42188 57.322914L182.67188 57.322914Q183.51562 57.322914 183.96875 57.40104Q184.60938 57.510414 185.03125 57.80729Q185.46875 58.104164 185.71875 58.635414Q185.98438 59.166664 185.98438 59.80729Q185.98438 60.90104 185.28125 61.666664Q184.59375 62.416664 182.76562 62.416664L180.5625 62.416664L180.5625 65.916664L179.42188 65.916664ZM180.5625 61.416664L182.78125 61.416664Q183.89062 61.416664 184.34375 61.010414Q184.8125 60.58854 184.8125 59.83854Q184.8125 59.30729 184.53125 58.93229Q184.26562 58.541664 183.82812 58.416664Q183.53125 58.33854 182.76562 58.33854L180.5625 58.33854L180.5625 61.416664ZM187.42188 65.916664L187.42188 57.322914L190.39062 57.322914Q191.39062 57.322914 191.92188 57.447914Q192.65625 57.61979 193.17188 58.05729Q193.85938 58.635414 194.1875 59.541664Q194.53125 60.43229 194.53125 61.572914Q194.53125 62.55729 194.29688 63.30729Q194.07812 64.05729 193.71875 64.55729Q193.35938 65.05729 192.92188 65.33854Q192.5 65.61979 191.90625 65.77604Q191.3125 65.916664 190.53125 65.916664L187.42188 65.916664ZM188.5625 64.90104L190.39062 64.90104Q191.25 64.90104 191.73438 64.74479Q192.21875 64.58854 192.5 64.291664Q192.90625 63.90104 193.125 63.21354Q193.35938 62.52604 193.35938 61.55729Q193.35938 60.21354 192.90625 59.49479Q192.46875 58.760414 191.84375 58.510414Q191.375 58.33854 190.375 58.33854L188.5625 58.33854L188.5625 64.90104Z" fill-rule="nonzero"/><path fill="#ea4335" d="M211.5 56.916668C211.5 56.364384 211.94771 55.916668 212.5 55.916668L222.5 55.916668C223.05229 55.916668 223.5 56.364384 223.5 56.916668L223.5 66.916664C223.5 67.46895 223.05229 67.916664 222.5 67.916664L212.5 67.916664C211.94771 67.916664 211.5 67.46895 211.5 66.916664Z" fill-rule="nonzero"/><path fill="#1a1a1a" d="M232.04688 63.15104L233.10938 63.05729Q233.1875 63.71354 233.46875 64.11979Q233.75 64.52604 234.32812 64.791664Q234.92188 65.041664 235.65625 65.041664Q236.29688 65.041664 236.79688 64.854164Q237.29688 64.65104 237.53125 64.322914Q237.78125 63.979164 237.78125 63.58854Q237.78125 63.18229 237.54688 62.885414Q237.3125 62.572914 236.78125 62.36979Q236.42188 62.229164 235.23438 61.947914Q234.0625 61.666664 233.59375 61.416664Q232.96875 61.08854 232.67188 60.61979Q232.375 60.135414 232.375 59.541664Q232.375 58.90104 232.73438 58.33854Q233.10938 57.760414 233.8125 57.479164Q234.53125 57.18229 235.39062 57.18229Q236.34375 57.18229 237.07812 57.49479Q237.8125 57.791664 238.20312 58.40104Q238.59375 58.99479 238.625 59.74479L237.53125 59.822914Q237.4375 59.010414 236.92188 58.604164Q236.42188 58.18229 235.4375 58.18229Q234.40625 58.18229 233.9375 58.55729Q233.46875 58.93229 233.46875 59.46354Q233.46875 59.93229 233.79688 60.229164Q234.125 60.52604 235.5 60.83854Q236.89062 61.15104 237.40625 61.385414Q238.15625 61.74479 238.51562 62.27604Q238.875 62.791664 238.875 63.49479Q238.875 64.18229 238.48438 64.791664Q238.09375 65.385414 237.35938 65.729164Q236.625 66.05729 235.70312 66.05729Q234.53125 66.05729 233.73438 65.729164Q232.95312 65.385414 232.5 64.697914Q232.0625 64.010414 232.04688 63.15104ZM240.45312 65.916664L240.45312 57.322914L246.65625 57.322914L246.65625 58.33854L241.59375 58.33854L241.59375 60.96354L246.34375 60.96354L246.34375 61.979164L241.59375 61.979164L241.59375 64.90104L246.85938 64.90104L246.85938 65.916664L240.45312 65.916664ZM248.4375 65.916664L248.4375 57.322914L252.25 57.322914Q253.40625 57.322914 254.0 57.55729Q254.59375 57.791664 254.95312 58.385414Q255.3125 58.96354 255.3125 59.666664Q255.3125 60.58854 254.71875 61.21354Q254.125 61.83854 252.89062 62.010414Q253.34375 62.229164 253.57812 62.43229Q254.07812 62.885414 254.51562 63.572914L256.01562 65.916664L254.57812 65.916664L253.45312 64.135414Q252.95312 63.354164 252.625 62.947914Q252.3125 62.541664 252.04688 62.385414Q251.79688 62.21354 251.53125 62.135414Q251.34375 62.104164 250.90625 62.104164L249.57812 62.104164L249.57812 65.916664L248.4375 65.916664ZM249.57812 61.11979L252.03125 61.11979Q252.79688 61.11979 253.23438 60.96354Q253.6875 60.791664 253.90625 60.447914Q254.14062 60.08854 254.14062 59.666664Q254.14062 59.05729 253.6875 58.666664Q253.25 58.27604 252.29688 58.27604L249.57812 58.27604L249.57812 61.11979ZM257.375 65.916664L257.375 57.322914L258.51562 57.322914L258.51562 64.90104L262.75 64.90104L262.75 65.916664L257.375 65.916664Z" fill-rule="nonzero"/><path fill="#fbbc04" d="M279.5 56.916668C279.5 56.364384 279.94772 55.916668 280.5 55.916668L290.5 55.916668C291.05228 55.916668 291.5 56.364384 291.5 56.916668L291.5 66.916664C291.5 67.46895 291.05228 67.916664 290.5 67.916664L280.5 67.916664C279.94772 67.916664 279.5 67.46895 279.5 66.916664Z" fill-rule="nonzero"/><path fill="#1a1a1a" d="M300.04688 63.15104L301.10938 63.05729Q301.1875 63.71354 301.46875 64.11979Q301.75 64.52604 302.32812 64.791664Q302.92188 65.041664 303.65625 65.041664Q304.29688 65.041664 304.79688 64.854164Q305.29688 64.65104 305.53125 64.322914Q305.78125 63.979164 305.78125 63.58854Q305.78125 63.18229 305.54688 62.885414Q305.3125 62.572914 304.78125 62.36979Q304.42188 62.229164 303.23438 61.947914Q302.0625 61.666664 301.59375 61.416664Q300.96875 61.08854 300.67188 60.61979Q300.375 60.135414 300.375 59.541664Q300.375 58.90104 300.73438 58.33854Q301.10938 57.760414 301.8125 57.479164Q302.53125 57.18229 303.39062 57.18229Q304.34375 57.18229 305.07812 57.49479Q305.8125 57.791664 306.20312 58.40104Q306.59375 58.99479 306.625 59.74479L305.53125 59.822914Q305.4375 59.010414 304.92188 58.604164Q304.42188 58.18229 303.4375 58.18229Q302.40625 58.18229 301.9375 58.55729Q301.46875 58.93229 301.46875 59.46354Q301.46875 59.93229 301.79688 60.229164Q302.125 60.52604 303.5 60.83854Q304.89062 61.15104 305.40625 61.385414Q306.15625 61.74479 306.51562 62.27604Q306.875 62.791664 306.875 63.49479Q306.875 64.18229 306.48438 64.791664Q306.09375 65.385414 305.35938 65.729164Q304.625 66.05729 303.70312 66.05729Q302.53125 66.05729 301.73438 65.729164Q300.95312 65.385414 300.5 64.697914Q300.0625 64.010414 300.04688 63.15104ZM308.29688 58.541664L308.29688 57.322914L309.35938 57.322914L309.35938 58.541664L308.29688 58.541664ZM308.29688 65.916664L308.29688 59.697914L309.35938 59.697914L309.35938 65.916664L308.29688 65.916664ZM311.29688 65.916664L311.29688 59.697914L312.23438 59.697914L312.23438 60.572914Q312.53125 60.104164 313.01562 59.83854Q313.5 59.55729 314.125 59.55729Q314.8125 59.55729 315.25 59.83854Q315.70312 60.11979 315.875 60.635414Q316.625 59.55729 317.79688 59.55729Q318.73438 59.55729 319.21875 60.072914Q319.71875 60.572914 319.71875 61.65104L319.71875 65.916664L318.67188 65.916664L318.67188 61.99479Q318.67188 61.36979 318.5625 61.08854Q318.46875 60.80729 318.20312 60.635414Q317.9375 60.46354 317.5625 60.46354Q316.90625 60.46354 316.46875 60.90104Q316.04688 61.33854 316.04688 62.30729L316.04688 65.916664L314.98438 65.916664L314.98438 61.86979Q314.98438 61.166664 314.71875 60.822914Q314.46875 60.46354 313.89062 60.46354Q313.4375 60.46354 313.0625 60.697914Q312.6875 60.93229 312.51562 61.385414Q312.34375 61.83854 312.34375 62.68229L312.34375 65.916664L311.29688 65.916664ZM327.54688 64.90104L327.54688 65.916664L321.85938 65.916664Q321.85938 65.541664 321.98438 65.18229Q322.20312 64.604164 322.67188 64.041664Q323.15625 63.479164 324.0625 62.74479Q325.46875 61.58854 325.95312 60.916664Q326.45312 60.24479 326.45312 59.65104Q326.45312 59.02604 326.0 58.604164Q325.54688 58.166664 324.82812 58.166664Q324.0625 58.166664 323.60938 58.61979Q323.15625 59.072914 323.14062 59.885414L322.0625 59.77604Q322.17188 58.55729 322.89062 57.93229Q323.625 57.291664 324.85938 57.291664Q326.09375 57.291664 326.8125 57.979164Q327.53125 58.666664 327.53125 59.68229Q327.53125 60.197914 327.3125 60.697914Q327.10938 61.18229 326.60938 61.74479Q326.125 62.291664 325.0 63.24479Q324.04688 64.041664 323.76562 64.33854Q323.5 64.61979 323.32812 64.90104L327.54688 64.90104ZM329.4375 65.916664L329.4375 57.322914L333.25 57.322914Q334.40625 57.322914 335.0 57.55729Q335.59375 57.791664 335.95312 58.385414Q336.3125 58.96354 336.3125 59.666664Q336.3125 60.58854 335.71875 61.21354Q335.125 61.83854 333.89062 62.010414Q334.34375 62.229164 334.57812 62.43229Q335.07812 62.885414 335.51562 63.572914L337.01562 65.916664L335.57812 65.916664L334.45312 64.135414Q333.95312 63.354164 333.625 62.947914Q333.3125 62.541664 333.04688 62.385414Q332.79688 62.21354 332.53125 62.135414Q332.34375 62.104164 331.90625 62.104164L330.57812 62.104164L330.57812 65.916664L329.4375 65.916664ZM330.57812 61.11979L333.03125 61.11979Q333.79688 61.11979 334.23438 60.96354Q334.6875 60.791664 334.90625 60.447914Q335.14062 60.08854 335.14062 59.666664Q335.14062 59.05729 334.6875 58.666664Q334.25 58.27604 333.29688 58.27604L330.57812 58.27604L330.57812 61.11979ZM342.54688 63.916664L343.64062 64.041664Q343.39062 64.99479 342.6875 65.52604Q341.98438 66.05729 340.90625 66.05729Q339.54688 66.05729 338.73438 65.21354Q337.9375 64.36979 337.9375 62.854164Q337.9375 61.291664 338.75 60.43229Q339.5625 59.55729 340.84375 59.55729Q342.09375 59.55729 342.875 60.40104Q343.67188 61.24479 343.67188 62.791664Q343.67188 62.885414 343.67188 63.072914L339.03125 63.072914Q339.09375 64.104164 339.60938 64.65104Q340.125 65.18229 340.90625 65.18229Q341.48438 65.18229 341.89062 64.885414Q342.3125 64.572914 342.54688 63.916664ZM339.09375 62.21354L342.5625 62.21354Q342.5 61.416664 342.17188 61.02604Q341.65625 60.416664 340.85938 60.416664Q340.125 60.416664 339.625 60.90104Q339.14062 61.385414 339.09375 62.21354ZM349.35938 65.15104Q348.76562 65.65104 348.21875 65.854164Q347.6875 66.05729 347.0625 66.05729Q346.03125 66.05729 345.48438 65.55729Q344.9375 65.05729 344.9375 64.27604Q344.9375 63.822914 345.14062 63.447914Q345.34375 63.05729 345.6875 62.83854Q346.03125 62.604164 346.45312 62.49479Q346.75 62.40104 347.39062 62.322914Q348.65625 62.18229 349.26562 61.96354Q349.26562 61.74479 349.26562 61.697914Q349.26562 61.041664 348.96875 60.77604Q348.5625 60.43229 347.76562 60.43229Q347.03125 60.43229 346.67188 60.697914Q346.3125 60.947914 346.14062 61.604164L345.10938 61.46354Q345.25 60.80729 345.57812 60.40104Q345.90625 59.99479 346.51562 59.77604Q347.125 59.55729 347.92188 59.55729Q348.71875 59.55729 349.21875 59.74479Q349.71875 59.93229 349.95312 60.21354Q350.1875 60.49479 350.28125 60.93229Q350.32812 61.197914 350.32812 61.90104L350.32812 63.30729Q350.32812 64.77604 350.39062 65.166664Q350.46875 65.55729 350.67188 65.916664L349.5625 65.916664Q349.40625 65.58854 349.35938 65.15104ZM349.26562 62.791664Q348.6875 63.02604 347.54688 63.197914Q346.89062 63.291664 346.625 63.416664Q346.35938 63.52604 346.20312 63.74479Q346.0625 63.96354 346.0625 64.24479Q346.0625 64.666664 346.375 64.947914Q346.70312 65.229164 347.3125 65.229164Q347.92188 65.229164 348.39062 64.96354Q348.875 64.697914 349.09375 64.229164Q349.26562 63.86979 349.26562 63.18229L349.26562 62.791664ZM352.26562 65.916664L352.26562 57.322914L353.32812 57.322914L353.32812 65.916664L352.26562 65.916664Z" fill-rule="nonzero"/><path fill="#34a853" d="M370.5 56.916668C370.5 56.364384 370.94772 55.916668 371.5 55.916668L381.5 55.916668C382.05228 55.916668 382.5 56.364384 382.5 56.916668L382.5 66.916664C382.5 67.46895 382.05228 67.916664 381.5 67.916664L371.5 67.916664C370.94772 67.916664 370.5 67.46895 370.5 66.916664Z" fill-rule="nonzero"/><path fill="#1a1a1a" d="M391.04688 63.15104L392.10938 63.05729Q392.1875 63.71354 392.46875 64.11979Q392.75 64.52604 393.32812 64.791664Q393.92188 65.041664 394.65625 65.041664Q395.29688 65.041664 395.79688 64.854164Q396.29688 64.65104 396.53125 64.322914Q396.78125 63.979164 396.78125 63.58854Q396.78125 63.18229 396.54688 62.885414Q396.3125 62.572914 395.78125 62.36979Q395.42188 62.229164 394.23438 61.947914Q393.0625 61.666664 392.59375 61.416664Q391.96875 61.08854 391.67188 60.61979Q391.375 60.135414 391.375 59.541664Q391.375 58.90104 391.73438 58.33854Q392.10938 57.760414 392.8125 57.479164Q393.53125 57.18229 394.39062 57.18229Q395.34375 57.18229 396.07812 57.49479Q396.8125 57.791664 397.20312 58.40104Q397.59375 58.99479 397.625 59.74479L396.53125 59.822914Q396.4375 59.010414 395.92188 58.604164Q395.42188 58.18229 394.4375 58.18229Q393.40625 58.18229 392.9375 58.55729Q392.46875 58.93229 392.46875 59.46354Q392.46875 59.93229 392.79688 60.229164Q393.125 60.52604 394.5 60.83854Q395.89062 61.15104 396.40625 61.385414Q397.15625 61.74479 397.51562 62.27604Q397.875 62.791664 397.875 63.49479Q397.875 64.18229 397.48438 64.791664Q397.09375 65.385414 396.35938 65.729164Q395.625 66.05729 394.70312 66.05729Q393.53125 66.05729 392.73438 65.729164Q391.95312 65.385414 391.5 64.697914Q391.0625 64.010414 391.04688 63.15104ZM399.375 65.916664L399.375 57.322914L400.51562 57.322914L400.51562 64.90104L404.75 64.90104L404.75 65.916664L399.375 65.916664ZM405.48438 65.916664L408.78125 57.322914L410.0 57.322914L413.51562 65.916664L412.23438 65.916664L411.21875 63.30729L407.64062 63.30729L406.6875 65.916664L405.48438 65.916664ZM407.96875 62.385414L410.875 62.385414L409.98438 60.010414Q409.5625 58.93229 409.375 58.229164Q409.20312 59.05729 408.90625 59.86979L407.96875 62.385414ZM419.5625 62.90104L420.6875 63.197914Q420.32812 64.58854 419.40625 65.322914Q418.48438 66.05729 417.14062 66.05729Q415.75 66.05729 414.875 65.49479Q414.0 64.93229 413.54688 63.86979Q413.09375 62.791664 413.09375 61.55729Q413.09375 60.21354 413.60938 59.21354Q414.125 58.21354 415.0625 57.697914Q416.01562 57.18229 417.15625 57.18229Q418.4375 57.18229 419.3125 57.83854Q420.20312 58.49479 420.54688 59.68229L419.42188 59.947914Q419.125 59.010414 418.54688 58.58854Q417.98438 58.15104 417.125 58.15104Q416.14062 58.15104 415.46875 58.635414Q414.8125 59.104164 414.53125 59.90104Q414.26562 60.697914 414.26562 61.55729Q414.26562 62.65104 414.57812 63.46354Q414.90625 64.27604 415.57812 64.68229Q416.25 65.08854 417.04688 65.08854Q418.0 65.08854 418.65625 64.541664Q419.32812 63.99479 419.5625 62.90104ZM427.3125 68.447914Q426.4375 67.33854 425.82812 65.86979Q425.23438 64.385414 425.23438 62.80729Q425.23438 61.416664 425.67188 60.135414Q426.20312 58.65104 427.3125 57.18229L428.0625 57.18229Q427.35938 58.40104 427.125 58.916664Q426.76562 59.729164 426.5625 60.604164Q426.3125 61.697914 426.3125 62.80729Q426.3125 65.635414 428.0625 68.447914L427.3125 68.447914ZM428.90625 62.80729Q428.90625 61.072914 429.85938 60.24479Q430.65625 59.55729 431.8125 59.55729Q433.09375 59.55729 433.90625 60.40104Q434.73438 61.229164 434.73438 62.71354Q434.73438 63.916664 434.375 64.604164Q434.01562 65.291664 433.3125 65.68229Q432.625 66.05729 431.8125 66.05729Q430.51562 66.05729 429.70312 65.229164Q428.90625 64.385414 428.90625 62.80729ZM429.98438 62.80729Q429.98438 63.99479 430.5 64.58854Q431.03125 65.18229 431.8125 65.18229Q432.60938 65.18229 433.125 64.58854Q433.64062 63.99479 433.64062 62.77604Q433.64062 61.61979 433.10938 61.02604Q432.59375 60.43229 431.8125 60.43229Q431.03125 60.43229 430.5 61.02604Q429.98438 61.604164 429.98438 62.80729ZM440.375 65.916664L440.375 64.99479Q439.64062 66.05729 438.39062 66.05729Q437.84375 66.05729 437.35938 65.854164Q436.89062 65.635414 436.65625 65.322914Q436.42188 64.99479 436.32812 64.52604Q436.26562 64.229164 436.26562 63.541664L436.26562 59.697914L437.32812 59.697914L437.32812 63.15104Q437.32812 63.96354 437.39062 64.260414Q437.48438 64.666664 437.79688 64.916664Q438.125 65.15104 438.60938 65.15104Q439.07812 65.15104 439.48438 64.916664Q439.90625 64.666664 440.07812 64.24479Q440.26562 63.822914 440.26562 63.02604L440.26562 59.697914L441.3125 59.697914L441.3125 65.916664L440.375 65.916664ZM443.28125 65.916664L443.28125 59.697914L444.23438 59.697914L444.23438 60.635414Q444.59375 59.979164 444.89062 59.77604Q445.20312 59.55729 445.57812 59.55729Q446.10938 59.55729 446.65625 59.885414L446.29688 60.86979Q445.90625 60.635414 445.53125 60.635414Q445.17188 60.635414 444.89062 60.854164Q444.625 61.05729 444.51562 61.43229Q444.32812 61.99479 444.32812 62.65104L444.32812 65.916664L443.28125 65.916664ZM446.875 64.05729L447.90625 63.90104Q448.0 64.52604 448.39062 64.854164Q448.79688 65.18229 449.53125 65.18229Q450.25 65.18229 450.59375 64.90104Q450.95312 64.604164 450.95312 64.197914Q450.95312 63.83854 450.64062 63.635414Q450.42188 63.49479 449.5625 63.27604Q448.40625 62.979164 447.95312 62.77604Q447.51562 62.55729 447.28125 62.18229Q447.04688 61.80729 447.04688 61.33854Q447.04688 60.93229 447.23438 60.572914Q447.42188 60.21354 447.75 59.979164Q448.0 59.80729 448.42188 59.68229Q448.84375 59.55729 449.34375 59.55729Q450.0625 59.55729 450.60938 59.77604Q451.17188 59.979164 451.4375 60.33854Q451.70312 60.697914 451.79688 61.291664L450.76562 61.43229Q450.70312 60.96354 450.35938 60.697914Q450.03125 60.416664 449.40625 60.416664Q448.6875 60.416664 448.375 60.666664Q448.0625 60.90104 448.0625 61.229164Q448.0625 61.43229 448.1875 61.58854Q448.32812 61.760414 448.59375 61.86979Q448.75 61.93229 449.53125 62.135414Q450.65625 62.447914 451.09375 62.635414Q451.53125 62.822914 451.78125 63.18229Q452.03125 63.541664 452.03125 64.08854Q452.03125 64.61979 451.71875 65.08854Q451.42188 65.541664 450.84375 65.80729Q450.26562 66.05729 449.53125 66.05729Q448.3125 66.05729 447.67188 65.55729Q447.04688 65.041664 446.875 64.05729ZM454.98438 68.447914L454.23438 68.447914Q455.98438 65.635414 455.98438 62.80729Q455.98438 61.71354 455.73438 60.61979Q455.53125 59.74479 455.17188 58.93229Q454.9375 58.416664 454.23438 57.18229L454.98438 57.18229Q456.07812 58.65104 456.60938 60.135414Q457.0625 61.416664 457.0625 62.80729Q457.0625 64.385414 456.45312 65.86979Q455.84375 67.33854 454.98438 68.447914Z" fill-rule="nonzero"/><path fill="#757575" d="M20.096874 37.55L20.096874 23.2375L25.4875 23.2375Q26.925 23.2375 27.675 23.3625Q28.721874 23.55 29.440624 24.05Q30.159374 24.534374 30.58125 25.425Q31.01875 26.315624 31.01875 27.378124Q31.01875 29.20625 29.846874 30.471874Q28.690624 31.721874 25.659374 31.721874L21.9875 31.721874L21.9875 37.55L20.096874 37.55ZM21.9875 30.034374L25.690624 30.034374Q27.51875 30.034374 28.284374 29.3625Q29.065624 28.675 29.065624 27.425Q29.065624 26.534374 28.6125 25.89375Q28.159374 25.253124 27.425 25.05Q26.940624 24.925 25.64375 24.925L21.9875 24.925L21.9875 30.034374ZM32.221874 32.3625Q32.221874 29.4875 33.815624 28.096874Q35.159374 26.940624 37.08125 26.940624Q39.221874 26.940624 40.565624 28.346874Q41.925 29.753124 41.925 32.221874Q41.925 34.221874 41.33125 35.378124Q40.7375 36.51875 39.58125 37.159374Q38.440624 37.784374 37.08125 37.784374Q34.89375 37.784374 33.55 36.39375Q32.221874 34.9875 32.221874 32.3625ZM34.01875 32.3625Q34.01875 34.3625 34.878124 35.346874Q35.753124 36.33125 37.08125 36.33125Q38.39375 36.33125 39.253124 35.346874Q40.128124 34.346874 40.128124 32.3Q40.128124 30.378124 39.253124 29.39375Q38.378124 28.39375 37.08125 28.39375Q35.753124 28.39375 34.878124 29.39375Q34.01875 30.378124 34.01875 32.3625ZM43.159374 34.45625L44.909374 34.175Q45.05 35.221874 45.721874 35.784374Q46.39375 36.33125 47.596874 36.33125Q48.8 36.33125 49.378124 35.846874Q49.971874 35.346874 49.971874 34.690624Q49.971874 34.096874 49.45625 33.753124Q49.096874 33.51875 47.659374 33.159374Q45.721874 32.659374 44.971874 32.315624Q44.2375 31.95625 43.846874 31.33125Q43.45625 30.690624 43.45625 29.925Q43.45625 29.2375 43.76875 28.64375Q44.096874 28.05 44.64375 27.659374Q45.05 27.3625 45.753124 27.159374Q46.471874 26.940624 47.284374 26.940624Q48.503124 26.940624 49.425 27.3Q50.346874 27.64375 50.784374 28.253124Q51.221874 28.846874 51.39375 29.846874L49.675 30.08125Q49.55 29.284374 48.9875 28.846874Q48.425 28.39375 47.409374 28.39375Q46.190624 28.39375 45.675 28.8Q45.159374 29.190624 45.159374 29.721874Q45.159374 30.065624 45.378124 30.346874Q45.58125 30.628124 46.05 30.815624Q46.315624 30.909374 47.596874 31.253124Q49.471874 31.753124 50.20625 32.08125Q50.940624 32.39375 51.3625 33.003124Q51.784374 33.596874 51.784374 34.503124Q51.784374 35.378124 51.26875 36.159374Q50.753124 36.940624 49.784374 37.3625Q48.815624 37.784374 47.596874 37.784374Q45.58125 37.784374 44.51875 36.940624Q43.45625 36.096874 43.159374 34.45625ZM57.70625 35.971874L57.95625 37.534374Q57.221874 37.690624 56.628124 37.690624Q55.675 37.690624 55.14375 37.39375Q54.628124 37.08125 54.409374 36.596874Q54.190624 36.096874 54.190624 34.51875L54.190624 28.55L52.909374 28.55L52.909374 27.175L54.190624 27.175L54.190624 24.6125L55.940624 23.55L55.940624 27.175L57.70625 27.175L57.70625 28.55L55.940624 28.55L55.940624 34.6125Q55.940624 35.3625 56.034374 35.58125Q56.128124 35.784374 56.33125 35.925Q56.55 36.05 56.940624 36.05Q57.221874 36.05 57.70625 35.971874ZM69.7375 37.55L69.7375 24.925L65.01875 24.925L65.01875 23.2375L76.3625 23.2375L76.3625 24.925L71.62813 24.925L71.62813 37.55L69.7375 37.55ZM77.84688 37.55L77.84688 27.175L79.425 27.175L79.425 28.753124Q80.03438 27.64375 80.55 27.3Q81.06563 26.940624 81.675 26.940624Q82.56563 26.940624 83.4875 27.503124L82.87813 29.14375Q82.2375 28.753124 81.59688 28.753124Q81.01875 28.753124 80.55 29.1125Q80.09688 29.45625 79.89375 30.065624Q79.6125 31.003124 79.6125 32.1125L79.6125 37.55L77.84688 37.55ZM91.64375 36.26875Q90.65938 37.096874 89.75313 37.440624Q88.84688 37.784374 87.81563 37.784374Q86.1125 37.784374 85.19063 36.95625Q84.26875 36.1125 84.26875 34.815624Q84.26875 34.05 84.6125 33.425Q84.97188 32.8 85.53438 32.425Q86.09688 32.034374 86.8 31.83125Q87.31563 31.70625 88.3625 31.565624Q90.4875 31.315624 91.4875 30.971874Q91.50313 30.6125 91.50313 30.503124Q91.50313 29.440624 91.00313 28.9875Q90.33125 28.39375 89.00313 28.39375Q87.75313 28.39375 87.15938 28.83125Q86.58125 29.26875 86.3 30.378124L84.58125 30.14375Q84.81563 29.034374 85.34688 28.3625Q85.87813 27.675 86.89375 27.315624Q87.90938 26.940624 89.25313 26.940624Q90.58125 26.940624 91.40938 27.253124Q92.2375 27.565624 92.62813 28.05Q93.01875 28.51875 93.175 29.2375Q93.26875 29.690624 93.26875 30.8625L93.26875 33.20625Q93.26875 35.659374 93.37813 36.315624Q93.4875 36.95625 93.83125 37.55L91.9875 37.55Q91.72188 37.003124 91.64375 36.26875ZM91.4875 32.346874Q90.53438 32.7375 88.6125 33.003124Q87.53438 33.159374 87.08125 33.3625Q86.64375 33.55 86.39375 33.925Q86.14375 34.3 86.14375 34.76875Q86.14375 35.471874 86.675 35.940624Q87.20625 36.409374 88.2375 36.409374Q89.25313 36.409374 90.03438 35.971874Q90.83125 35.51875 91.20625 34.753124Q91.4875 34.14375 91.4875 32.9875L91.4875 32.346874ZM95.87813 25.253124L95.87813 23.2375L97.64375 23.2375L97.64375 25.253124L95.87813 25.253124ZM95.87813 37.55L95.87813 27.175L97.64375 27.175L97.64375 37.55L95.87813 37.55ZM99.8625 37.55L99.8625 27.175L101.45625 27.175L101.45625 28.659374Q102.59688 26.940624 104.75313 26.940624Q105.69063 26.940624 106.47188 27.284374Q107.26875 27.6125 107.65938 28.159374Q108.05 28.70625 108.20625 29.45625Q108.3 29.95625 108.3 31.175L108.3 37.55L106.53438 37.55L106.53438 31.2375Q106.53438 30.159374 106.33125 29.628124Q106.12813 29.096874 105.59688 28.784374Q105.08125 28.471874 104.37813 28.471874Q103.25313 28.471874 102.44063 29.190624Q101.62813 29.89375 101.62813 31.878124L101.62813 37.55L99.8625 37.55ZM109.87813 25.253124L109.87813 23.2375L111.64375 23.2375L111.64375 25.253124L109.87813 25.253124ZM109.87813 37.55L109.87813 27.175L111.64375 27.175L111.64375 37.55L109.87813 37.55ZM113.8625 37.55L113.8625 27.175L115.45625 27.175L115.45625 28.659374Q116.59688 26.940624 118.75313 26.940624Q119.69063 26.940624 120.47188 27.284374Q121.26875 27.6125 121.65938 28.159374Q122.05 28.70625 122.20625 29.45625Q122.3 29.95625 122.3 31.175L122.3 37.55L120.53438 37.55L120.53438 31.2375Q120.53438 30.159374 120.33125 29.628124Q120.12813 29.096874 119.59688 28.784374Q119.08125 28.471874 118.37813 28.471874Q117.25313 28.471874 116.44063 29.190624Q115.62813 29.89375 115.62813 31.878124L115.62813 37.55L113.8625 37.55ZM123.55 38.409374L125.25313 38.659374Q125.3625 39.45625 125.84688 39.815624Q126.50313 40.3 127.64375 40.3Q128.8625 40.3 129.51875 39.815624Q130.19063 39.33125 130.425 38.45625Q130.56563 37.909374 130.55 36.190624Q129.39375 37.55 127.675 37.55Q125.53438 37.55 124.3625 36.003124Q123.19063 34.45625 123.19063 32.3Q123.19063 30.815624 123.72188 29.565624Q124.26875 28.315624 125.28438 27.628124Q126.31563 26.940624 127.69063 26.940624Q129.51875 26.940624 130.72188 28.425L130.72188 27.175L132.33125 27.175L132.33125 36.14375Q132.33125 38.565624 131.83125 39.565624Q131.34688 40.58125 130.26875 41.159374Q129.20625 41.753124 127.64375 41.753124Q125.8 41.753124 124.64375 40.925Q123.50313 40.096874 123.55 38.409374ZM125.00313 32.175Q125.00313 34.221874 125.81563 35.159374Q126.62813 36.096874 127.84688 36.096874Q129.05 36.096874 129.8625 35.159374Q130.69063 34.221874 130.69063 32.2375Q130.69063 30.33125 129.84688 29.3625Q129.00313 28.39375 127.81563 28.39375Q126.64375 28.39375 125.81563 29.346874Q125.00313 30.3 125.00313 32.175ZM140.45625 32.95625L142.2375 32.8Q142.3625 33.8625 142.81563 34.55Q143.28438 35.2375 144.25313 35.675Q145.2375 36.096874 146.47188 36.096874Q147.55 36.096874 148.37813 35.784374Q149.20625 35.45625 149.6125 34.89375Q150.01875 34.33125 150.01875 33.659374Q150.01875 32.9875 149.62813 32.4875Q149.2375 31.9875 148.34688 31.64375Q147.76875 31.409374 145.78438 30.940624Q143.81563 30.471874 143.03438 30.05Q142.00313 29.51875 141.50313 28.721874Q141.00313 27.925 141.00313 26.940624Q141.00313 25.846874 141.6125 24.909374Q142.22188 23.971874 143.40938 23.4875Q144.59688 22.9875 146.03438 22.9875Q147.62813 22.9875 148.84688 23.503124Q150.06563 24.01875 150.70625 25.01875Q151.3625 26.003124 151.40938 27.26875L149.59688 27.409374Q149.45625 26.05 148.6125 25.3625Q147.76875 24.659374 146.1125 24.659374Q144.39375 24.659374 143.59688 25.3Q142.81563 25.925 142.81563 26.8Q142.81563 27.58125 143.37813 28.08125Q143.925 28.58125 146.2375 29.096874Q148.55 29.6125 149.40938 30.003124Q150.65938 30.58125 151.25313 31.471874Q151.84688 32.346874 151.84688 33.503124Q151.84688 34.64375 151.19063 35.659374Q150.53438 36.675 149.3 37.2375Q148.08125 37.8 146.55 37.8Q144.6125 37.8 143.3 37.2375Q141.9875 36.659374 141.2375 35.51875Q140.4875 34.378124 140.45625 32.95625ZM160.65938 37.55L160.65938 36.01875Q159.45625 37.784374 157.37813 37.784374Q156.45625 37.784374 155.65938 37.440624Q154.8625 37.08125 154.47188 36.55Q154.09688 36.01875 153.94063 35.2375Q153.83125 34.721874 153.83125 33.596874L153.83125 27.175L155.58125 27.175L155.58125 32.925Q155.58125 34.3 155.69063 34.784374Q155.8625 35.471874 156.39375 35.878124Q156.94063 36.26875 157.72188 36.26875Q158.51875 36.26875 159.20625 35.8625Q159.90938 35.45625 160.19063 34.76875Q160.4875 34.065624 160.4875 32.7375L160.4875 27.175L162.2375 27.175L162.2375 37.55L160.65938 37.55ZM170.64375 33.753124L172.3625 33.971874Q172.08125 35.76875 170.90938 36.784374Q169.75313 37.784374 168.05 37.784374Q165.925 37.784374 164.62813 36.39375Q163.33125 35.003124 163.33125 32.409374Q163.33125 30.721874 163.87813 29.471874Q164.44063 28.20625 165.58125 27.58125Q166.72188 26.940624 168.06563 26.940624Q169.75313 26.940624 170.81563 27.8Q171.89375 28.659374 172.20625 30.221874L170.4875 30.4875Q170.25313 29.440624 169.62813 28.925Q169.00313 28.39375 168.12813 28.39375Q166.8 28.39375 165.97188 29.346874Q165.14375 30.3 165.14375 32.346874Q165.14375 34.440624 165.94063 35.39375Q166.7375 36.33125 168.03438 36.33125Q169.06563 36.33125 169.75313 35.70625Q170.45625 35.065624 170.64375 33.753124ZM180.64375 33.753124L182.3625 33.971874Q182.08125 35.76875 180.90938 36.784374Q179.75313 37.784374 178.05 37.784374Q175.925 37.784374 174.62813 36.39375Q173.33125 35.003124 173.33125 32.409374Q173.33125 30.721874 173.87813 29.471874Q174.44063 28.20625 175.58125 27.58125Q176.72188 26.940624 178.06563 26.940624Q179.75313 26.940624 180.81563 27.8Q181.89375 28.659374 182.20625 30.221874L180.4875 30.4875Q180.25313 29.440624 179.62813 28.925Q179.00313 28.39375 178.12813 28.39375Q176.8 28.39375 175.97188 29.346874Q175.14375 30.3 175.14375 32.346874Q175.14375 34.440624 175.94063 35.39375Q176.7375 36.33125 178.03438 36.33125Q179.06563 36.33125 179.75313 35.70625Q180.45625 35.065624 180.64375 33.753124ZM190.97188 34.20625L192.78438 34.440624Q192.3625 36.01875 191.19063 36.909374Q190.03438 37.784374 188.22188 37.784374Q185.95625 37.784374 184.6125 36.39375Q183.28438 34.9875 183.28438 32.45625Q183.28438 29.83125 184.62813 28.39375Q185.97188 26.940624 188.12813 26.940624Q190.20625 26.940624 191.51875 28.3625Q192.84688 29.76875 192.84688 32.346874Q192.84688 32.503124 192.83125 32.815624L185.09688 32.815624Q185.19063 34.51875 186.06563 35.425Q186.94063 36.33125 188.2375 36.33125Q189.20625 36.33125 189.87813 35.83125Q190.56563 35.315624 190.97188 34.20625ZM185.19063 31.3625L190.9875 31.3625Q190.87813 30.065624 190.33125 29.409374Q189.4875 28.39375 188.14375 28.39375Q186.94063 28.39375 186.1125 29.20625Q185.28438 30.003124 185.19063 31.3625ZM194.15938 34.45625L195.90938 34.175Q196.05 35.221874 196.72188 35.784374Q197.39375 36.33125 198.59688 36.33125Q199.8 36.33125 200.37813 35.846874Q200.97188 35.346874 200.97188 34.690624Q200.97188 34.096874 200.45625 33.753124Q200.09688 33.51875 198.65938 33.159374Q196.72188 32.659374 195.97188 32.315624Q195.2375 31.95625 194.84688 31.33125Q194.45625 30.690624 194.45625 29.925Q194.45625 29.2375 194.76875 28.64375Q195.09688 28.05 195.64375 27.659374Q196.05 27.3625 196.75313 27.159374Q197.47188 26.940624 198.28438 26.940624Q199.50313 26.940624 200.425 27.3Q201.34688 27.64375 201.78438 28.253124Q202.22188 28.846874 202.39375 29.846874L200.675 30.08125Q200.55 29.284374 199.9875 28.846874Q199.425 28.39375 198.40938 28.39375Q197.19063 28.39375 196.675 28.8Q196.15938 29.190624 196.15938 29.721874Q196.15938 30.065624 196.37813 30.346874Q196.58125 30.628124 197.05 30.815624Q197.31563 30.909374 198.59688 31.253124Q200.47188 31.753124 201.20625 32.08125Q201.94063 32.39375 202.3625 33.003124Q202.78438 33.596874 202.78438 34.503124Q202.78438 35.378124 202.26875 36.159374Q201.75313 36.940624 200.78438 37.3625Q199.81563 37.784374 198.59688 37.784374Q196.58125 37.784374 195.51875 36.940624Q194.45625 36.096874 194.15938 34.45625ZM204.15938 34.45625L205.90938 34.175Q206.05 35.221874 206.72188 35.784374Q207.39375 36.33125 208.59688 36.33125Q209.8 36.33125 210.37813 35.846874Q210.97188 35.346874 210.97188 34.690624Q210.97188 34.096874 210.45625 33.753124Q210.09688 33.51875 208.65938 33.159374Q206.72188 32.659374 205.97188 32.315624Q205.2375 31.95625 204.84688 31.33125Q204.45625 30.690624 204.45625 29.925Q204.45625 29.2375 204.76875 28.64375Q205.09688 28.05 205.64375 27.659374Q206.05 27.3625 206.75313 27.159374Q207.47188 26.940624 208.28438 26.940624Q209.50313 26.940624 210.425 27.3Q211.34688 27.64375 211.78438 28.253124Q212.22188 28.846874 212.39375 29.846874L210.675 30.08125Q210.55 29.284374 209.9875 28.846874Q209.425 28.39375 208.40938 28.39375Q207.19063 28.39375 206.675 28.8Q206.15938 29.190624 206.15938 29.721874Q206.15938 30.065624 206.37813 30.346874Q206.58125 30.628124 207.05 30.815624Q207.31563 30.909374 208.59688 31.253124Q210.47188 31.753124 211.20625 32.08125Q211.94063 32.39375 212.3625 33.003124Q212.78438 33.596874 212.78438 34.503124Q212.78438 35.378124 212.26875 36.159374Q211.75313 36.940624 210.78438 37.3625Q209.81563 37.784374 208.59688 37.784374Q206.58125 37.784374 205.51875 36.940624Q204.45625 36.096874 204.15938 34.45625ZM221.12813 37.55L221.12813 23.2375L227.47188 23.2375Q229.37813 23.2375 230.37813 23.628124Q231.37813 24.003124 231.97188 24.9875Q232.56563 25.95625 232.56563 27.14375Q232.56563 28.659374 231.58125 29.70625Q230.59688 30.753124 228.53438 31.034374Q229.28438 31.39375 229.675 31.753124Q230.50313 32.503124 231.25313 33.659374L233.7375 37.55L231.3625 37.55L229.45625 34.565624Q228.62813 33.284374 228.09688 32.596874Q227.56563 31.909374 227.12813 31.64375Q226.70625 31.3625 226.26875 31.253124Q225.94063 31.190624 225.22188 31.190624L223.01875 31.190624L223.01875 37.55L221.12813 37.55ZM223.01875 29.55L227.09688 29.55Q228.39375 29.55 229.1125 29.284374Q229.84688 29.01875 230.22188 28.425Q230.6125 27.83125 230.6125 27.14375Q230.6125 26.128124 229.87813 25.471874Q229.14375 24.815624 227.55 24.815624L223.01875 24.815624L223.01875 29.55ZM241.64375 36.26875Q240.65938 37.096874 239.75313 37.440624Q238.84688 37.784374 237.81563 37.784374Q236.1125 37.784374 235.19063 36.95625Q234.26875 36.1125 234.26875 34.815624Q234.26875 34.05 234.6125 33.425Q234.97188 32.8 235.53438 32.425Q236.09688 32.034374 236.8 31.83125Q237.31563 31.70625 238.3625 31.565624Q240.4875 31.315624 241.4875 30.971874Q241.50313 30.6125 241.50313 30.503124Q241.50313 29.440624 241.00313 28.9875Q240.33125 28.39375 239.00313 28.39375Q237.75313 28.39375 237.15938 28.83125Q236.58125 29.26875 236.3 30.378124L234.58125 30.14375Q234.81563 29.034374 235.34688 28.3625Q235.87813 27.675 236.89375 27.315624Q237.90938 26.940624 239.25313 26.940624Q240.58125 26.940624 241.40938 27.253124Q242.2375 27.565624 242.62813 28.05Q243.01875 28.51875 243.175 29.2375Q243.26875 29.690624 243.26875 30.8625L243.26875 33.20625Q243.26875 35.659374 243.37813 36.315624Q243.4875 36.95625 243.83125 37.55L241.9875 37.55Q241.72188 37.003124 241.64375 36.26875ZM241.4875 32.346874Q240.53438 32.7375 238.6125 33.003124Q237.53438 33.159374 237.08125 33.3625Q236.64375 33.55 236.39375 33.925Q236.14375 34.3 236.14375 34.76875Q236.14375 35.471874 236.675 35.940624Q237.20625 36.409374 238.2375 36.409374Q239.25313 36.409374 240.03438 35.971874Q240.83125 35.51875 241.20625 34.753124Q241.4875 34.14375 241.4875 32.9875L241.4875 32.346874ZM249.70625 35.971874L249.95625 37.534374Q249.22188 37.690624 248.62813 37.690624Q247.675 37.690624 247.14375 37.39375Q246.62813 37.08125 246.40938 36.596874Q246.19063 36.096874 246.19063 34.51875L246.19063 28.55L244.90938 28.55L244.90938 27.175L246.19063 27.175L246.19063 24.6125L247.94063 23.55L247.94063 27.175L249.70625 27.175L249.70625 28.55L247.94063 28.55L247.94063 34.6125Q247.94063 35.3625 248.03438 35.58125Q248.12813 35.784374 248.33125 35.925Q248.55 36.05 248.94063 36.05Q249.22188 36.05 249.70625 35.971874ZM258.97186 34.20625L260.78436 34.440624Q260.3625 36.01875 259.1906 36.909374Q258.03436 37.784374 256.22186 37.784374Q253.95625 37.784374 252.6125 36.39375Q251.28438 34.9875 251.28438 32.45625Q251.28438 29.83125 252.62813 28.39375Q253.97188 26.940624 256.1281 26.940624Q258.20624 26.940624 259.51874 28.3625Q260.84686 29.76875 260.84686 32.346874Q260.84686 32.503124 260.83124 32.815624L253.09688 32.815624Q253.19063 34.51875 254.06563 35.425Q254.94063 36.33125 256.2375 36.33125Q257.20624 36.33125 257.8781 35.83125Q258.5656 35.315624 258.97186 34.20625ZM253.19063 31.3625L258.9875 31.3625Q258.8781 30.065624 258.33124 29.409374Q257.4875 28.39375 256.14374 28.39375Q254.94063 28.39375 254.1125 29.20625Q253.28438 30.003124 253.19063 31.3625Z" fill-rule="nonzero"/></svg>